<svg width="18" height="18" viewBox="0 0 18 18" fill="currentColor" xmlns="http://www.w3.org/2000/svg">
<path d="M10.587 15C10.2535 15 9.96825 14.8813 9.73125 14.6438C9.49425 14.4063 9.3755 14.1213 9.375 13.7888V10.5863C9.375 10.2533 9.49375 9.96825 9.73125 9.73125C9.96875 9.49425 10.2538 9.3755 10.5863 9.375H13.7888C14.1218 9.375 14.4068 9.49375 14.6438 9.73125C14.8808 9.96875 14.9995 10.2538 15 10.5863V13.7888C15 14.1218 14.8813 14.4068 14.6438 14.6438C14.4063 14.8808 14.1213 14.9995 13.7888 15H10.587ZM10.587 8.625C10.2535 8.625 9.96825 8.50625 9.73125 8.26875C9.49425 8.03125 9.3755 7.74625 9.375 7.41375V4.21125C9.375 3.87825 9.49375 3.59325 9.73125 3.35625C9.96875 3.11925 10.2538 3.0005 10.5863 3H13.7888C14.1218 3 14.4068 3.11875 14.6438 3.35625C14.8808 3.59375 14.9995 3.87875 15 4.21125V7.41375C15 7.74675 14.8813 8.03175 14.6438 8.26875C14.4063 8.50575 14.1213 8.6245 13.7888 8.625H10.587ZM4.212 8.625C3.8785 8.625 3.59325 8.50625 3.35625 8.26875C3.11925 8.03125 3.0005 7.74625 3 7.41375V4.21125C3 3.87825 3.11875 3.59325 3.35625 3.35625C3.59375 3.11925 3.87875 3.0005 4.21125 3H7.41375C7.74675 3 8.03175 3.11875 8.26875 3.35625C8.50575 3.59375 8.6245 3.87875 8.625 4.21125V7.41375C8.625 7.74675 8.50625 8.03175 8.26875 8.26875C8.03125 8.50575 7.74625 8.6245 7.41375 8.625H4.212ZM4.212 15C3.8785 15 3.59325 14.8813 3.35625 14.6438C3.11925 14.4063 3.0005 14.1215 3 13.7895V10.587C3 10.254 3.11875 9.969 3.35625 9.732C3.59375 9.495 3.87875 9.37625 4.21125 9.37575H7.41375C7.74675 9.37575 8.03175 9.4945 8.26875 9.732C8.50575 9.9695 8.6245 10.2545 8.625 10.587V13.7895C8.625 14.1225 8.50625 14.4075 8.26875 14.6445C8.03125 14.8815 7.74625 15 7.41375 15H4.212Z" fill="currentColor"/>
</svg>
