<svg width="12" height="15" viewBox="0 0 12 15" fill="currentColor" xmlns="http://www.w3.org/2000/svg">
<path d="M4.17256 1.80909C4.17256 1.45129 4.27966 1.10152 4.48032 0.804016C4.68098 0.506512 4.96618 0.274636 5.29986 0.13771C5.63355 0.00078385 6.00072 -0.0350422 6.35496 0.034762C6.70919 0.104566 7.03458 0.276866 7.28997 0.529872C7.54536 0.782878 7.71928 1.10523 7.78975 1.45616C7.86021 1.80709 7.82404 2.17084 7.68583 2.5014C7.54761 2.83197 7.31355 3.11451 7.01324 3.3133C6.71294 3.51209 6.35987 3.61819 5.9987 3.61819C5.51437 3.61819 5.04989 3.42759 4.70742 3.08832C4.36495 2.74905 4.17256 2.2889 4.17256 1.80909ZM11.7002 8.57898L8.74899 5.26446C8.57762 5.07196 8.36687 4.91779 8.13073 4.81218C7.89459 4.70657 7.63847 4.65196 7.37939 4.65196H4.618C4.35892 4.65196 4.1028 4.70657 3.86666 4.81218C3.63052 4.91779 3.41977 5.07196 3.2484 5.26446L0.29723 8.57898C0.1056 8.77322 -0.00116728 9.03437 9.62755e-06 9.30598C0.00118654 9.57758 0.110213 9.83782 0.303519 10.0304C0.496826 10.223 0.758881 10.3325 1.03303 10.3353C1.30718 10.338 1.57141 10.2337 1.76858 10.045L3.45515 8.70303L2.17033 13.5411C2.05855 13.7897 2.05023 14.0719 2.14717 14.3265C2.24412 14.5812 2.43852 14.7877 2.68817 14.9012C2.93783 15.0147 3.22262 15.0262 3.48073 14.933C3.73885 14.8399 3.94947 14.6496 4.0669 14.4036L5.9987 11.113L7.92788 14.4081C8.04531 14.6542 8.25593 14.8444 8.51405 14.9375C8.77217 15.0307 9.05695 15.0193 9.30661 14.9057C9.55627 14.7922 9.75066 14.5857 9.84761 14.3311C9.94456 14.0764 9.93624 13.7942 9.82446 13.5456L8.54225 8.70303L10.2314 10.045C10.4286 10.2337 10.6928 10.338 10.967 10.3353C11.2411 10.3325 11.5032 10.223 11.6965 10.0304C11.8898 9.83782 11.9988 9.57758 12 9.30598C12.0012 9.03437 11.8944 8.77322 11.7028 8.57898H11.7002Z" fill="currentColor"/>
</svg>
