<svg width="13" height="13" viewBox="0 0 13 13" fill="currentColor" xmlns="http://www.w3.org/2000/svg">
<path d="M12.2778 0C12.2778 0 12.3058 0.03315 12.35 0.09555C12.5326 0.34905 13 1.08355 13 1.94935C13 2.49535 12.751 2.98805 12.35 3.34165C11.9293 3.70602 11.3901 3.90453 10.8335 3.9C10.3752 3.90232 9.92651 3.76888 9.54395 3.5165C9.0116 3.1616 8.66645 2.5922 8.66645 1.95C8.66645 2.5922 8.32195 3.1616 7.78895 3.5165C7.42885 3.757 6.98295 3.9 6.5 3.9C6.04169 3.90232 5.59296 3.76888 5.2104 3.5165C4.67805 3.1616 4.3329 2.5922 4.3329 1.95C4.3329 2.5922 3.9884 3.1616 3.4554 3.5165C3.0953 3.757 2.6494 3.9 2.16645 3.9C1.6098 3.90435 1.07065 3.70561 0.65 3.341C0.24895 2.98805 0 2.4947 0 1.95C0 1.0842 0.46735 0.35035 0.65 0.0962C0.69485 0.0338 0.72215 0.000649953 0.72215 0.000649953L12.2778 0ZM10.8335 5.19935C11.3613 5.19935 11.88 5.08235 12.35 4.86785V11.6974H13V13H9.425V7.8H3.575V13H0V11.6974H0.65V4.8685C1.12582 5.08652 1.64306 5.19937 2.16645 5.19935C2.95295 5.19935 3.72125 4.93935 4.3329 4.485C4.96059 4.94823 5.71989 5.19874 6.5 5.2C7.2865 5.2 8.0548 4.94 8.66645 4.48565C9.29422 4.94864 10.0535 5.19893 10.8335 5.2" fill="currentColor"/>
</svg>
