<svg width="19" height="19" viewBox="0 0 19 19" fill="currentColor" xmlns="http://www.w3.org/2000/svg">
<path d="M16.625 15.0417V15.8333H2.375V15.0417L3.95833 13.4583V8.70834C3.95833 6.25418 5.56542 4.09293 7.91667 3.39626V3.16668C7.91667 2.74675 8.08348 2.34402 8.38041 2.04709C8.67735 1.75016 9.08007 1.58334 9.5 1.58334C9.91993 1.58334 10.3227 1.75016 10.6196 2.04709C10.9165 2.34402 11.0833 2.74675 11.0833 3.16668V3.39626C13.4346 4.09293 15.0417 6.25418 15.0417 8.70834V13.4583L16.625 15.0417ZM11.0833 16.625C11.0833 17.0449 10.9165 17.4477 10.6196 17.7446C10.3227 18.0415 9.91993 18.2083 9.5 18.2083C9.08007 18.2083 8.67735 18.0415 8.38041 17.7446C8.08348 17.4477 7.91667 17.0449 7.91667 16.625" fill="currentColor"/>
</svg>
