<svg width="19" height="19" viewBox="0 0 19 19" fill="currentColor" xmlns="http://www.w3.org/2000/svg">
<path d="M3.5625 16.625C3.5625 16.625 2.375 16.625 2.375 15.4375C2.375 14.25 3.5625 10.6875 9.5 10.6875C15.4375 10.6875 16.625 14.25 16.625 15.4375C16.625 16.625 15.4375 16.625 15.4375 16.625H3.5625ZM9.5 9.5C10.4448 9.5 11.351 9.12467 12.0191 8.45657C12.6872 7.78847 13.0625 6.88233 13.0625 5.9375C13.0625 4.99267 12.6872 4.08653 12.0191 3.41843C11.351 2.75033 10.4448 2.375 9.5 2.375C8.55517 2.375 7.64903 2.75033 6.98093 3.41843C6.31283 4.08653 5.9375 4.99267 5.9375 5.9375C5.9375 6.88233 6.31283 7.78847 6.98093 8.45657C7.64903 9.12467 8.55517 9.5 9.5 9.5Z" fill="currentColor"/>
</svg>
