<svg width="4" height="24" viewBox="0 0 4 24" fill="none" xmlns="http://www.w3.org/2000/svg">
<path d="M0 2C0 2.53043 0.210713 3.03914 0.585786 3.41421C0.960859 3.78929 1.46957 4 2 4C2.53043 4 3.03914 3.78929 3.41421 3.41421C3.78929 3.03914 4 2.53043 4 2C4 1.46957 3.78929 0.960859 3.41421 0.585787C3.03914 0.210714 2.53043 0 2 0C1.46957 0 0.960859 0.210714 0.585786 0.585787C0.210713 0.960859 0 1.46957 0 2ZM0 12C0 12.5304 0.210713 13.0391 0.585786 13.4142C0.960859 13.7893 1.46957 14 2 14C2.53043 14 3.03914 13.7893 3.41421 13.4142C3.78929 13.0391 4 12.5304 4 12C4 11.4696 3.78929 10.9609 3.41421 10.5858C3.03914 10.2107 2.53043 10 2 10C1.46957 10 0.960859 10.2107 0.585786 10.5858C0.210713 10.9609 0 11.4696 0 12ZM0 22C0 22.5304 0.210713 23.0391 0.585786 23.4142C0.960859 23.7893 1.46957 24 2 24C2.53043 24 3.03914 23.7893 3.41421 23.4142C3.78929 23.0391 4 22.5304 4 22C4 21.4696 3.78929 20.9609 3.41421 20.5858C3.03914 20.2107 2.53043 20 2 20C1.46957 20 0.960859 20.2107 0.585786 20.5858C0.210713 20.9609 0 21.4696 0 22Z" fill="white"/>
</svg>
