<svg width="27" height="27" viewBox="0 0 27 27" fill="none" xmlns="http://www.w3.org/2000/svg">
<path d="M2.90917 1.77711C2.76792 1.70647 2.60969 1.67688 2.45246 1.69172C2.29524 1.70656 2.14533 1.76523 2.0198 1.86105C1.89426 1.95687 1.79814 2.086 1.74236 2.23374C1.68659 2.38149 1.6734 2.54193 1.70429 2.6968L4.07185 10.8812C4.116 11.0337 4.20229 11.1707 4.3208 11.2763C4.43931 11.382 4.58523 11.4521 4.74179 11.4785L14.3437 13.0867C14.7959 13.1762 14.7959 13.8242 14.3437 13.9136L4.74179 15.5218C4.58523 15.5482 4.43931 15.6183 4.3208 15.724C4.20229 15.8297 4.116 15.9667 4.07185 16.1192L1.70429 24.3036C1.6734 24.4584 1.68659 24.6189 1.74236 24.7666C1.79814 24.9144 1.89426 25.0435 2.0198 25.1393C2.14533 25.2351 2.29524 25.2938 2.45246 25.3086C2.60969 25.3235 2.76792 25.2939 2.90917 25.2232L24.8467 14.2545C24.9866 14.1843 25.1043 14.0766 25.1866 13.9434C25.2688 13.8102 25.3124 13.6567 25.3124 13.5002C25.3124 13.3436 25.2688 13.1901 25.1866 13.0569C25.1043 12.9237 24.9866 12.816 24.8467 12.7459L2.90917 1.77711Z" fill="white"/>
</svg>
