<svg width="34" height="34" viewBox="0 0 34 34" fill="none" xmlns="http://www.w3.org/2000/svg">
<path fill-rule="evenodd" clip-rule="evenodd" d="M15.363 9.21431C15.6611 9.50006 15.6611 9.96335 15.363 10.2491L9.6059 15.7683H24.2367C24.6583 15.7683 25 16.0959 25 16.5C25 16.9041 24.6583 17.2317 24.2367 17.2317H9.6059L15.363 22.7509C15.6611 23.0366 15.6611 23.4999 15.363 23.7857C15.065 24.0714 14.5817 24.0714 14.2836 23.7857L7.22355 17.0174C7.08041 16.8802 7 16.6941 7 16.5C7 16.3059 7.08041 16.1198 7.22355 15.9826L14.2836 9.21431C14.5817 8.92856 15.065 8.92856 15.363 9.21431Z" fill="black"/>
</svg>
