<svg width="34" height="34" viewBox="0 0 34 34" fill="none" xmlns="http://www.w3.org/2000/svg">
<path fill-rule="evenodd" clip-rule="evenodd" d="M24.363 9.21431C24.6611 9.50006 24.6611 9.96335 24.363 10.2491L18.6059 15.7683H33.2367C33.6583 15.7683 34 16.0959 34 16.5C34 16.9041 33.6583 17.2317 33.2367 17.2317H18.6059L24.363 22.7509C24.6611 23.0366 24.6611 23.4999 24.363 23.7857C24.065 24.0714 23.5817 24.0714 23.2836 23.7857L16.2236 17.0174C16.0804 16.8802 16 16.6941 16 16.5C16 16.3059 16.0804 16.1198 16.2236 15.9826L23.2836 9.21431C23.5817 8.92856 24.065 8.92856 24.363 9.21431Z" fill="black"/>
</svg>
