<svg xmlns="http://www.w3.org/2000/svg" width="47" height="47" fill="none"><circle cx="23.434" cy="23.434" r="23.434" fill="#FFB849"/><path stroke="#FEFFF5" stroke-linecap="round" stroke-linejoin="round" stroke-width="2" d="m19.303 13.689-3.528-1.178a2.579 2.579 0 0 0-3.395 2.448v15.195a2.579 2.579 0 0 0 1.764 2.448l5.159 1.719a2.58 2.58 0 0 0 1.63 0l6.108-2.035a2.58 2.58 0 0 1 1.63 0l3.528 1.176a2.58 2.58 0 0 0 3.394-2.448V15.82a2.58 2.58 0 0 0-1.763-2.448l-5.158-1.719a2.58 2.58 0 0 0-1.631 0l-6.11 2.035a2.58 2.58 0 0 1-1.63 0"/><path stroke="#FEFFF5" stroke-linejoin="round" stroke-width="2" d="M20.118 13.96v20.633m7.738-23.213v20.634"/></svg>
