<svg xmlns="http://www.w3.org/2000/svg" width="47" height="47" fill="none"><circle cx="23.434" cy="23.434" r="23.434" fill="#FFB849"/><path stroke="#FEFFF5" stroke-linecap="round" stroke-width="1.5" d="M26.045 14.678s.127 2.177 2.048 4.097c1.921 1.922 4.097 2.05 4.097 2.05l1.025-1.025a4.346 4.346 0 0 0-6.147-6.147l-1.024 1.025-2.609 2.608m8.755 3.538-5.813 5.816-3.428 3.425-.177.178c-.639.638-.958.957-1.31 1.232a7.292 7.292 0 0 1-1.338.827c-.402.192-.83.334-1.687.62l-3.626 1.209m0 0-.887.296a1.171 1.171 0 0 1-1.483-1.483l.296-.887m2.074 2.074-2.074-2.074m0 0 1.21-3.627c.285-.856.427-1.284.619-1.686.227-.477.503-.923.827-1.339.274-.351.594-.67 1.232-1.309l2.942-2.94"/></svg>
