<svg width="207" height="13" viewBox="0 0 207 13" fill="none" xmlns="http://www.w3.org/2000/svg">
<path d="M99.848 4.728H102.448V5.272H99.848V4.728ZM96.4 7.144H102.96V7.704H96.4V7.144ZM99.328 5.632H99.984V7.408H99.328V5.632ZM99.848 2.056H102.376V2.608H100.512V5.016H99.848V2.056ZM96.96 2.072H99.408V2.616H97.624V4.992H96.96V2.072ZM96.96 4.72H97.368C97.6027 4.72 97.832 4.71467 98.056 4.704C98.2853 4.69333 98.5173 4.67467 98.752 4.648C98.9867 4.616 99.2267 4.57333 99.472 4.52L99.536 5.072C99.2747 5.13067 99.024 5.176 98.784 5.208C98.544 5.23467 98.3093 5.25333 98.08 5.264C97.8507 5.26933 97.6133 5.272 97.368 5.272H96.96V4.72ZM104.639 3.56H109.559V4.096H104.639V3.56ZM103.751 5.064H110.311V5.608H103.751V5.064ZM104.639 1.648H105.295V3.832H104.639V1.648ZM104.591 7.904H109.599V8.448H104.591V7.904ZM104.591 6.336H105.255V8.048H104.591V6.336Z" fill="#ACACAC"/>
<line y1="4.5" x2="90" y2="4.5" stroke="#D3D3D3"/>
<line y1="4.5" x2="90" y2="4.5" stroke="#D3D3D3"/>
<line y1="4.5" x2="90" y2="4.5" stroke="#D3D3D3"/>
<line y1="4.5" x2="90" y2="4.5" stroke="#D3D3D3"/>
<line x1="117" y1="4.5" x2="207" y2="4.50001" stroke="#D3D3D3"/>
</svg>
