<svg width="236" height="77" viewBox="0 0 236 77" fill="none" xmlns="http://www.w3.org/2000/svg">
<path d="M37.1604 9.018C42.2294 9.018 43.8944 8.5 43.8944 7.02C43.8944 5.503 42.3034 5.022 37.1604 5.022C32.0174 5.022 30.4264 5.503 30.4264 7.02C30.4264 8.5 32.0914 9.018 37.1604 9.018ZM41.5634 29.035C42.8584 29.035 43.8944 28.11 43.8944 26.963C43.8944 26.001 43.3764 25.557 42.3034 25.557H31.2404C30.5374 25.557 30.2414 25.853 30.2414 26.556V27.666C30.2414 28.517 30.8334 29.035 31.8694 29.035H41.5634ZM36.8274 15.123C42.5994 15.123 47.8534 15.049 50.1474 14.827C50.9244 14.753 51.4054 15.16 51.4054 15.937V18.12C51.4054 18.786 51.0354 19.23 50.1844 19.304C47.8904 19.526 42.6364 19.6 36.8644 19.6C31.6844 19.6 26.8004 19.563 23.5814 19.304C22.7304 19.23 22.3604 18.823 22.3604 18.12V15.937C22.3604 15.16 22.8044 14.753 23.5814 14.827C26.7634 15.086 31.6474 15.123 36.8274 15.123ZM25.0614 7.02C25.0614 2.506 28.6874 0.581998 37.1604 0.581998C45.6334 0.581998 49.2594 2.506 49.2594 7.02C49.2594 11.534 45.6334 13.458 37.1604 13.458C28.6874 13.458 25.0614 11.534 25.0614 7.02ZM46.2994 29.22H48.6304C49.4074 29.22 49.7774 29.627 49.7774 30.367V32.328C49.7774 33.105 49.4074 33.475 48.6304 33.475H29.5014C26.5044 33.475 24.8764 32.069 24.8764 29.442V23.189C24.8764 21.82 25.5424 21.117 26.9114 21.117H44.5234C47.5944 21.117 49.2594 22.449 49.2594 24.891C49.2594 26.852 48.1494 28.406 46.2994 29.22ZM63.7504 12.644C62.7144 15.567 59.5694 17.898 55.8694 17.898C55.0554 17.898 54.6484 17.454 54.6484 16.751V13.976C54.6484 13.273 55.0554 12.903 55.8694 12.903C58.8664 12.903 61.0124 10.128 61.0124 6.761V2.321C61.0124 1.47 61.4564 0.989 62.2334 0.989H65.1934C65.9334 0.989 66.3774 1.47 66.3774 2.321V6.761C66.3774 10.128 68.5234 12.903 71.5204 12.903C72.2974 12.903 72.6674 13.273 72.6674 13.976V16.751C72.6674 17.491 72.2974 17.898 71.5204 17.898C67.8944 17.898 64.7494 15.53 63.7504 12.644ZM76.4044 1.359C76.4044 0.581998 76.8484 0.138 77.6254 0.138H80.5484C81.3254 0.138 81.7694 0.581998 81.7694 1.359V16.899C81.7694 17.676 81.3254 18.12 80.5484 18.12H77.6254C76.8484 18.12 76.4044 17.676 76.4044 16.899V1.359ZM74.2584 20.562C79.3274 20.562 81.6584 22.671 81.6584 27.111C81.6584 29.405 81.5474 31.44 81.4364 32.328C81.3254 33.105 80.9924 33.475 80.2154 33.475H77.2184C76.4414 33.475 75.9604 33.031 76.0714 32.254C76.2194 31.107 76.2934 29.479 76.2934 28.258C76.2934 26.371 75.4794 25.557 73.4444 25.557C67.5614 25.557 62.9364 25.927 58.7924 26.223C58.0524 26.26 57.6454 25.816 57.6454 25.076V22.375C57.6454 21.635 58.0524 21.302 58.7924 21.228C62.4924 20.821 66.9694 20.562 74.2584 20.562ZM100.995 28.073C95.556 28.073 94.594 28.295 94.594 29.072C94.594 29.886 95.741 29.96 103.03 29.96C106.064 29.96 110.689 29.738 113.131 29.294C113.723 29.183 114.13 29.479 114.167 30.071L114.352 32.217C114.389 32.735 114.056 33.105 113.501 33.179C110.837 33.549 106.101 33.845 103.067 33.845C92.374 33.845 89.229 32.92 89.229 28.998C89.229 25.113 92.855 24.188 100.921 24.188C102.956 24.188 105.287 24.151 106.915 24.151C107.877 24.151 108.284 23.929 108.284 23.411C108.284 22.856 107.914 22.634 106.989 22.634C103.474 22.634 95.297 22.893 90.931 23.263C90.339 23.3 89.969 22.967 89.969 22.375V20.229C89.969 19.674 90.265 19.378 90.931 19.341C93.225 19.193 95.852 19.045 98.553 18.934V18.453C98.553 17.972 98.775 17.565 99.219 17.343C94.853 17.38 90.857 17.306 87.86 17.084C87.009 17.01 86.713 16.677 86.713 15.974V14.013C86.713 13.236 87.083 12.903 87.86 12.977C91.042 13.236 96 13.273 101.18 13.273C106.952 13.273 112.28 13.199 114.574 12.977C115.351 12.903 115.758 13.236 115.758 14.013V15.974C115.758 16.64 115.462 17.01 114.611 17.084C112.798 17.269 108.469 17.38 105.065 17.38C104.251 17.38 103.918 17.713 103.918 18.342V18.823C106.027 18.823 108.062 18.823 109.912 18.897C112.28 18.971 113.612 19.822 113.612 21.598C113.612 23.041 112.798 24.077 111.466 24.521H112.354C112.909 24.521 113.316 24.854 113.316 25.372V27.296C113.316 27.814 112.946 28.184 112.354 28.184C109.653 28.184 107.766 28.073 100.995 28.073ZM110.319 8.093H112.576C113.242 8.093 113.575 8.426 113.575 9.092V10.979C113.575 11.608 113.242 11.978 112.576 11.978H93.928C91.19 11.978 89.784 10.757 89.784 8.389V2.839C89.784 1.581 90.413 0.951998 91.634 0.951998H109.246C111.836 0.951998 113.131 2.025 113.131 4.245C113.131 5.91 112.058 7.353 110.319 8.093ZM105.694 7.908C106.804 7.908 107.692 7.168 107.692 6.206C107.692 5.429 107.285 5.022 106.397 5.022H96.037C95.408 5.022 95.149 5.281 95.149 5.91V6.724C95.149 7.501 95.63 7.908 96.555 7.908H105.694ZM136.835 11.349V3.283C136.835 2.506 137.279 2.062 138.056 2.062H140.979C141.756 2.062 142.2 2.506 142.2 3.283V10.646C142.2 13.865 143.384 15.493 145.752 15.493C146.566 15.493 146.973 15.863 146.973 16.566V19.341C146.973 20.081 146.529 20.488 145.752 20.488C142.681 20.488 140.646 19.156 139.61 16.307C138.833 18.823 136.798 20.488 134.282 20.488C131.766 20.488 129.731 18.823 128.954 16.307C127.918 19.156 125.883 20.488 122.812 20.488C122.035 20.488 121.591 20.081 121.591 19.341V16.566C121.591 15.863 121.998 15.493 122.812 15.493C125.18 15.493 126.364 13.902 126.364 10.646V3.283C126.364 2.506 126.808 2.062 127.585 2.062H130.508C131.285 2.062 131.729 2.506 131.729 3.283V11.349C131.729 13.976 132.654 15.493 134.282 15.493C135.91 15.493 136.835 13.976 136.835 11.349ZM134.134 25.742C139.906 25.742 145.16 25.483 147.454 25.113C148.231 24.965 148.675 25.446 148.675 26.223V28.961C148.675 29.627 148.305 29.997 147.454 30.145C145.16 30.552 139.906 30.774 134.134 30.774C128.954 30.774 124.07 30.589 120.851 30.145C120 30.034 119.63 29.664 119.63 28.961V26.223C119.63 25.446 120.074 25.002 120.851 25.113C124.07 25.52 128.954 25.742 134.134 25.742ZM159.17 2.469C163.98 2.469 166.533 4.319 166.533 8.056C166.533 10.202 165.867 11.941 164.535 13.088H164.979C165.719 13.088 166.052 13.421 166.052 14.161V16.64C166.052 17.38 165.719 17.713 164.979 17.713C163.018 17.713 162.056 17.676 161.057 17.676C157.801 17.676 156.654 18.453 156.654 20.673C156.654 22.597 158.023 23.633 160.539 23.633C161.871 23.633 163.684 23.263 165.497 22.56C165.645 22.486 165.793 22.449 165.941 22.449C166.348 22.449 166.607 22.782 166.792 23.411L167.532 26.001C167.754 26.741 167.458 27.111 166.607 27.444C164.535 28.258 162.204 28.628 160.169 28.628C154.767 28.628 151.659 25.816 151.659 20.673C151.659 15.456 154.138 12.681 158.8 12.681C160.576 12.681 161.538 11.867 161.538 10.128C161.538 8.315 160.465 7.464 158.578 7.464C157.394 7.464 156.173 7.686 153.916 8.019C153.176 8.13 152.769 7.797 152.769 7.057V4.097C152.769 3.394 153.065 3.098 153.842 2.95C155.507 2.617 157.431 2.469 159.17 2.469ZM170.233 17.195C169.974 17.528 169.53 17.75 169.012 17.75H168.013C167.273 17.75 166.94 17.417 166.94 16.677V13.643C166.94 12.903 167.273 12.57 168.013 12.57H169.086C169.826 12.57 170.233 12.2 170.233 11.497V1.655C170.233 0.877999 170.603 0.507999 171.38 0.507999H174.081C174.858 0.507999 175.228 0.877999 175.228 1.655V32.143C175.228 32.92 174.858 33.29 174.081 33.29H171.38C170.603 33.29 170.233 32.92 170.233 32.143V17.195ZM177.263 1.285C177.263 0.507999 177.633 0.138 178.41 0.138H181.111C181.888 0.138 182.258 0.507999 182.258 1.285V32.143C182.258 32.92 181.888 33.29 181.111 33.29H178.41C177.633 33.29 177.263 32.92 177.263 32.143V1.285ZM197.338 27.037C198.263 20.969 198.67 16.27 198.67 11.238C198.67 8.463 197.93 7.464 195.821 7.464C192.565 7.464 190.641 7.871 188.199 8.13C187.496 8.204 187.052 7.76 187.052 6.983V4.282C187.052 3.579 187.385 3.246 188.199 3.135C191.936 2.617 194.008 2.469 196.635 2.469C201.889 2.469 204.072 4.837 204.072 10.609C204.072 16.529 203.702 21.635 202.703 27.185C202.555 27.999 202.222 28.258 201.445 28.258H198.485C197.671 28.258 197.227 27.777 197.338 27.037ZM208.253 1.359C208.253 0.581998 208.697 0.138 209.474 0.138H212.397C213.174 0.138 213.618 0.581998 213.618 1.359V32.069C213.618 32.846 213.174 33.29 212.397 33.29H209.474C208.697 33.29 208.253 32.846 208.253 32.069V1.359ZM26.1736 44.285C26.1736 43.508 26.5436 43.138 27.3206 43.138H30.0216C30.7986 43.138 31.1686 43.508 31.1686 44.285V75.143C31.1686 75.92 30.7986 76.29 30.0216 76.29H27.3206C26.5436 76.29 26.1736 75.92 26.1736 75.143V60.898H24.6566C23.8426 60.898 23.2136 61.49 23.2136 62.304V75.143C23.2136 75.92 22.8436 76.29 22.0666 76.29H19.3656C18.5886 76.29 18.2186 75.92 18.2186 75.143V44.655C18.2186 43.878 18.5886 43.508 19.3656 43.508H22.0666C22.8436 43.508 23.2136 43.878 23.2136 44.655V56.421C23.5466 55.977 24.1386 55.718 24.7676 55.718H26.1736V44.285ZM15.4436 67.373C15.3696 69.963 14.0746 71.258 11.5956 71.258H5.67558C3.01158 71.258 1.30958 69.778 1.23558 67.373L0.680582 46.579C0.643582 45.839 1.05058 45.469 1.82758 45.469H4.52858C5.41658 45.469 5.71258 45.728 5.71258 46.468L5.86058 53.239H10.8186L10.9666 46.468C10.9666 45.728 11.2996 45.469 12.1506 45.469H14.8516C15.6656 45.469 16.0356 45.839 15.9986 46.579L15.4436 67.373ZM6.00858 58.234L6.15658 65.153C6.15658 65.819 6.60058 66.263 7.34058 66.263H9.33858C10.0786 66.263 10.5226 65.819 10.5226 65.153L10.6706 58.234H6.00858ZM61.6777 71.184C58.9767 71.184 57.0897 71.073 50.3187 71.073C44.8797 71.073 43.9177 71.295 43.9177 72.072C43.9177 72.886 45.0647 72.96 52.3537 72.96C55.3877 72.96 60.0127 72.738 62.4547 72.294C63.0467 72.183 63.4537 72.479 63.4907 73.071L63.6757 75.217C63.7127 75.735 63.3797 76.105 62.8247 76.179C60.1607 76.549 55.4247 76.845 52.3907 76.845C41.6977 76.845 38.5527 75.92 38.5527 71.998C38.5527 68.113 42.1787 67.188 50.2447 67.188C52.2797 67.188 54.6107 67.151 56.2387 67.151C57.2007 67.151 57.6077 66.929 57.6077 66.411C57.6077 65.856 57.2377 65.634 56.3127 65.634C52.7977 65.634 44.6207 65.893 40.2547 66.263C39.6627 66.3 39.2927 65.967 39.2927 65.375V63.229C39.2927 62.674 39.5887 62.378 40.2547 62.341C42.5487 62.193 45.1757 62.045 47.8767 61.934V61.453C47.8767 60.972 48.0987 60.565 48.5427 60.343C44.1767 60.38 40.1807 60.306 37.1837 60.084C36.3327 60.01 36.0367 59.677 36.0367 58.974V57.013C36.0367 56.236 36.4067 55.903 37.1837 55.977C40.3657 56.236 45.3237 56.273 50.5037 56.273C56.2757 56.273 61.6037 56.199 63.8977 55.977C64.6747 55.903 65.0817 56.236 65.0817 57.013V58.974C65.0817 59.64 64.7857 60.01 63.9347 60.084C62.1217 60.269 57.7927 60.38 54.3887 60.38C53.5747 60.38 53.2417 60.713 53.2417 61.342V61.823C55.3507 61.823 57.3857 61.823 59.2357 61.897C61.6037 61.971 62.9357 62.822 62.9357 64.598C62.9357 66.041 62.1217 67.077 60.7897 67.521H61.6777C62.2327 67.521 62.6397 67.854 62.6397 68.372V70.296C62.6397 70.814 62.2697 71.184 61.6777 71.184ZM53.4267 42.435V43.878C53.4267 44.359 53.7597 44.692 54.4257 44.692H60.9747C61.7517 44.692 62.1217 45.062 62.1217 45.839V47.726C62.1217 48.503 61.7517 48.873 60.9747 48.873H54.3147C55.4617 50.02 57.8297 50.76 61.4557 50.76C62.2697 50.76 62.6767 51.13 62.6767 51.833V53.868C62.6767 54.571 62.2697 54.978 61.4557 55.015C56.3497 55.237 52.2427 53.387 50.7257 50.612C49.1717 53.387 45.0647 55.237 39.9587 55.015C39.1447 54.978 38.7377 54.571 38.7377 53.868V51.833C38.7377 51.13 39.1447 50.76 39.9587 50.76C43.5847 50.76 45.9897 50.02 47.1737 48.873H40.4397C39.6627 48.873 39.2927 48.503 39.2927 47.726V45.839C39.2927 45.062 39.6627 44.692 40.4397 44.692H48.6167C48.2467 44.47 48.0617 44.137 48.0617 43.619V42.435C48.0617 41.658 48.4317 41.288 49.2087 41.288H52.2797C53.0567 41.288 53.4267 41.658 53.4267 42.435ZM94.7057 59.899V60.639C94.7057 61.416 94.2617 61.86 93.4847 61.86H90.5617C89.7847 61.86 89.3407 61.416 89.3407 60.639V44.359C89.3407 43.582 89.7847 43.138 90.5617 43.138H93.4847C94.2617 43.138 94.7057 43.582 94.7057 44.359V46.061C95.1127 45.432 95.8527 45.062 96.8147 45.062H98.1837C98.9237 45.062 99.3307 45.469 99.3307 46.209V48.725C99.3307 49.465 98.9237 49.872 98.1837 49.872H96.5927C95.3347 49.872 94.7057 50.649 94.7057 51.833V54.127C95.1127 53.498 95.8527 53.128 96.8147 53.128H98.1837C98.9237 53.128 99.3307 53.535 99.3307 54.275V56.791C99.3307 57.531 98.9237 57.938 98.1837 57.938H96.5927C95.3347 57.938 94.7057 58.715 94.7057 59.899ZM83.2357 72.257C88.4897 72.257 90.1547 71.739 90.1547 70.037C90.1547 68.335 88.4897 67.817 83.2357 67.817C77.9817 67.817 76.3167 68.335 76.3167 70.037C76.3167 71.739 77.9817 72.257 83.2357 72.257ZM79.6837 54.423C74.8367 54.423 74.1707 54.571 74.1707 55.644C74.1707 56.717 74.9107 56.939 78.6107 56.939C80.7197 56.939 83.1617 56.532 85.0117 55.755C85.2337 55.681 85.4187 55.607 85.5667 55.607C85.9737 55.607 86.2327 55.866 86.3807 56.458L86.9727 58.456C87.1947 59.196 86.9727 59.566 86.1217 59.862C83.6057 60.75 80.6087 61.268 77.7597 61.268C71.3217 61.268 68.8057 59.788 68.8057 55.755C68.8057 51.648 71.3587 50.094 77.6117 50.094C79.9797 50.094 80.5347 49.909 80.5347 49.243C80.5347 48.503 79.9427 48.318 77.3897 48.318C75.4287 48.318 73.5787 48.466 71.0257 48.836C70.2857 48.947 69.9157 48.614 69.9157 47.874V45.617C69.9157 44.914 70.1747 44.581 70.9517 44.47C73.6157 44.1 75.6507 43.989 79.0917 43.989C83.8647 43.989 85.8997 44.951 85.8997 47.467C85.8997 48.725 85.2337 49.798 83.9387 50.501H84.6417C85.2707 50.501 85.6037 50.834 85.6037 51.5V53.461C85.6037 54.127 85.2707 54.46 84.6417 54.46C82.6807 54.46 81.0527 54.423 79.6837 54.423ZM70.9517 70.037C70.9517 65.301 74.9847 63.192 83.2357 63.192C91.4867 63.192 95.5197 65.301 95.5197 70.037C95.5197 74.773 91.4867 76.882 83.2357 76.882C74.9847 76.882 70.9517 74.773 70.9517 70.037ZM100.576 69.593C100.576 68.816 101.02 68.372 101.797 68.483C104.239 68.853 106.718 69.038 110.788 69.038C114.34 69.038 118.484 68.816 120.038 68.483C120.815 68.335 121.296 68.816 121.296 69.593V72.331C121.296 72.997 120.926 73.33 120.075 73.515C118.521 73.848 114.377 74.07 110.825 74.07C106.755 74.07 104.276 73.885 101.797 73.515C100.946 73.404 100.576 73.034 100.576 72.331V69.593ZM128.363 75.069C128.363 75.846 127.919 76.29 127.142 76.29H124.219C123.442 76.29 122.998 75.846 122.998 75.069V44.359C122.998 43.582 123.442 43.138 124.219 43.138H127.142C127.919 43.138 128.363 43.582 128.363 44.359V75.069ZM102.167 54.497C102.167 48.281 105.423 44.359 110.862 44.359C116.301 44.359 119.557 48.281 119.557 54.497C119.557 60.713 116.264 64.672 110.862 64.672C105.46 64.672 102.167 60.713 102.167 54.497ZM110.862 59.677C112.971 59.677 114.266 57.568 114.266 54.497C114.266 51.426 112.971 49.354 110.862 49.354C108.753 49.354 107.458 51.426 107.458 54.497C107.458 57.568 108.753 59.677 110.862 59.677ZM162.546 71.665C163.952 71.665 165.062 70.666 165.062 69.334C165.062 68.15 164.47 67.632 163.101 67.632H152.482C151.742 67.632 151.409 67.965 151.409 68.705V70.296C151.409 71.184 152.001 71.665 153.074 71.665H162.546ZM167.504 71.85H169.798C170.575 71.85 170.945 72.257 170.945 72.997V75.328C170.945 76.105 170.575 76.475 169.798 76.475H150.854C147.746 76.475 146.044 74.995 146.044 72.331V64.968C146.044 63.562 146.747 62.822 148.153 62.822H165.321C168.466 62.822 170.427 64.524 170.427 67.262C170.427 69.408 169.391 71.036 167.504 71.85ZM152.149 54.904C151.113 57.827 147.968 60.158 144.268 60.158C143.454 60.158 143.047 59.714 143.047 59.011V56.236C143.047 55.533 143.454 55.163 144.268 55.163C147.265 55.163 149.411 52.388 149.411 49.021V45.321C149.411 44.47 149.855 43.989 150.632 43.989H153.592C154.332 43.989 154.776 44.47 154.776 45.321V49.021C154.776 52.388 156.922 55.163 159.919 55.163C160.696 55.163 161.066 55.533 161.066 56.236V59.011C161.066 59.751 160.696 60.158 159.919 60.158C156.293 60.158 153.148 57.79 152.149 54.904ZM164.803 44.359C164.803 43.582 165.247 43.138 166.024 43.138H168.947C169.724 43.138 170.168 43.582 170.168 44.359V59.159C170.168 59.936 169.724 60.38 168.947 60.38H166.024C165.247 60.38 164.803 59.936 164.803 59.159V44.359ZM190.689 59.936C190.467 60.602 190.097 60.898 189.246 60.898H186.286C185.435 60.898 185.102 60.454 185.324 59.751C186.138 57.198 186.656 53.757 186.656 51.648C186.656 49.613 186.064 48.984 184.177 48.984C181.476 48.984 178.627 49.317 176.185 49.65C175.482 49.761 175.038 49.28 175.038 48.503V45.802C175.038 45.099 175.371 44.766 176.185 44.655C179.478 44.174 182.475 43.989 184.991 43.989C189.949 43.989 192.058 46.098 192.058 51.019C192.058 54.201 191.244 58.271 190.689 59.936ZM200.864 59.899C200.864 60.676 200.42 61.12 199.643 61.12H196.72C195.943 61.12 195.499 60.676 195.499 59.899V44.359C195.499 43.582 195.943 43.138 196.72 43.138H199.643C200.42 43.138 200.864 43.582 200.864 44.359V50.094C201.271 49.465 202.122 49.058 203.158 49.058H204.342C205.082 49.058 205.489 49.465 205.489 50.205V52.906C205.489 53.646 205.082 54.053 204.342 54.053H203.01C201.752 54.053 200.864 54.904 200.864 56.088V59.899ZM193.353 63.562C198.422 63.562 200.753 65.671 200.753 70.111C200.753 72.405 200.642 74.44 200.531 75.328C200.42 76.105 200.087 76.475 199.31 76.475H196.313C195.536 76.475 195.055 76.031 195.166 75.254C195.314 74.107 195.388 72.479 195.388 71.258C195.388 69.371 194.574 68.557 192.539 68.557C187.026 68.557 182.771 68.927 178.627 69.223C177.887 69.26 177.48 68.816 177.48 68.076V65.375C177.48 64.635 177.887 64.302 178.627 64.228C182.327 63.821 186.434 63.562 193.353 63.562ZM215.392 69.667C215.392 71.443 217.205 72.072 222.718 72.072C228.194 72.072 229.97 71.443 229.97 69.667C229.97 67.891 228.194 67.262 222.718 67.262C217.205 67.262 215.392 67.891 215.392 69.667ZM222.718 62.452C231.191 62.452 235.335 64.82 235.335 69.667C235.335 74.514 231.191 76.882 222.718 76.882C214.208 76.882 210.064 74.514 210.064 69.667C210.064 64.82 214.208 62.452 222.718 62.452ZM216.502 54.904C215.466 57.827 212.321 60.158 208.621 60.158C207.807 60.158 207.4 59.714 207.4 59.011V56.236C207.4 55.533 207.807 55.163 208.621 55.163C211.618 55.163 213.764 52.388 213.764 49.021V45.321C213.764 44.47 214.208 43.989 214.985 43.989H217.945C218.685 43.989 219.129 44.47 219.129 45.321V49.021C219.129 52.388 221.275 55.163 224.272 55.163C225.049 55.163 225.419 55.533 225.419 56.236V59.011C225.419 59.751 225.049 60.158 224.272 60.158C220.646 60.158 217.501 57.79 216.502 54.904ZM229.156 51.759C228.786 52.388 228.046 52.758 227.047 52.758H224.161C223.421 52.758 223.014 52.351 223.014 51.611V48.91C223.014 48.17 223.421 47.763 224.161 47.763H227.195C228.453 47.763 229.156 47.097 229.156 45.913V44.359C229.156 43.582 229.6 43.138 230.377 43.138H233.3C234.077 43.138 234.521 43.582 234.521 44.359V59.899C234.521 60.676 234.077 61.12 233.3 61.12H230.377C229.6 61.12 229.156 60.676 229.156 59.899V51.759Z" fill="black"/>
</svg>
