<svg width="172" height="77" viewBox="0 0 172 77" fill="none" xmlns="http://www.w3.org/2000/svg">
<path d="M35.3315 24.669C34.2585 24.706 33.7405 25.224 33.7405 26.223V31.514C33.7405 32.291 33.3335 32.735 32.5565 32.735H29.5965C28.8195 32.735 28.3755 32.291 28.3755 31.514V26.704C28.3755 25.742 28.8565 25.002 29.5965 24.743C27.6725 24.669 25.7115 24.484 23.9355 24.225C23.0845 24.114 22.7145 23.744 22.7145 23.041V20.303C22.7145 19.526 23.1585 19.082 23.9355 19.193C26.0075 19.489 28.8565 19.748 31.4465 19.748C34.2585 19.748 37.4775 19.526 39.0315 19.193C39.8085 19.045 40.2895 19.526 40.2895 20.303V23.041C40.2895 23.707 39.8825 24.04 39.0685 24.225C38.2545 24.41 36.4045 24.632 35.3315 24.669ZM41.6955 1.655C41.6955 0.877999 42.0655 0.507999 42.8425 0.507999H45.5435C46.3205 0.507999 46.6905 0.877999 46.6905 1.655V32.143C46.6905 32.92 46.3205 33.29 45.5435 33.29H42.8425C42.0655 33.29 41.6955 32.92 41.6955 32.143V30.441C41.2885 31.07 40.5115 31.44 39.5125 31.44H37.0705C36.3305 31.44 35.9235 31.033 35.9235 30.293V27.407C35.9235 26.667 36.3305 26.26 37.0705 26.26H39.7345C40.9925 26.26 41.6955 25.594 41.6955 24.41V1.655ZM48.3555 1.285C48.3555 0.507999 48.7255 0.138 49.5025 0.138H52.2035C52.9805 0.138 53.3505 0.507999 53.3505 1.285V32.143C53.3505 32.92 52.9805 33.29 52.2035 33.29H49.5025C48.7255 33.29 48.3555 32.92 48.3555 32.143V1.285ZM33.9995 6.687C33.9995 9.425 35.1835 11.83 37.6625 11.83C38.4395 11.83 38.8095 12.2 38.8095 12.903V15.678C38.8095 16.418 38.4395 16.825 37.6625 16.825C34.5175 16.825 32.3715 14.827 31.5205 12.163C30.5955 14.827 28.2275 16.825 24.9715 16.825C24.1575 16.825 23.7505 16.381 23.7505 15.678V12.903C23.7505 12.2 24.1575 11.83 24.9715 11.83C27.5615 11.83 28.9675 9.314 28.9675 6.687V2.136C28.9675 1.359 29.3375 0.989 30.1145 0.989H32.8525C33.6295 0.989 33.9995 1.359 33.9995 2.136V6.687ZM66.2649 7.094C63.9339 7.094 63.0829 9.425 63.0829 15.53C63.0829 21.635 63.9339 24.003 66.2649 24.003C68.6329 24.003 69.4839 21.672 69.4839 15.53C69.4839 9.425 68.6329 7.094 66.2649 7.094ZM66.2649 2.099C72.2219 2.099 74.7749 6.169 74.7749 15.53C74.7749 24.891 72.1849 28.998 66.2649 28.998C60.3449 28.998 57.7919 24.891 57.7919 15.53C57.7919 6.169 60.3449 2.099 66.2649 2.099ZM79.3629 1.359C79.3629 0.581998 79.8069 0.138 80.5839 0.138H83.5069C84.2839 0.138 84.7279 0.581998 84.7279 1.359V32.069C84.7279 32.846 84.2839 33.29 83.5069 33.29H80.5839C79.8069 33.29 79.3629 32.846 79.3629 32.069V16.714C78.9559 17.38 78.1419 17.75 77.1429 17.75H76.5879C75.8479 17.75 75.4409 17.343 75.4409 16.603V13.717C75.4409 12.977 75.8479 12.57 76.5879 12.57H77.2909C78.5489 12.57 79.3629 11.793 79.3629 10.609V1.359ZM105.359 11.904C103.398 11.904 101.77 11.867 100.401 11.867C95.5544 11.867 94.8884 12.015 94.8884 13.162C94.8884 14.309 95.6284 14.531 99.3284 14.531C101.437 14.531 103.879 14.124 105.729 13.347C105.951 13.273 106.136 13.199 106.284 13.199C106.691 13.199 106.95 13.458 107.098 14.05L107.69 16.196C107.875 16.936 107.69 17.306 106.839 17.602C104.323 18.49 101.326 19.008 98.4774 19.008C92.0394 19.008 89.5234 17.38 89.5234 13.273C89.5234 9.092 92.0764 7.39 98.3294 7.39C100.697 7.39 101.252 7.205 101.252 6.465C101.252 5.651 100.66 5.466 98.1074 5.466C96.1464 5.466 94.2964 5.614 91.7434 5.984C91.0034 6.095 90.6334 5.762 90.6334 5.022V2.617C90.6334 1.914 90.8924 1.581 91.6694 1.47C94.3334 1.1 96.3684 0.989 99.8095 0.989C104.582 0.989 106.617 2.099 106.617 4.689C106.617 6.021 105.951 7.094 104.656 7.797H105.359C105.988 7.797 106.321 8.13 106.321 8.796V10.905C106.321 11.571 105.988 11.904 105.359 11.904ZM110.798 1.359C110.798 0.581998 111.242 0.138 112.019 0.138H114.942C115.719 0.138 116.163 0.581998 116.163 1.359V19.489C116.163 20.266 115.719 20.71 114.942 20.71H112.019C111.242 20.71 110.798 20.266 110.798 19.489V1.359ZM104.212 28.147C102.547 31.218 98.1444 33.512 93.5194 33.512C92.6684 33.512 91.6694 33.512 91.6694 32.365V29.59C91.6694 28.887 92.0764 28.517 92.8904 28.517C97.5894 28.517 101.548 25.927 101.548 22.967V22.523C101.548 21.746 101.992 21.302 102.769 21.302H105.692C106.469 21.302 106.913 21.746 106.913 22.523V22.967C106.913 25.927 110.835 28.517 115.497 28.517C116.311 28.517 116.718 28.887 116.718 29.59V32.365C116.718 33.512 115.719 33.512 114.868 33.512C110.243 33.512 105.84 31.218 104.212 28.147ZM119.812 26.593C119.812 25.816 120.256 25.372 121.033 25.483C123.475 25.853 125.954 26.038 130.024 26.038C133.576 26.038 137.72 25.816 139.274 25.483C140.051 25.335 140.532 25.816 140.532 26.593V29.331C140.532 29.997 140.162 30.33 139.311 30.515C137.757 30.848 133.613 31.07 130.061 31.07C125.991 31.07 123.512 30.885 121.033 30.515C120.182 30.404 119.812 30.034 119.812 29.331V26.593ZM147.599 32.069C147.599 32.846 147.155 33.29 146.378 33.29H143.455C142.678 33.29 142.234 32.846 142.234 32.069V1.359C142.234 0.581998 142.678 0.138 143.455 0.138H146.378C147.155 0.138 147.599 0.581998 147.599 1.359V32.069ZM121.403 11.497C121.403 5.281 124.659 1.359 130.098 1.359C135.537 1.359 138.793 5.281 138.793 11.497C138.793 17.713 135.5 21.672 130.098 21.672C124.696 21.672 121.403 17.713 121.403 11.497ZM130.098 16.677C132.207 16.677 133.502 14.568 133.502 11.497C133.502 8.426 132.207 6.354 130.098 6.354C127.989 6.354 126.694 8.426 126.694 11.497C126.694 14.568 127.989 16.677 130.098 16.677ZM9.54679 64.894C8.54779 68.187 5.40279 70.74 1.66579 71.258C0.888793 71.369 0.444793 70.962 0.444793 70.222V67.447C0.444793 66.744 0.851793 66.374 1.66579 66.263C4.55179 65.856 6.80879 62.415 6.80879 58.604V46.801C6.80879 45.95 7.25279 45.469 8.02979 45.469H10.9898C11.7298 45.469 12.1738 45.95 12.1738 46.801V58.604C12.1738 62.415 14.4308 65.856 17.3168 66.263C18.0938 66.374 18.4638 66.744 18.4638 67.447V70.222C18.4638 70.962 18.0938 71.369 17.3168 71.258C13.6168 70.74 10.5088 68.15 9.54679 64.894ZM22.2008 44.359C22.2008 43.582 22.6448 43.138 23.4218 43.138H26.3448C27.1218 43.138 27.5658 43.582 27.5658 44.359V75.069C27.5658 75.846 27.1218 76.29 26.3448 76.29H23.4218C22.6448 76.29 22.2008 75.846 22.2008 75.069V44.359ZM48.4933 43.989C49.2703 43.989 49.7143 44.433 49.7143 45.21V47.763C49.7143 48.54 49.2703 48.984 48.4933 48.984H43.6093V50.316C43.6093 53.868 45.7553 55.903 48.7523 55.903C49.5293 55.903 49.8993 56.273 49.8993 56.976V59.751C49.8993 60.491 49.5293 60.898 48.7523 60.898C45.1263 60.898 41.9813 59.233 40.9823 56.125C39.9463 59.233 36.8013 60.898 33.1013 60.898C32.2873 60.898 31.8803 60.454 31.8803 59.751V56.976C31.8803 56.273 32.2873 55.903 33.1013 55.903C36.0983 55.903 38.2443 53.868 38.2443 50.316V48.984H33.2863C32.5093 48.984 32.0653 48.54 32.0653 47.763V45.21C32.0653 44.433 32.5093 43.989 33.2863 43.989H48.4933ZM36.0243 64.228C39.7243 63.821 43.8313 63.562 50.7503 63.562C55.8193 63.562 58.1503 65.671 58.1503 70.111C58.1503 72.405 58.0393 74.44 57.9283 75.328C57.8173 76.105 57.4843 76.475 56.7073 76.475H53.7103C52.9333 76.475 52.4523 76.031 52.5633 75.254C52.7113 74.107 52.7853 72.479 52.7853 71.258C52.7853 69.371 51.9713 68.557 49.9363 68.557C44.4233 68.557 40.1683 68.927 36.0243 69.223C35.2843 69.26 34.8773 68.816 34.8773 68.076V65.375C34.8773 64.635 35.2843 64.302 36.0243 64.228ZM58.2613 59.899C58.2613 60.676 57.8173 61.12 57.0403 61.12H54.1173C53.3403 61.12 52.8963 60.676 52.8963 59.899V44.359C52.8963 43.582 53.3403 43.138 54.1173 43.138H57.0403C57.8173 43.138 58.2613 43.582 58.2613 44.359V50.094C58.6683 49.465 59.5193 49.058 60.5553 49.058H61.7393C62.4793 49.058 62.8863 49.465 62.8863 50.205V52.906C62.8863 53.646 62.4793 54.053 61.7393 54.053H60.4073C59.1493 54.053 58.2613 54.904 58.2613 56.088V59.899ZM65.3523 73.515C64.5013 73.404 64.1313 73.034 64.1313 72.331V69.593C64.1313 68.816 64.5753 68.372 65.3523 68.483C67.2393 68.742 68.4603 68.964 70.5693 69.038C69.9403 68.742 69.6073 68.002 69.6073 67.114V59.64C69.6073 58.863 70.0513 58.419 70.8283 58.419H73.7883C74.5653 58.419 74.9723 58.863 74.9723 59.64V67.41C74.9723 68.409 75.4903 68.964 76.5633 68.964C78.3393 68.964 81.0403 68.816 82.8533 68.483C83.6303 68.335 84.1113 68.816 84.1113 69.593V72.331C84.1113 72.997 83.7413 73.33 82.8903 73.515C81.3363 73.848 77.5623 74.07 74.0103 74.07C69.9403 74.07 67.8313 73.885 65.3523 73.515ZM82.1133 62.637C82.0023 63.377 81.5213 63.636 80.7813 63.525L77.8953 63.081C77.0813 62.97 76.8223 62.563 76.9703 61.823C77.4513 59.381 77.7473 56.199 77.7473 53.461C77.7473 51.167 76.3783 49.761 74.1583 49.761C72.3453 49.761 69.8293 50.057 67.2763 50.39C66.5733 50.464 66.0923 50.02 66.0923 49.354V46.431C66.0923 45.802 66.5733 45.432 67.2763 45.321C69.2003 45.025 72.4563 44.692 75.7493 44.692C80.5223 44.692 83.0753 47.282 83.0753 52.092C83.0753 55.274 82.6683 58.974 82.1133 62.637ZM91.1783 75.069C91.1783 75.846 90.7343 76.29 89.9573 76.29H87.0343C86.2573 76.29 85.8133 75.846 85.8133 75.069V44.359C85.8133 43.582 86.2573 43.138 87.0343 43.138H89.9573C90.7343 43.138 91.1783 43.582 91.1783 44.359V56.754C91.5853 56.125 92.4363 55.718 93.4723 55.718H94.6563C95.3963 55.718 95.8033 56.125 95.8033 56.865V59.751C95.8033 60.491 95.3963 60.898 94.6563 60.898H93.3243C92.0663 60.898 91.1783 61.749 91.1783 62.933V75.069ZM119.776 54.608C115.04 54.608 113.93 54.904 113.93 56.31C113.93 57.716 115.151 58.16 118.925 58.16C120.516 58.16 122.699 57.975 124.771 57.383C124.993 57.309 125.178 57.309 125.326 57.309C125.77 57.309 126.029 57.531 126.177 58.086L126.695 60.195C126.88 60.972 126.621 61.416 125.844 61.675C123.772 62.341 121.071 62.748 118.407 62.748C111.303 62.748 108.565 60.898 108.565 56.421C108.565 51.685 111.192 50.02 119.184 50.02C120.923 50.02 122.662 50.131 124.031 50.353C124.771 50.464 125.067 50.834 125.067 51.648V53.831C125.067 54.608 124.623 54.978 123.846 54.867C122.44 54.682 120.96 54.608 119.776 54.608ZM134.465 65.079C134.465 65.856 134.021 66.3 133.244 66.3H130.321C129.544 66.3 129.1 65.856 129.1 65.079V44.359C129.1 43.582 129.544 43.138 130.321 43.138H133.244C134.021 43.138 134.465 43.582 134.465 44.359V52.684C134.872 52.055 135.723 51.648 136.759 51.648H137.943C138.683 51.648 139.09 52.055 139.09 52.795V55.496C139.09 56.236 138.683 56.643 137.943 56.643H136.611C135.353 56.643 134.465 57.494 134.465 58.678V65.079ZM124.512 43.989C125.289 43.989 125.733 44.433 125.733 45.21V47.245C125.733 48.022 125.289 48.466 124.512 48.466H110.193C109.416 48.466 108.972 48.022 108.972 47.245V45.21C108.972 44.433 109.416 43.989 110.193 43.989H124.512ZM120.331 76.845C114.67 76.845 111.451 74.366 111.451 69.889C111.451 68.039 111.562 67.373 111.673 66.67C111.784 65.893 112.117 65.449 112.894 65.449H115.817C116.594 65.449 117.149 65.893 117.038 66.67C116.89 67.632 116.816 68.076 116.816 69.075C116.816 70.999 118.185 71.85 120.997 71.85C125.622 71.85 130.21 71.554 134.132 71.184C134.872 71.11 135.242 71.591 135.279 72.331L135.464 75.032C135.501 75.772 135.057 76.105 134.317 76.179C130.617 76.586 126.473 76.845 120.331 76.845ZM145.293 69.667C145.293 64.82 149.77 62.452 158.502 62.452C167.234 62.452 171.711 64.82 171.711 69.667C171.711 74.514 167.234 76.882 158.502 76.882C149.77 76.882 145.293 74.514 145.293 69.667ZM165.976 44.285C165.976 43.508 166.346 43.138 167.123 43.138H169.824C170.601 43.138 170.971 43.508 170.971 44.285V59.973C170.971 60.75 170.601 61.12 169.824 61.12H167.123C166.346 61.12 165.976 60.75 165.976 59.973V54.09H164.644C163.83 54.09 163.201 54.682 163.201 55.496V59.233C163.201 60.01 162.831 60.38 162.054 60.38H159.353C158.576 60.38 158.206 60.01 158.206 59.233V44.655C158.206 43.878 158.576 43.508 159.353 43.508H162.054C162.831 43.508 163.201 43.878 163.201 44.655V49.761C163.497 49.354 164.015 49.095 164.644 49.095H165.976V44.285ZM151.25 50.39C151.25 53.091 152.619 55.163 155.283 55.163C156.06 55.163 156.43 55.533 156.43 56.236V59.011C156.43 59.714 156.097 60.158 155.357 60.158C152.434 60.158 149.733 58.234 148.771 55.459C147.735 58.308 144.738 60.158 141.778 60.158C141.001 60.158 140.631 59.677 140.631 59.011V56.236C140.631 55.533 141.038 55.163 141.852 55.163C144.627 55.163 146.218 52.98 146.218 50.39V45.136C146.218 44.359 146.588 43.989 147.365 43.989H150.103C150.88 43.989 151.25 44.359 151.25 45.321V50.39ZM158.502 72.072C164.237 72.072 166.346 71.443 166.346 69.667C166.346 67.891 164.237 67.262 158.502 67.262C152.767 67.262 150.658 67.891 150.658 69.667C150.658 71.443 152.767 72.072 158.502 72.072Z" fill="black"/>
</svg>
