<svg width="199" height="38" viewBox="0 0 199 38" fill="none" xmlns="http://www.w3.org/2000/svg">
<path d="M13.96 27.48C12.8 27.52 12.24 28.08 12.24 29.16V34.88C12.24 35.72 11.8 36.2 10.96 36.2H7.76C6.92 36.2 6.44 35.72 6.44 34.88V29.68C6.44 28.64 6.96 27.84 7.76 27.56C5.68 27.48 3.56 27.28 1.64 27C0.72 26.88 0.32 26.48 0.32 25.72V22.76C0.32 21.92 0.8 21.44 1.64 21.56C3.88 21.88 6.96 22.16 9.76 22.16C12.8 22.16 16.28 21.92 17.96 21.56C18.8 21.4 19.32 21.92 19.32 22.76V25.72C19.32 26.44 18.88 26.8 18 27C17.12 27.2 15.12 27.44 13.96 27.48ZM20.84 2.6C20.84 1.76 21.24 1.36 22.08 1.36H25C25.84 1.36 26.24 1.76 26.24 2.6V35.56C26.24 36.4 25.84 36.8 25 36.8H22.08C21.24 36.8 20.84 36.4 20.84 35.56V33.72C20.4 34.4 19.56 34.8 18.48 34.8H15.84C15.04 34.8 14.6 34.36 14.6 33.56V30.44C14.6 29.64 15.04 29.2 15.84 29.2H18.72C20.08 29.2 20.84 28.48 20.84 27.2V2.6ZM28.04 2.2C28.04 1.36 28.44 0.96 29.28 0.96H32.2C33.04 0.96 33.44 1.36 33.44 2.2V35.56C33.44 36.4 33.04 36.8 32.2 36.8H29.28C28.44 36.8 28.04 36.4 28.04 35.56V2.2ZM12.52 8.04C12.52 11 13.8 13.6 16.48 13.6C17.32 13.6 17.72 14 17.72 14.76V17.76C17.72 18.56 17.32 19 16.48 19C13.08 19 10.76 16.84 9.84 13.96C8.84 16.84 6.28 19 2.76 19C1.88 19 1.44 18.52 1.44 17.76V14.76C1.44 14 1.88 13.6 2.76 13.6C5.56 13.6 7.08 10.88 7.08 8.04V3.12C7.08 2.28 7.48 1.88 8.32 1.88H11.28C12.12 1.88 12.52 2.28 12.52 3.12V8.04ZM47.4016 8.48C44.8816 8.48 43.9616 11 43.9616 17.6C43.9616 24.2 44.8816 26.76 47.4016 26.76C49.9616 26.76 50.8816 24.24 50.8816 17.6C50.8816 11 49.9616 8.48 47.4016 8.48ZM47.4016 3.08C53.8416 3.08 56.6016 7.48 56.6016 17.6C56.6016 27.72 53.8016 32.16 47.4016 32.16C41.0016 32.16 38.2416 27.72 38.2416 17.6C38.2416 7.48 41.0016 3.08 47.4016 3.08ZM61.5616 2.28C61.5616 1.44 62.0416 0.96 62.8816 0.96H66.0416C66.8816 0.96 67.3616 1.44 67.3616 2.28V35.48C67.3616 36.32 66.8816 36.8 66.0416 36.8H62.8816C62.0416 36.8 61.5616 36.32 61.5616 35.48V18.88C61.1216 19.6 60.2416 20 59.1616 20H58.5616C57.7616 20 57.3216 19.56 57.3216 18.76V15.64C57.3216 14.84 57.7616 14.4 58.5616 14.4H59.3216C60.6816 14.4 61.5616 13.56 61.5616 12.28V2.28ZM89.6659 13.68C87.5459 13.68 85.7859 13.64 84.3059 13.64C79.0659 13.64 78.3459 13.8 78.3459 15.04C78.3459 16.28 79.1459 16.52 83.1459 16.52C85.4259 16.52 88.0659 16.08 90.0659 15.24C90.3059 15.16 90.5059 15.08 90.6659 15.08C91.1059 15.08 91.3859 15.36 91.5459 16L92.1859 18.32C92.3859 19.12 92.1859 19.52 91.2659 19.84C88.5459 20.8 85.3059 21.36 82.2259 21.36C75.2659 21.36 72.5459 19.6 72.5459 15.16C72.5459 10.64 75.3059 8.8 82.0659 8.8C84.6259 8.8 85.2259 8.6 85.2259 7.8C85.2259 6.92 84.5859 6.72 81.8259 6.72C79.7059 6.72 77.7059 6.88 74.9459 7.28C74.1459 7.4 73.7459 7.04 73.7459 6.24V3.64C73.7459 2.88 74.0259 2.52 74.8659 2.4C77.7459 2 79.9459 1.88 83.6659 1.88C88.8259 1.88 91.0259 3.08 91.0259 5.88C91.0259 7.32 90.3059 8.48 88.9059 9.24H89.6659C90.3459 9.24 90.7059 9.6 90.7059 10.32V12.6C90.7059 13.32 90.3459 13.68 89.6659 13.68ZM95.5459 2.28C95.5459 1.44 96.0259 0.96 96.8659 0.96H100.026C100.866 0.96 101.346 1.44 101.346 2.28V21.88C101.346 22.72 100.866 23.2 100.026 23.2H96.8659C96.0259 23.2 95.5459 22.72 95.5459 21.88V2.28ZM88.4259 31.24C86.6259 34.56 81.8659 37.04 76.8659 37.04C75.9459 37.04 74.8659 37.04 74.8659 35.8V32.8C74.8659 32.04 75.3059 31.64 76.1859 31.64C81.2659 31.64 85.5459 28.84 85.5459 25.64V25.16C85.5459 24.32 86.0259 23.84 86.8659 23.84H90.0259C90.8659 23.84 91.3459 24.32 91.3459 25.16V25.64C91.3459 28.84 95.5859 31.64 100.626 31.64C101.506 31.64 101.946 32.04 101.946 32.8V35.8C101.946 37.04 100.866 37.04 99.9459 37.04C94.9459 37.04 90.1859 34.56 88.4259 31.24ZM115.57 3.08C122.09 3.08 124.97 7.48 124.97 17.6C124.97 27.72 122.05 32.16 115.57 32.16C109.09 32.16 106.21 27.72 106.21 17.6C106.21 7.48 109.09 3.08 115.57 3.08ZM111.93 17.6C111.93 24.2 112.97 26.76 115.57 26.76C118.21 26.76 119.25 24.24 119.25 17.6C119.25 11 118.21 8.48 115.57 8.48C112.97 8.48 111.93 11 111.93 17.6ZM129.53 2.28C129.53 1.44 130.01 0.96 130.85 0.96H134.01C134.85 0.96 135.33 1.44 135.33 2.28V35.48C135.33 36.32 134.85 36.8 134.01 36.8H130.85C130.01 36.8 129.53 36.32 129.53 35.48V2.28ZM152.275 14.12C147.035 14.12 146.315 14.36 146.315 15.6C146.315 16.84 147.115 17.16 151.115 17.16C153.395 17.16 156.035 16.72 158.035 15.88C158.275 15.8 158.475 15.72 158.635 15.72C159.075 15.72 159.355 16 159.515 16.64L160.155 19.12C160.355 19.92 160.155 20.32 159.235 20.64C156.515 21.6 153.275 22.16 150.195 22.16C143.235 22.16 140.515 20.16 140.515 15.72C140.515 11.2 143.275 9.12 150.035 9.12C152.595 9.12 153.195 8.84 153.195 8.04C153.195 7.16 152.555 6.88 149.795 6.88C147.675 6.88 145.675 7.04 142.915 7.44C142.115 7.56 141.715 7.2 141.715 6.4V3.64C141.715 2.88 141.995 2.52 142.835 2.4C145.715 2 147.915 1.88 151.635 1.88C156.795 1.88 158.995 3.32 158.995 6.12C158.995 7.56 158.275 8.76 156.875 9.56H157.635C158.315 9.56 158.675 9.92 158.675 10.64V13.08C158.675 13.8 158.315 14.16 157.635 14.16C155.515 14.16 153.755 14.12 152.275 14.12ZM168.515 24.68C168.515 25.52 168.035 26 167.195 26H164.035C163.195 26 162.715 25.52 162.715 24.68V2.28C162.715 1.44 163.195 0.96 164.035 0.96H167.195C168.035 0.96 168.515 1.44 168.515 2.28V11.28C168.955 10.6 169.875 10.16 170.995 10.16H172.275C173.075 10.16 173.515 10.6 173.515 11.4V14.32C173.515 15.12 173.075 15.56 172.275 15.56H170.835C169.475 15.56 168.515 16.48 168.515 17.76V24.68ZM153.235 37.4C147.115 37.4 143.635 34.72 143.635 29.88C143.635 27.88 143.755 27.16 143.875 26.4C143.995 25.56 144.355 25.08 145.195 25.08H148.355C149.195 25.08 149.795 25.56 149.675 26.4C149.515 27.44 149.435 27.92 149.435 29C149.435 31.08 150.915 32 153.955 32C158.955 32 163.915 31.68 168.155 31.28C168.955 31.2 169.355 31.72 169.395 32.52L169.595 35.44C169.635 36.24 169.155 36.6 168.355 36.68C164.355 37.12 159.875 37.4 153.235 37.4ZM184.141 32.96C184.141 32.12 184.621 31.64 185.461 31.64H188.621C189.461 31.64 189.941 32.12 189.941 32.96V36.28C189.941 37.12 189.461 37.6 188.621 37.6H185.461C184.621 37.6 184.141 37.12 184.141 36.28V32.96ZM181.941 11.4C181.941 12.24 181.461 12.72 180.621 12.72H177.461C176.621 12.72 176.141 12.24 176.141 11.4V10.64C176.141 4.04 180.301 0.159998 187.421 0.159998C194.861 0.159998 198.781 3.68 198.781 10.28C198.781 18.12 189.941 20.72 189.941 27.16V28.32C189.941 29.16 189.461 29.64 188.621 29.64H185.461C184.621 29.64 184.141 29.16 184.141 28.32V26.32C184.141 19.32 192.981 15.64 192.981 10.28C192.981 7.28 191.141 5.76 187.461 5.76C183.781 5.76 181.941 7.36 181.941 10.64V11.4Z" fill="#FFB849"/>
</svg>
