<svg width="260" height="196" viewBox="0 0 260 196" fill="none" xmlns="http://www.w3.org/2000/svg">
<g filter="url(#filter0_f_624_4980)">
<path d="M139.451 15.554V139.779C139.451 142.313 138.695 144.743 137.35 146.535C136.004 148.327 134.18 149.333 132.277 149.333H96.4008L74.8758 178L53.3508 149.333H17.4746C15.572 149.333 13.7473 148.327 12.402 146.535C11.0566 144.743 10.3008 142.313 10.3008 139.779V15.554C10.3008 13.0201 11.0566 10.59 12.402 8.79831C13.7473 7.00658 15.572 6 17.4746 6H132.277C134.18 6 136.004 7.00658 137.35 8.79831C138.695 10.59 139.451 13.0201 139.451 15.554Z" fill="white" stroke="white" stroke-linecap="round" stroke-linejoin="round"/>
<rect x="4" y="4" width="252" height="148" rx="20" fill="white"/>
</g>
<path d="M30.3108 37.156C30.3108 34.929 31.3138 33.654 34.3568 31.988C36.7538 30.679 37.6888 29.676 37.6718 28.435C37.6548 27.177 36.7198 26.463 35.0878 26.463C33.3708 26.463 32.5038 27.228 32.5038 28.724C32.5038 29.013 32.3338 29.183 32.0618 29.183H30.9908C30.7188 29.183 30.5488 29.013 30.5488 28.724C30.5488 26.072 32.1808 24.593 35.0878 24.593C37.9778 24.593 39.6268 26.038 39.6268 28.588C39.6268 30.407 38.3518 32.022 35.8868 33.348C33.9488 34.385 32.8778 35.286 32.6568 36.085H39.7288C40.0178 36.085 40.1538 36.221 40.1538 36.51V37.53C40.1538 37.819 40.0178 37.955 39.7288 37.955H31.0928C30.5828 37.955 30.3108 37.666 30.3108 37.156ZM41.3505 31.359C41.3505 26.803 43.1355 24.593 46.4335 24.593C49.7315 24.593 51.5165 26.803 51.5165 31.359C51.5165 35.915 49.7315 38.125 46.4335 38.125C43.1355 38.125 41.3505 35.915 41.3505 31.359ZM43.3055 31.359C43.3055 34.708 44.3425 36.255 46.4335 36.255C48.5245 36.255 49.5615 34.708 49.5615 31.359C49.5615 28.01 48.5245 26.463 46.4335 26.463C44.3425 26.463 43.3055 28.01 43.3055 31.359ZM52.3909 37.156C52.3909 34.929 53.3939 33.654 56.4369 31.988C58.8339 30.679 59.7689 29.676 59.7519 28.435C59.7349 27.177 58.7999 26.463 57.1679 26.463C55.4509 26.463 54.5839 27.228 54.5839 28.724C54.5839 29.013 54.4139 29.183 54.1419 29.183H53.0709C52.7989 29.183 52.6289 29.013 52.6289 28.724C52.6289 26.072 54.2609 24.593 57.1679 24.593C60.0579 24.593 61.7069 26.038 61.7069 28.588C61.7069 30.407 60.4319 32.022 57.9669 33.348C56.0289 34.385 54.9579 35.286 54.7369 36.085H61.8089C62.0979 36.085 62.2339 36.221 62.2339 36.51V37.53C62.2339 37.819 62.0979 37.955 61.8089 37.955H53.1729C52.6629 37.955 52.3909 37.666 52.3909 37.156ZM63.7796 37.156C63.7796 34.929 64.7826 33.654 67.8256 31.988C70.2226 30.679 71.1576 29.676 71.1406 28.435C71.1236 27.177 70.1886 26.463 68.5566 26.463C66.8396 26.463 65.9726 27.228 65.9726 28.724C65.9726 29.013 65.8026 29.183 65.5306 29.183H64.4596C64.1876 29.183 64.0176 29.013 64.0176 28.724C64.0176 26.072 65.6496 24.593 68.5566 24.593C71.4466 24.593 73.0956 26.038 73.0956 28.588C73.0956 30.407 71.8206 32.022 69.3556 33.348C67.4176 34.385 66.3466 35.286 66.1256 36.085H73.1976C73.4866 36.085 73.6226 36.221 73.6226 36.51V37.53C73.6226 37.819 73.4866 37.955 73.1976 37.955H64.5616C64.0516 37.955 63.7796 37.666 63.7796 37.156ZM86.9493 33.756C86.9493 34.045 86.7793 34.215 86.5073 34.215H85.4363C85.1643 34.215 84.9943 34.045 84.9943 33.756V29.744C84.8753 29.948 84.6373 30.084 84.3143 30.084H82.4953C82.5123 30.118 82.5293 30.135 82.5293 30.169L82.8013 31.104C82.8693 31.359 82.7673 31.546 82.4443 31.648C81.3053 32.005 80.0133 32.226 78.9423 32.226C76.5283 32.226 75.2533 31.019 75.2533 28.724C75.2533 27.194 75.3553 25.851 75.6273 24.525C75.6953 24.236 75.8313 24.134 76.1033 24.134H77.1403C77.4633 24.134 77.6503 24.321 77.5993 24.61C77.3103 26.463 77.2083 27.687 77.2083 28.911C77.2083 29.965 77.7523 30.441 78.9423 30.441C79.6903 30.441 80.7783 30.254 81.8153 29.931C81.7643 29.863 81.7473 29.778 81.7473 29.659V28.758C81.7473 28.469 81.8833 28.333 82.1723 28.333H84.5353C84.8753 28.333 84.9943 28.197 84.9943 27.857V26.701C84.8753 26.905 84.6373 27.041 84.3143 27.041H82.1723C81.8833 27.041 81.7473 26.905 81.7473 26.616V25.715C81.7473 25.426 81.8833 25.29 82.1723 25.29H84.5353C84.8753 25.29 84.9943 25.154 84.9943 24.814V24.202C84.9943 23.913 85.1643 23.743 85.4363 23.743H86.5073C86.7793 23.743 86.9493 23.913 86.9493 24.202V33.756ZM76.6473 34.011C76.6983 33.722 76.8513 33.569 77.1403 33.569H78.1603C78.4493 33.569 78.6363 33.756 78.6023 34.028C78.5513 34.436 78.5003 35.048 78.5003 35.711C78.5003 36.731 79.1633 37.275 80.2003 37.275C83.2093 37.275 84.8923 37.173 86.8983 36.986C87.1703 36.952 87.3233 37.088 87.3403 37.394L87.4083 38.329C87.4253 38.584 87.2893 38.72 87.0003 38.754C85.3173 38.924 83.0903 39.06 80.2853 39.06C77.9223 39.06 76.5453 37.87 76.5453 35.898C76.5453 35.184 76.5793 34.436 76.6473 34.011ZM100.98 36.085C100.929 36.374 100.793 36.493 100.504 36.493H99.4162C99.1102 36.493 98.9402 36.306 98.9912 36.034C99.4332 33.569 99.6372 31.138 99.6372 28.656C99.6372 27.211 99.1782 26.701 97.9032 26.701C96.6622 26.701 95.6932 26.854 94.5712 27.007C94.2992 27.041 94.1292 26.854 94.1292 26.565V25.579C94.1292 25.307 94.2652 25.154 94.5542 25.12C95.8632 24.933 97.0532 24.814 98.2772 24.814C100.657 24.814 101.609 25.851 101.609 28.469C101.609 31.155 101.405 33.586 100.98 36.085ZM103.87 24.202C103.87 23.913 104.04 23.743 104.312 23.743H105.383C105.655 23.743 105.825 23.913 105.825 24.202V38.346C105.825 38.635 105.655 38.805 105.383 38.805H104.312C104.04 38.805 103.87 38.635 103.87 38.346V24.202ZM119.325 24.117C119.614 24.117 119.75 24.253 119.75 24.542V25.477C119.75 25.766 119.614 25.902 119.325 25.902H115.738V26.089C115.738 27.33 117.251 28.503 119.58 28.503C119.886 28.503 120.005 28.622 120.005 28.894V29.863C120.005 30.152 119.886 30.271 119.58 30.288C117.472 30.407 115.466 29.268 114.752 28.01C114.038 29.268 112.049 30.407 109.941 30.288C109.635 30.271 109.516 30.152 109.516 29.863V28.894C109.516 28.622 109.635 28.503 109.941 28.503C112.27 28.503 113.783 27.33 113.783 26.089V25.902H110.196C109.907 25.902 109.771 25.766 109.771 25.477V24.542C109.771 24.253 109.907 24.117 110.196 24.117H119.325ZM114.259 33.093C112.287 33.093 110.009 33.025 108.7 32.923C108.411 32.906 108.275 32.753 108.275 32.464V31.546C108.275 31.257 108.445 31.121 108.734 31.138C109.805 31.223 111.556 31.291 114.667 31.308C117.047 31.325 119.427 31.291 120.651 31.155C120.94 31.121 121.11 31.274 121.11 31.563V32.481C121.11 32.77 120.991 32.906 120.685 32.94C119.444 33.059 117.421 33.093 116.435 33.093C116.146 33.093 116.01 33.246 116.01 33.518V35.405C116.01 35.694 115.84 35.864 115.568 35.864H114.497C114.225 35.864 114.055 35.694 114.055 35.405V33.518C114.055 33.331 114.123 33.178 114.259 33.093ZM109.55 34.691C109.601 34.402 109.771 34.249 110.06 34.249H111.097C111.386 34.249 111.556 34.436 111.505 34.708C111.437 35.065 111.386 35.473 111.386 35.898C111.386 36.833 111.896 37.275 113.001 37.275C116.01 37.275 117.948 37.173 119.954 36.986C120.226 36.952 120.379 37.088 120.396 37.394L120.464 38.329C120.481 38.584 120.345 38.72 120.056 38.754C118.373 38.924 115.857 39.06 113.052 39.06C110.74 39.06 109.431 37.938 109.431 35.983C109.431 35.473 109.482 35.031 109.55 34.691ZM124.308 28.792C124.308 26.038 126.246 24.457 129.612 24.457C132.978 24.457 134.916 26.038 134.916 28.792C134.916 31.546 132.978 33.127 129.612 33.127C126.229 33.127 124.308 31.563 124.308 28.792ZM129.612 31.308C131.788 31.308 132.961 30.39 132.961 28.792C132.961 27.16 131.839 26.276 129.612 26.276C127.385 26.276 126.263 27.16 126.263 28.792C126.263 30.39 127.436 31.308 129.612 31.308ZM123.526 35.371C125.141 35.558 127.096 35.66 129.459 35.66C131.89 35.66 134.117 35.558 135.443 35.388C135.732 35.354 135.902 35.507 135.902 35.796V36.731C135.902 37.02 135.783 37.139 135.477 37.19C134.321 37.377 132.06 37.479 129.459 37.479C126.756 37.479 124.767 37.377 123.492 37.173C123.186 37.122 123.067 36.986 123.067 36.714V35.779C123.067 35.49 123.237 35.337 123.526 35.371ZM138.284 37.173C137.978 37.122 137.859 36.986 137.859 36.714V35.779C137.859 35.49 138.029 35.337 138.318 35.371C139.542 35.507 141.837 35.66 143.724 35.694C143.469 35.575 143.299 35.303 143.299 34.963V33.161C140.205 32.991 139.27 32.277 139.27 30.441C139.27 28.469 140.443 27.874 144.302 27.874H146.41C147.141 27.874 147.515 27.602 147.515 27.041C147.515 26.497 147.209 26.293 146.444 26.293C144.234 26.293 141.718 26.395 140.018 26.582C139.763 26.616 139.61 26.48 139.61 26.225V25.205C139.61 24.95 139.712 24.831 139.95 24.797C141.395 24.593 143.486 24.474 145.475 24.474C146.172 24.474 146.869 24.491 147.515 24.525C148.807 24.576 149.453 25.137 149.453 26.157C149.453 27.109 148.994 27.789 148.178 28.078H148.943C149.181 28.078 149.317 28.214 149.317 28.452V29.319C149.317 29.557 149.181 29.71 148.943 29.71C147.396 29.71 145.662 29.659 144.336 29.659C141.888 29.659 141.225 29.846 141.225 30.526C141.225 31.274 141.922 31.427 145.271 31.427C146.614 31.427 148.076 31.325 149.317 31.138C149.538 31.104 149.657 31.206 149.708 31.461L149.878 32.43C149.912 32.651 149.776 32.838 149.555 32.872C148.178 33.076 146.512 33.212 145.288 33.212H145.254V35.116C145.254 35.49 145.441 35.643 145.849 35.643C147.311 35.643 149.079 35.541 150.235 35.388C150.524 35.354 150.694 35.507 150.694 35.796V36.731C150.694 37.02 150.575 37.139 150.269 37.19C149.113 37.377 146.852 37.479 144.251 37.479C141.548 37.479 139.559 37.377 138.284 37.173ZM161.121 33.416C160.679 34.997 159.183 36.289 157.551 36.493C157.262 36.527 157.126 36.391 157.126 36.102V35.082C157.126 34.793 157.228 34.657 157.517 34.623C158.945 34.453 160.135 32.685 160.135 30.73V25.273C160.135 24.984 160.305 24.814 160.577 24.814H161.648C161.92 24.814 162.09 24.984 162.09 25.273V30.73C162.09 32.685 163.28 34.453 164.708 34.623C164.997 34.657 165.099 34.793 165.099 35.082V36.102C165.099 36.391 164.963 36.527 164.674 36.493C163.042 36.289 161.546 34.997 161.121 33.416ZM167.122 24.202C167.122 23.913 167.292 23.743 167.564 23.743H168.635C168.907 23.743 169.077 23.913 169.077 24.202V38.346C169.077 38.635 168.907 38.805 168.635 38.805H167.564C167.292 38.805 167.122 38.635 167.122 38.346V30.305C167.003 30.526 166.765 30.645 166.425 30.645H164.64C164.351 30.645 164.215 30.509 164.215 30.22V29.2C164.215 28.911 164.351 28.775 164.64 28.775H166.527C166.935 28.775 167.122 28.605 167.122 28.231V24.202ZM183.376 38.771C182.135 38.941 180.078 39.06 178.786 39.06C173.839 39.06 172.683 38.652 172.683 36.901C172.683 35.269 173.771 34.81 177.8 34.81C178.718 34.81 179.704 34.844 180.588 34.81C181.217 34.793 181.438 34.674 181.438 34.317C181.438 33.943 181.234 33.79 180.639 33.79C178.922 33.79 175.284 33.909 173.397 34.028C173.142 34.045 173.023 33.909 173.023 33.637V32.872C173.023 32.617 173.125 32.498 173.397 32.481C174.468 32.413 175.709 32.362 176.967 32.311V31.852C176.967 31.665 177.035 31.512 177.171 31.427C175.471 31.427 173.21 31.376 171.918 31.257C171.663 31.24 171.527 31.104 171.527 30.849V30.016C171.527 29.744 171.68 29.625 171.952 29.642C173.023 29.727 174.808 29.795 177.919 29.812C180.299 29.829 182.713 29.795 183.937 29.659C184.209 29.625 184.362 29.761 184.362 30.033V30.849C184.362 31.121 184.243 31.24 183.971 31.274C182.73 31.393 180.673 31.427 179.347 31.427C179.058 31.427 178.922 31.58 178.922 31.852V32.277C179.993 32.26 181.013 32.26 181.812 32.277C182.951 32.311 183.376 32.685 183.376 33.518C183.376 34.198 182.951 34.742 182.271 34.963H182.883C183.138 34.963 183.24 35.082 183.24 35.337V36.034C183.24 36.306 183.121 36.425 182.883 36.408C181.829 36.357 180.146 36.34 177.834 36.34C174.995 36.34 174.638 36.425 174.638 36.935C174.638 37.53 175.318 37.53 178.769 37.53C180.027 37.53 181.982 37.411 183.257 37.241C183.512 37.207 183.648 37.326 183.665 37.581L183.716 38.346C183.733 38.618 183.631 38.737 183.376 38.771ZM172.768 26.582C172.768 24.678 174.298 23.947 178.072 23.947C181.846 23.947 183.376 24.678 183.376 26.582C183.376 28.486 181.846 29.217 178.072 29.217C174.298 29.217 172.768 28.486 172.768 26.582ZM174.723 26.582C174.723 27.381 175.522 27.636 178.072 27.636C180.622 27.636 181.421 27.381 181.421 26.582C181.421 25.783 180.622 25.528 178.072 25.528C175.522 25.528 174.723 25.783 174.723 26.582ZM192.711 31.495C192.575 35.167 191.47 36.833 189.328 36.833C187.067 36.833 185.945 34.929 185.945 30.73C185.945 26.514 187.05 24.644 189.328 24.644C191.419 24.644 192.507 26.191 192.694 29.625H194.105C194.496 29.625 194.615 29.506 194.615 29.166V24.338C194.615 24.049 194.751 23.913 195.04 23.913H196.06C196.349 23.913 196.485 24.049 196.485 24.338V38.38C196.485 38.669 196.349 38.805 196.06 38.805H195.04C194.751 38.805 194.615 38.669 194.615 38.38V31.189C194.513 31.376 194.275 31.495 194.037 31.495H192.711ZM199.46 24.168V38.38C199.46 38.669 199.324 38.805 199.035 38.805H198.015C197.726 38.805 197.59 38.669 197.59 38.38V24.168C197.59 23.879 197.726 23.743 198.015 23.743H199.035C199.324 23.743 199.46 23.879 199.46 24.168ZM189.328 26.514C188.274 26.514 187.815 27.755 187.815 30.73C187.815 33.705 188.274 34.963 189.328 34.963C190.399 34.963 190.858 33.722 190.858 30.73C190.858 27.738 190.399 26.514 189.328 26.514ZM205.58 33.416C205.138 34.997 203.642 36.289 202.01 36.493C201.721 36.527 201.585 36.391 201.585 36.102V35.082C201.585 34.793 201.687 34.657 201.976 34.623C203.404 34.453 204.594 32.685 204.594 30.73V25.273C204.594 24.984 204.764 24.814 205.036 24.814H206.107C206.379 24.814 206.549 24.984 206.549 25.273V30.73C206.549 32.685 207.739 34.453 209.167 34.623C209.456 34.657 209.558 34.793 209.558 35.082V36.102C209.558 36.391 209.422 36.527 209.133 36.493C207.501 36.289 206.005 34.997 205.58 33.416ZM211.581 24.202C211.581 23.913 211.751 23.743 212.023 23.743H213.094C213.366 23.743 213.536 23.913 213.536 24.202V38.346C213.536 38.635 213.366 38.805 213.094 38.805H212.023C211.751 38.805 211.581 38.635 211.581 38.346V30.305C211.462 30.526 211.224 30.645 210.884 30.645H209.099C208.81 30.645 208.674 30.509 208.674 30.22V29.2C208.674 28.911 208.81 28.775 209.099 28.775H210.986C211.394 28.775 211.581 28.605 211.581 28.231V24.202ZM219.624 30.288C220.712 30.288 221.46 29.268 221.46 27.806C221.46 26.582 220.984 25.919 220.015 25.919H218.315C218.06 25.919 217.907 26.055 217.907 26.327V29.744C217.907 30.084 218.162 30.288 218.57 30.288H219.624ZM222.888 32.073H217.703C216.615 32.073 215.952 31.512 215.952 30.577V24.933C215.952 24.423 216.224 24.134 216.734 24.134H221.018C222.582 24.134 223.415 25.154 223.415 26.922C223.415 28.401 222.735 29.727 221.749 30.288H222.888C223.177 30.288 223.313 30.424 223.313 30.713V31.648C223.313 31.937 223.177 32.073 222.888 32.073ZM227.308 33.756C227.308 34.045 227.138 34.215 226.866 34.215H225.795C225.523 34.215 225.353 34.045 225.353 33.756V24.202C225.353 23.913 225.523 23.743 225.795 23.743H226.866C227.138 23.743 227.308 23.913 227.308 24.202V28.163C227.427 27.942 227.665 27.823 228.005 27.823H229.008C229.297 27.823 229.433 27.959 229.433 28.248V29.183C229.433 29.472 229.297 29.608 229.008 29.608H227.903C227.495 29.608 227.308 29.778 227.308 30.152V33.756ZM217.346 34.011C217.397 33.722 217.55 33.569 217.839 33.569H218.859C219.148 33.569 219.335 33.756 219.301 34.028C219.25 34.436 219.199 35.048 219.199 35.711C219.199 36.731 219.862 37.275 220.899 37.275C223.738 37.275 225.251 37.173 227.257 36.986C227.529 36.952 227.682 37.088 227.699 37.394L227.767 38.329C227.784 38.584 227.648 38.72 227.359 38.754C225.676 38.924 223.619 39.06 220.984 39.06C218.621 39.06 217.244 37.87 217.244 35.898C217.244 35.184 217.278 34.436 217.346 34.011ZM56.7713 52.982C55.6663 52.982 55.0203 53.764 55.0203 55.294C55.0203 56.824 55.6833 57.623 56.7713 57.623C57.8763 57.623 58.5393 56.841 58.5393 55.294C58.5393 53.764 57.8763 52.982 56.7713 52.982ZM60.4943 55.294C60.4943 57.963 59.1173 59.493 56.7713 59.493C54.4423 59.493 53.0653 57.963 53.0653 55.294C53.0653 52.625 54.4253 51.112 56.7713 51.112C59.1173 51.112 60.4943 52.608 60.4943 55.294ZM64.4213 61.346C64.4213 61.635 64.2513 61.805 63.9793 61.805H62.9083C62.6363 61.805 62.4663 61.635 62.4663 61.346V47.202C62.4663 46.913 62.6363 46.743 62.9083 46.743H63.9793C64.2513 46.743 64.4213 46.913 64.4213 47.202V53.033C64.5403 52.812 64.7783 52.693 65.1183 52.693H66.1213C66.4103 52.693 66.5463 52.829 66.5463 53.118V54.138C66.5463 54.427 66.4103 54.563 66.1213 54.563H65.0163C64.6083 54.563 64.4213 54.733 64.4213 55.107V61.346ZM58.1653 48.154H60.5793C60.8683 48.154 61.0043 48.29 61.0043 48.579V49.599C61.0043 49.888 60.8683 50.024 60.5793 50.024H52.9803C52.6913 50.024 52.5553 49.888 52.5553 49.599V48.579C52.5553 48.29 52.6913 48.154 52.9803 48.154H56.1083C55.9553 48.069 55.8533 47.916 55.8533 47.695V46.76C55.8533 46.471 55.9893 46.335 56.2783 46.335H57.3833C57.6723 46.335 57.8083 46.471 57.8083 46.76V47.848C57.8083 48.069 57.9103 48.154 58.1653 48.154ZM75.8813 57.827C75.4733 57.827 75.2863 57.98 75.2863 58.354V60.751C75.2863 61.04 75.1163 61.21 74.8443 61.21H73.7733C73.5013 61.21 73.3313 61.04 73.3313 60.751V58.575C73.3313 58.235 73.5013 57.946 73.7733 57.844C71.8863 57.827 69.5573 57.708 68.3163 57.555C68.0103 57.521 67.8913 57.351 67.8913 57.079V56.144C67.8913 55.855 68.0613 55.719 68.3503 55.753C69.9653 55.94 71.9203 56.042 74.2833 56.042C76.7143 56.042 78.9413 55.94 80.2673 55.77C80.5563 55.736 80.7263 55.872 80.7263 56.161V57.096C80.7263 57.385 80.6073 57.521 80.3013 57.572C79.1453 57.725 77.3433 57.827 75.8813 57.827ZM78.2273 50.177H78.9753C79.2133 50.177 79.3493 50.313 79.3493 50.551V51.35C79.3493 51.588 79.2133 51.741 78.9753 51.741C77.4283 51.741 75.6943 51.69 74.3683 51.69C71.8013 51.69 71.2573 51.809 71.2573 52.336C71.2573 52.965 71.9543 52.965 75.3033 52.965C76.6633 52.965 78.1253 52.863 79.3493 52.676C79.5703 52.642 79.6893 52.744 79.7403 52.999L79.9103 53.9C79.9443 54.121 79.8083 54.308 79.5873 54.342C78.1933 54.563 76.5273 54.682 75.3203 54.682C70.4243 54.682 69.3023 54.223 69.3023 52.251C69.3023 50.449 70.3563 49.973 74.3343 49.973H76.4423C77.2923 49.973 77.5473 49.854 77.5473 49.463C77.5473 49.055 77.2583 48.902 76.4763 48.902C73.8923 48.902 71.8353 48.953 70.0503 49.191C69.7953 49.225 69.6423 49.089 69.6423 48.834V47.865C69.6423 47.61 69.7443 47.491 69.9823 47.457C71.3933 47.253 73.5183 47.185 77.5473 47.185C78.8223 47.185 79.4853 47.644 79.4853 48.562C79.4853 49.378 79.0603 49.922 78.2273 50.177ZM83.6013 58.847C83.6013 56.705 85.4543 55.617 89.1603 55.617C92.8663 55.617 94.7193 56.705 94.7193 58.847C94.7193 60.989 92.8663 62.077 89.1603 62.077C85.4543 62.077 83.6013 60.989 83.6013 58.847ZM82.6493 48.919C82.3603 48.919 82.2243 48.783 82.2243 48.494V47.559C82.2243 47.27 82.3603 47.134 82.6493 47.134H89.8743C90.1633 47.134 90.2993 47.27 90.2993 47.559V48.494C90.2993 48.783 90.1633 48.919 89.8743 48.919H89.1433L88.9393 52.659C89.2963 52.642 89.6193 52.608 89.9253 52.574C90.2143 52.54 90.3503 52.71 90.3503 52.999V53.934C90.3503 54.223 90.2143 54.325 89.9253 54.359C89.2113 54.461 87.8513 54.563 86.2533 54.563C84.6553 54.563 83.3123 54.461 82.4283 54.359C82.1393 54.325 82.0033 54.223 82.0033 53.934V52.999C82.0033 52.71 82.1393 52.54 82.4283 52.574C82.7683 52.608 83.1593 52.642 83.5843 52.676L83.3803 48.919H82.6493ZM92.3903 52.982C92.2713 53.186 92.0333 53.322 91.7103 53.322H91.0983C90.8093 53.322 90.6733 53.186 90.6733 52.897V51.962C90.6733 51.673 90.8093 51.537 91.0983 51.537H91.9313C92.2713 51.537 92.3903 51.401 92.3903 51.061V49.701C92.2713 49.905 92.0333 50.041 91.7103 50.041H91.0983C90.8093 50.041 90.6733 49.905 90.6733 49.616V48.681C90.6733 48.392 90.8093 48.256 91.0983 48.256H91.9313C92.2713 48.256 92.3903 48.12 92.3903 47.78V47.202C92.3903 46.913 92.5603 46.743 92.8323 46.743H93.9033C94.1753 46.743 94.3453 46.913 94.3453 47.202V54.376C94.3453 54.665 94.1753 54.835 93.9033 54.835H92.8323C92.5603 54.835 92.3903 54.665 92.3903 54.376V52.982ZM85.5563 58.847C85.5563 59.731 86.4743 60.292 89.1603 60.292C91.8463 60.292 92.7643 59.731 92.7643 58.847C92.7643 57.963 91.8463 57.402 89.1603 57.402C86.4743 57.402 85.5563 57.963 85.5563 58.847ZM85.4883 52.761C85.7433 52.778 85.9983 52.778 86.2533 52.778C86.5253 52.778 86.7803 52.778 87.0353 52.761L87.2393 48.919H85.2843L85.4883 52.761ZM107.437 55.022C107.097 55.039 106.995 55.141 106.995 55.43V57.912C106.995 58.201 106.825 58.371 106.553 58.371H105.567C105.295 58.371 105.125 58.201 105.125 57.912V55.583C105.125 55.345 105.227 55.158 105.414 55.073C104.7 55.09 104.071 55.09 103.493 55.073C103.153 55.073 103 55.192 103 55.498V57.912C103 58.201 102.83 58.371 102.558 58.371H101.572C101.3 58.371 101.13 58.201 101.13 57.912V55.566C101.13 55.311 101.232 55.141 101.436 55.073C99.8886 55.039 98.0186 54.971 97.2196 54.903C96.9306 54.886 96.7946 54.733 96.7946 54.444V53.526C96.7946 53.237 96.9646 53.101 97.2536 53.118C98.3246 53.203 100.076 53.271 103.187 53.288C104.173 53.288 105.142 53.288 106.043 53.288C106.043 53.254 106.06 53.237 106.06 53.203C106.298 52.353 106.434 51.401 106.434 50.653C106.434 49.429 105.856 48.902 104.53 48.902C102.354 48.902 100.739 48.987 98.6306 49.208C98.3586 49.242 98.2056 49.106 98.2056 48.8V47.848C98.2056 47.576 98.3246 47.44 98.6306 47.406C100.467 47.219 102.558 47.117 104.734 47.117C107.182 47.117 108.389 48.12 108.389 50.16C108.389 51.35 108.27 52.404 108.066 53.22C108.491 53.203 108.865 53.169 109.171 53.135C109.46 53.101 109.63 53.254 109.63 53.543V54.461C109.63 54.75 109.511 54.869 109.205 54.92C108.763 54.988 107.947 55.005 107.437 55.022ZM98.0696 57.181C98.1036 56.892 98.2906 56.739 98.5796 56.739H99.6166C99.9056 56.739 100.059 56.926 100.025 57.198C99.9566 57.725 99.9056 58.473 99.9056 58.898C99.9056 59.833 100.416 60.275 101.521 60.275C104.53 60.275 106.468 60.173 108.474 59.986C108.746 59.952 108.899 60.088 108.916 60.394L108.984 61.329C109.001 61.584 108.865 61.72 108.576 61.754C106.893 61.924 104.377 62.06 101.572 62.06C99.2596 62.06 97.9506 60.938 97.9506 58.983C97.9506 58.473 98.0016 57.691 98.0696 57.181ZM116.232 60.156C116.232 57.929 117.235 56.654 120.278 54.988C122.675 53.679 123.61 52.676 123.593 51.435C123.576 50.177 122.641 49.463 121.009 49.463C119.292 49.463 118.425 50.228 118.425 51.724C118.425 52.013 118.255 52.183 117.983 52.183H116.912C116.64 52.183 116.47 52.013 116.47 51.724C116.47 49.072 118.102 47.593 121.009 47.593C123.899 47.593 125.548 49.038 125.548 51.588C125.548 53.407 124.273 55.022 121.808 56.348C119.87 57.385 118.799 58.286 118.578 59.085H125.65C125.939 59.085 126.075 59.221 126.075 59.51V60.53C126.075 60.819 125.939 60.955 125.65 60.955H117.014C116.504 60.955 116.232 60.666 116.232 60.156ZM129.049 59.748C129.848 59.748 130.341 60.258 130.341 61.108C130.341 62.468 129.423 63.318 128.131 63.318C128.012 63.318 127.961 63.25 127.961 63.131V62.774C127.961 62.655 128.012 62.587 128.131 62.587C128.505 62.587 128.709 62.468 128.811 62.179C128.199 62.094 127.774 61.618 127.774 60.972C127.774 60.224 128.284 59.748 129.049 59.748ZM140.507 60.547C140.507 60.836 140.337 61.006 140.065 61.006H138.994C138.722 61.006 138.552 60.836 138.552 60.547V58.286H132.5C132.007 58.286 131.701 58.014 131.701 57.538V56.705C131.701 56.45 131.769 56.246 131.939 56.008L137.549 48.222C137.77 47.916 138.076 47.763 138.484 47.763H139.691C140.218 47.763 140.507 48.035 140.507 48.562V56.416H141.884C142.173 56.416 142.309 56.552 142.309 56.841V57.861C142.309 58.15 142.173 58.286 141.884 58.286H140.507V60.547ZM133.996 56.416H138.552V50.092L133.996 56.416ZM151.754 55.073C150.717 55.872 149.323 56.314 147.98 56.314C145.702 56.314 143.526 55.005 143.509 52.183C143.492 49.446 145.413 47.627 148.49 47.61C152.06 47.593 153.726 49.667 153.726 54.172C153.726 58.796 152.077 61.142 148.507 61.142C146.059 61.142 144.24 59.918 144.002 57.997C143.968 57.725 144.138 57.538 144.444 57.538H145.396C145.685 57.538 145.838 57.657 145.94 57.912C146.297 58.796 147.266 59.306 148.49 59.306C150.717 59.306 151.601 58.082 151.754 55.073ZM145.464 52.115C145.464 53.764 146.824 54.546 148.303 54.546C149.544 54.546 151.023 54.036 151.737 53.084C151.567 50.449 150.598 49.429 148.405 49.429C146.518 49.429 145.464 50.449 145.464 52.115ZM163.498 48.562V49.565C163.498 49.888 163.413 50.109 163.311 50.398L159.486 60.564C159.384 60.836 159.18 60.955 158.908 60.955H157.735C157.463 60.955 157.31 60.768 157.412 60.496L161.526 49.633H154.998C154.709 49.633 154.573 49.497 154.573 49.208V48.188C154.573 47.899 154.709 47.763 154.998 47.763H162.682C163.175 47.763 163.498 48.035 163.498 48.562ZM165.028 60.989C165.028 60.241 165.555 59.748 166.303 59.748C167.068 59.748 167.595 60.241 167.595 60.989C167.595 61.703 167.068 62.196 166.303 62.196C165.555 62.196 165.028 61.703 165.028 60.989ZM177.709 48.562V49.565C177.709 49.888 177.624 50.109 177.522 50.398L173.697 60.564C173.595 60.836 173.391 60.955 173.119 60.955H171.946C171.674 60.955 171.521 60.768 171.623 60.496L175.737 49.633H169.209C168.92 49.633 168.784 49.497 168.784 49.208V48.188C168.784 47.899 168.92 47.763 169.209 47.763H176.893C177.386 47.763 177.709 48.035 177.709 48.562ZM190.204 49.531C190.459 49.548 190.544 49.65 190.544 49.905V50.738C190.544 50.993 190.425 51.112 190.17 51.095C188.385 50.976 186.634 50.993 185.461 50.993C182.809 50.993 182.316 51.18 182.316 51.707C182.316 52.234 182.809 52.506 185.597 52.506C187.756 52.506 189.269 52.438 190.408 52.285C190.663 52.251 190.816 52.37 190.833 52.625L190.884 53.441C190.901 53.696 190.782 53.815 190.51 53.849C189.269 54.002 188.028 54.053 186.6 54.07V54.665C186.6 54.937 186.736 55.073 187.025 55.09C188.351 55.141 190.374 55.073 191.615 54.954C191.904 54.92 192.04 55.056 192.04 55.345V56.178C192.04 56.467 191.955 56.586 191.649 56.62C190.425 56.756 187.977 56.79 185.597 56.773C182.486 56.756 180.616 56.722 179.596 56.603C179.307 56.569 179.205 56.45 179.205 56.161V55.328C179.205 55.039 179.341 54.92 179.63 54.937C180.922 55.022 183.2 55.09 184.9 55.107C184.747 55.022 184.645 54.869 184.645 54.648V54.053C181.194 53.968 180.361 53.305 180.361 51.707C180.361 50.092 181.466 49.429 185.597 49.429C187.501 49.429 189.133 49.463 190.204 49.531ZM180.48 58.031C180.531 57.742 180.701 57.589 180.99 57.589H182.027C182.316 57.589 182.486 57.776 182.435 58.048C182.367 58.405 182.316 58.728 182.316 59.068C182.316 59.918 182.826 60.275 183.931 60.275C186.94 60.275 188.878 60.173 190.884 59.986C191.156 59.952 191.309 60.088 191.326 60.394L191.394 61.329C191.411 61.584 191.275 61.72 190.986 61.754C189.303 61.924 186.787 62.06 183.982 62.06C181.67 62.06 180.361 61.023 180.361 59.153C180.361 58.728 180.412 58.371 180.48 58.031ZM180.888 47.117H190.153C190.425 47.117 190.544 47.236 190.544 47.508V48.29C190.544 48.562 190.425 48.681 190.153 48.681H180.888C180.616 48.681 180.497 48.562 180.497 48.29V47.508C180.497 47.236 180.616 47.117 180.888 47.117ZM202.225 58.745C202.514 58.694 202.667 58.83 202.667 59.119V60.088C202.667 60.377 202.548 60.496 202.242 60.547C201.103 60.717 199.488 60.785 197.89 60.785C196.241 60.785 194.966 60.7 193.827 60.53C193.521 60.479 193.402 60.36 193.402 60.088V59.085C193.402 58.796 193.572 58.677 193.861 58.728C195 58.898 196.241 59 197.89 59C199.488 59 201.086 58.915 202.225 58.745ZM194.133 51.877C194.133 49.072 195.612 47.304 197.958 47.304C200.304 47.304 201.783 49.072 201.783 51.877C201.783 54.682 200.287 56.467 197.958 56.467C195.629 56.467 194.133 54.682 194.133 51.877ZM197.958 54.648C199.114 54.648 199.828 53.526 199.828 51.877C199.828 50.228 199.114 49.123 197.958 49.123C196.802 49.123 196.088 50.228 196.088 51.877C196.088 53.526 196.802 54.648 197.958 54.648ZM205.659 61.346C205.659 61.635 205.489 61.805 205.217 61.805H204.146C203.874 61.805 203.704 61.635 203.704 61.346V47.202C203.704 46.913 203.874 46.743 204.146 46.743H205.217C205.489 46.743 205.659 46.913 205.659 47.202V61.346ZM49.2351 74.01C51.7001 74.01 52.5841 73.67 52.5841 72.854C52.5841 72.021 51.7171 71.698 49.2351 71.698C46.7531 71.698 45.8861 72.021 45.8861 72.854C45.8861 73.67 46.7701 74.01 49.2351 74.01ZM51.2921 83.139C52.0231 83.139 52.5841 82.578 52.5841 81.847C52.5841 81.337 52.2441 81.048 51.6661 81.048H46.1921C45.9371 81.048 45.8011 81.167 45.8011 81.439V82.629C45.8011 82.969 46.0221 83.139 46.4301 83.139H51.2921ZM43.1491 76.492C44.7131 76.577 47.0931 76.662 49.0821 76.662C51.8531 76.662 53.8081 76.645 55.0661 76.509C55.3551 76.475 55.5251 76.628 55.5251 76.917V77.835C55.5251 78.124 55.4061 78.26 55.1001 78.294C53.8761 78.43 51.4621 78.464 49.0821 78.447C45.9711 78.43 44.1351 78.396 43.1151 78.277C42.8261 78.243 42.6901 78.107 42.6901 77.818V76.9C42.6901 76.611 42.8601 76.475 43.1491 76.492ZM43.9311 72.854C43.9311 70.865 45.5461 69.947 49.2351 69.947C52.9241 69.947 54.5391 70.865 54.5391 72.854C54.5391 74.843 52.9241 75.761 49.2351 75.761C45.5291 75.761 43.9311 74.86 43.9311 72.854ZM53.2981 83.105H54.3521C54.6411 83.105 54.7771 83.241 54.7771 83.53V84.465C54.7771 84.754 54.6411 84.89 54.3521 84.89H45.5631C44.4751 84.89 43.8461 84.363 43.8461 83.428V80.062C43.8461 79.552 44.0841 79.297 44.5941 79.297H52.6351C53.7911 79.297 54.5391 79.926 54.5391 80.963C54.5391 81.847 54.0461 82.68 53.2981 83.105ZM69.0081 84.448C68.9741 84.737 68.8041 84.89 68.5151 84.89H67.4951C67.2061 84.89 67.0191 84.703 67.0531 84.431C67.1211 83.853 67.1381 82.918 67.1381 82.255C67.1381 81.167 66.7811 80.844 65.5741 80.844C63.1431 80.844 61.0861 80.946 58.9951 81.133C58.7061 81.167 58.5701 81.014 58.5701 80.725V79.79C58.5701 79.518 58.6891 79.382 58.9951 79.348C60.7971 79.161 63.0581 79.059 65.7781 79.059C68.1241 79.059 69.0931 79.841 69.0931 81.762C69.0931 82.901 69.0761 83.853 69.0081 84.448ZM62.1571 70.593V72.616C62.1571 74.503 63.2451 75.948 64.7411 75.948C65.0301 75.948 65.1661 76.084 65.1661 76.373V77.308C65.1661 77.597 65.0301 77.733 64.7411 77.733C62.9731 77.733 61.6471 76.56 61.1881 75.217C60.7121 76.56 59.4031 77.733 57.6181 77.733C57.3291 77.733 57.1931 77.597 57.1931 77.308V76.373C57.1931 76.084 57.3291 75.948 57.6181 75.948C59.1141 75.948 60.2021 74.503 60.2021 72.616V70.593C60.2021 70.304 60.3721 70.134 60.6441 70.134H61.7151C61.9871 70.134 62.1571 70.304 62.1571 70.593ZM67.1891 70.202C67.1891 69.913 67.3591 69.743 67.6311 69.743H68.7021C68.9741 69.743 69.1441 69.913 69.1441 70.202V77.376C69.1441 77.665 68.9741 77.835 68.7021 77.835H67.6311C67.3591 77.835 67.1891 77.665 67.1891 77.376V70.202ZM83.4424 84.771C82.2014 84.941 80.1444 85.06 78.8524 85.06C73.9054 85.06 72.7494 84.652 72.7494 82.901C72.7494 81.269 73.8374 80.81 77.8664 80.81C78.7844 80.81 79.7704 80.844 80.6544 80.81C81.2834 80.793 81.5044 80.674 81.5044 80.317C81.5044 79.943 81.3004 79.79 80.7054 79.79C78.9884 79.79 75.3504 79.909 73.4634 80.028C73.2084 80.045 73.0894 79.909 73.0894 79.637V78.872C73.0894 78.617 73.1914 78.498 73.4634 78.481C74.5344 78.413 75.7754 78.362 77.0334 78.311V77.852C77.0334 77.665 77.1014 77.512 77.2374 77.427C75.5374 77.427 73.2764 77.376 71.9844 77.257C71.7294 77.24 71.5934 77.104 71.5934 76.849V76.016C71.5934 75.744 71.7464 75.625 72.0184 75.642C73.0894 75.727 74.8744 75.795 77.9854 75.812C80.3654 75.829 82.7794 75.795 84.0034 75.659C84.2754 75.625 84.4284 75.761 84.4284 76.033V76.849C84.4284 77.121 84.3094 77.24 84.0374 77.274C82.7964 77.393 80.7394 77.427 79.4134 77.427C79.1244 77.427 78.9884 77.58 78.9884 77.852V78.277C80.0594 78.26 81.0794 78.26 81.8784 78.277C83.0174 78.311 83.4424 78.685 83.4424 79.518C83.4424 80.198 83.0174 80.742 82.3374 80.963H82.9494C83.2044 80.963 83.3064 81.082 83.3064 81.337V82.034C83.3064 82.306 83.1874 82.425 82.9494 82.408C81.8954 82.357 80.2124 82.34 77.9004 82.34C75.0614 82.34 74.7044 82.425 74.7044 82.935C74.7044 83.53 75.3844 83.53 78.8354 83.53C80.0934 83.53 82.0484 83.411 83.3234 83.241C83.5784 83.207 83.7144 83.326 83.7314 83.581L83.7824 84.346C83.7994 84.618 83.6974 84.737 83.4424 84.771ZM81.9974 73.483H83.0344C83.3064 73.483 83.4254 73.602 83.4254 73.874V74.707C83.4254 74.962 83.3064 75.098 83.0344 75.098H74.5684C73.5824 75.098 73.0044 74.622 73.0044 73.772V70.814C73.0044 70.355 73.2254 70.117 73.6844 70.117H81.5384C82.5584 70.117 83.1874 70.678 83.1874 71.579C83.1874 72.378 82.6774 73.092 81.9974 73.483ZM80.0934 73.517C80.7394 73.517 81.2324 73.024 81.2324 72.378C81.2324 71.936 80.9604 71.698 80.4674 71.698H75.3164C75.0784 71.698 74.9594 71.817 74.9594 72.055V73.058C74.9594 73.364 75.1634 73.517 75.5374 73.517H80.0934ZM97.6271 78.923C96.4541 78.923 95.6041 78.277 95.2471 77.155C94.7881 78.243 93.8021 78.923 92.6461 78.923C92.3231 78.923 92.0511 78.906 92.0511 78.498V77.444C92.0511 77.189 92.2041 77.053 92.5271 77.053C93.6661 77.053 94.3291 76.118 94.3291 74.52V71.086C94.3291 70.797 94.4991 70.627 94.7711 70.627H95.8421C96.1141 70.627 96.2841 70.797 96.2841 71.086V74.86C96.2841 76.339 96.7261 77.053 97.6271 77.053C98.5281 77.053 98.9701 76.339 98.9701 74.86V71.086C98.9701 70.797 99.1401 70.627 99.4121 70.627H100.483C100.755 70.627 100.925 70.797 100.925 71.086V74.52C100.925 76.118 101.588 77.053 102.727 77.053C103.05 77.053 103.203 77.189 103.203 77.444V78.498C103.203 78.906 102.931 78.923 102.608 78.923C101.452 78.923 100.466 78.243 100.007 77.155C99.6501 78.277 98.8001 78.923 97.6271 78.923ZM91.6091 81.371C93.2241 81.558 95.1791 81.66 97.5421 81.66C99.9731 81.66 102.2 81.558 103.526 81.388C103.815 81.354 103.985 81.507 103.985 81.796V82.731C103.985 83.02 103.866 83.139 103.56 83.19C102.404 83.377 100.143 83.479 97.5421 83.479C94.8391 83.479 92.8501 83.377 91.5751 83.173C91.2691 83.122 91.1501 82.986 91.1501 82.714V81.779C91.1501 81.49 91.3201 81.337 91.6091 81.371ZM109.444 80.827C110.107 80.827 110.889 80.64 111.671 80.3C111.739 80.266 111.807 80.249 111.858 80.249C111.994 80.249 112.096 80.351 112.164 80.538L112.47 81.558C112.555 81.813 112.47 81.966 112.164 82.085C111.246 82.442 110.226 82.663 109.308 82.663C106.792 82.663 105.534 81.422 105.534 79.093C105.534 76.73 106.435 75.676 108.645 75.676C109.682 75.676 110.073 75.2 110.073 74.18C110.073 73.024 109.648 72.65 108.509 72.65C107.914 72.65 107.455 72.718 106.469 72.905C106.197 72.956 106.044 72.82 106.044 72.548V71.46C106.044 71.205 106.146 71.086 106.435 71.035C107.2 70.899 108.084 70.814 108.883 70.814C111.11 70.814 112.198 71.664 112.198 73.296C112.198 74.35 111.671 75.251 110.957 75.795H111.654C111.926 75.795 111.977 75.914 111.977 76.186V77.104C111.977 77.376 111.926 77.495 111.654 77.495C111.076 77.495 110.481 77.478 109.41 77.478C108.118 77.478 107.404 77.971 107.404 79.161C107.404 80.317 107.982 80.827 109.444 80.827ZM112.98 75.625H113.728C114.119 75.625 114.238 75.506 114.238 75.166V70.338C114.238 70.049 114.374 69.913 114.663 69.913H115.683C115.972 69.913 116.108 70.049 116.108 70.338V84.38C116.108 84.669 115.972 84.805 115.683 84.805H114.663C114.374 84.805 114.238 84.669 114.238 84.38V77.189C114.136 77.376 113.898 77.495 113.66 77.495H112.98C112.691 77.495 112.555 77.359 112.555 77.07V76.05C112.555 75.761 112.691 75.625 112.98 75.625ZM119.083 70.168V84.38C119.083 84.669 118.947 84.805 118.658 84.805H117.638C117.349 84.805 117.213 84.669 117.213 84.38V70.168C117.213 69.879 117.349 69.743 117.638 69.743H118.658C118.947 69.743 119.083 69.879 119.083 70.168ZM128.315 82.085C128.264 82.374 128.128 82.493 127.839 82.493H126.751C126.445 82.493 126.275 82.306 126.326 82.034C126.768 79.569 126.972 77.138 126.972 74.656C126.972 73.211 126.513 72.701 125.238 72.701C123.997 72.701 123.028 72.854 121.906 73.007C121.634 73.041 121.464 72.854 121.464 72.565V71.579C121.464 71.307 121.6 71.154 121.889 71.12C123.198 70.933 124.388 70.814 125.612 70.814C127.992 70.814 128.944 71.851 128.944 74.469C128.944 77.155 128.74 79.586 128.315 82.085ZM131.205 70.202C131.205 69.913 131.375 69.743 131.647 69.743H132.718C132.99 69.743 133.16 69.913 133.16 70.202V84.346C133.16 84.635 132.99 84.805 132.718 84.805H131.647C131.375 84.805 131.205 84.635 131.205 84.346V70.202ZM142.426 82.085C142.375 82.374 142.239 82.493 141.95 82.493H140.862C140.556 82.493 140.386 82.306 140.437 82.034C140.879 79.569 141.083 77.138 141.083 74.656C141.083 73.211 140.624 72.701 139.349 72.701C138.108 72.701 137.139 72.854 136.017 73.007C135.745 73.041 135.575 72.854 135.575 72.565V71.579C135.575 71.307 135.711 71.154 136 71.12C137.309 70.933 138.499 70.814 139.723 70.814C142.103 70.814 143.055 71.851 143.055 74.469C143.055 77.155 142.851 79.586 142.426 82.085ZM146.931 84.346C146.931 84.635 146.761 84.805 146.489 84.805H145.418C145.146 84.805 144.976 84.635 144.976 84.346V70.202C144.976 69.913 145.146 69.743 145.418 69.743H146.489C146.761 69.743 146.931 69.913 146.931 70.202V76.033C147.05 75.812 147.288 75.693 147.628 75.693H148.631C148.92 75.693 149.056 75.829 149.056 76.118V77.138C149.056 77.427 148.92 77.563 148.631 77.563H147.526C147.118 77.563 146.931 77.733 146.931 78.107V84.346ZM157.087 73.313L157.155 74.69C157.172 75.047 157.325 75.183 157.699 75.183H159.892C160.266 75.183 160.419 75.047 160.436 74.69L160.504 73.313H157.087ZM166.59 84.771C165.179 84.941 163.394 85.06 162.272 85.06C157.512 85.06 156.254 84.584 156.254 82.765C156.254 81.065 157.427 80.555 161.286 80.555C162.204 80.555 162.867 80.538 163.785 80.538C164.38 80.538 164.669 80.368 164.669 79.994C164.669 79.603 164.414 79.433 163.836 79.433C162.136 79.433 158.872 79.552 156.985 79.671C156.73 79.688 156.594 79.552 156.594 79.28V78.43C156.594 78.175 156.713 78.056 156.985 78.039C159.518 77.869 162.867 77.784 165.077 77.852C166.131 77.886 166.607 78.362 166.607 79.212C166.607 79.892 166.182 80.47 165.502 80.708H166.097C166.352 80.708 166.471 80.827 166.471 81.082V81.864C166.471 82.119 166.352 82.238 166.097 82.238C164.873 82.204 163.343 82.17 161.32 82.17C158.617 82.17 158.209 82.255 158.209 82.799C158.209 83.394 158.804 83.445 162.255 83.445C163.411 83.445 165.111 83.343 166.471 83.156C166.726 83.122 166.879 83.241 166.896 83.496L166.947 84.346C166.964 84.601 166.862 84.737 166.59 84.771ZM157.121 76.883C155.948 76.883 155.285 76.288 155.234 75.251L154.979 70.593C154.962 70.321 155.132 70.134 155.421 70.134H156.475C156.781 70.134 156.934 70.27 156.951 70.542L157.002 71.613H160.589L160.64 70.542C160.657 70.27 160.81 70.134 161.116 70.134H162.17C162.459 70.134 162.629 70.321 162.612 70.593L162.357 75.251C162.306 76.288 161.643 76.883 160.47 76.883H157.121ZM166.488 76.526C166.488 76.815 166.318 76.985 166.046 76.985H164.975C164.703 76.985 164.533 76.815 164.533 76.526V70.202C164.533 69.913 164.703 69.743 164.975 69.743H166.046C166.318 69.743 166.488 69.913 166.488 70.202V72.548C166.607 72.327 166.845 72.208 167.185 72.208H168.188C168.477 72.208 168.613 72.344 168.613 72.633V73.568C168.613 73.857 168.477 73.993 168.188 73.993H167.083C166.675 73.993 166.488 74.163 166.488 74.537V76.526ZM171.641 81.847C171.641 79.705 173.579 78.617 177.455 78.617C181.331 78.617 183.269 79.705 183.269 81.847C183.269 83.989 181.331 85.077 177.455 85.077C173.579 85.077 171.641 83.989 171.641 81.847ZM182.929 70.168V77.41C182.929 77.699 182.793 77.835 182.504 77.835H181.484C181.195 77.835 181.059 77.699 181.059 77.41V74.469H180.124C179.733 74.469 179.614 74.588 179.614 74.928V77.07C179.614 77.359 179.478 77.495 179.189 77.495H178.169C177.88 77.495 177.744 77.359 177.744 77.07V70.338C177.744 70.049 177.88 69.913 178.169 69.913H179.189C179.478 69.913 179.614 70.049 179.614 70.338V72.905C179.733 72.718 179.954 72.599 180.192 72.599H181.059V70.168C181.059 69.879 181.195 69.743 181.484 69.743H182.504C182.793 69.743 182.929 69.879 182.929 70.168ZM173.035 75.268C172.559 76.543 171.233 77.393 169.89 77.393C169.618 77.393 169.499 77.24 169.499 76.968V76.033C169.499 75.744 169.635 75.608 169.924 75.608C171.216 75.608 172.1 74.469 172.1 72.905V70.559C172.1 70.27 172.236 70.134 172.525 70.134H173.545C173.834 70.134 173.97 70.27 173.97 70.559V72.905C173.97 74.469 174.854 75.608 176.146 75.608C176.435 75.608 176.571 75.744 176.571 76.033V76.968C176.571 77.24 176.452 77.393 176.18 77.393C174.837 77.393 173.511 76.543 173.035 75.268ZM173.596 81.847C173.596 82.731 174.633 83.292 177.455 83.292C180.277 83.292 181.314 82.731 181.314 81.847C181.314 80.963 180.277 80.402 177.455 80.402C174.633 80.402 173.596 80.963 173.596 81.847ZM189.019 75.982C187.914 75.982 187.268 76.764 187.268 78.294C187.268 79.824 187.931 80.623 189.019 80.623C190.124 80.623 190.787 79.841 190.787 78.294C190.787 76.764 190.124 75.982 189.019 75.982ZM192.742 78.294C192.742 80.963 191.365 82.493 189.019 82.493C186.69 82.493 185.313 80.963 185.313 78.294C185.313 75.625 186.673 74.112 189.019 74.112C191.365 74.112 192.742 75.608 192.742 78.294ZM196.669 84.346C196.669 84.635 196.499 84.805 196.227 84.805H195.156C194.884 84.805 194.714 84.635 194.714 84.346V70.202C194.714 69.913 194.884 69.743 195.156 69.743H196.227C196.499 69.743 196.669 69.913 196.669 70.202V76.033C196.788 75.812 197.026 75.693 197.366 75.693H198.369C198.658 75.693 198.794 75.829 198.794 76.118V77.138C198.794 77.427 198.658 77.563 198.369 77.563H197.264C196.856 77.563 196.669 77.733 196.669 78.107V84.346ZM190.413 71.154H192.827C193.116 71.154 193.252 71.29 193.252 71.579V72.599C193.252 72.888 193.116 73.024 192.827 73.024H185.228C184.939 73.024 184.803 72.888 184.803 72.599V71.579C184.803 71.29 184.939 71.154 185.228 71.154H188.356C188.203 71.069 188.101 70.916 188.101 70.695V69.76C188.101 69.471 188.237 69.335 188.526 69.335H189.631C189.92 69.335 190.056 69.471 190.056 69.76V70.848C190.056 71.069 190.158 71.154 190.413 71.154ZM203.556 80.623C204.695 80.623 205.443 79.008 205.443 76.441C205.443 73.602 205.001 72.684 203.726 72.684H202.468C202.213 72.684 202.06 72.82 202.06 73.092V80.079C202.06 80.419 202.315 80.623 202.723 80.623H203.556ZM204.219 70.814C206.582 70.814 207.398 71.902 207.398 75.047C207.398 77.495 206.803 79.518 205.817 80.623H206.871C207.16 80.623 207.296 80.759 207.296 81.048V82.068C207.296 82.357 207.16 82.493 206.871 82.493H201.856C200.768 82.493 200.105 81.932 200.105 80.997V71.613C200.105 71.103 200.377 70.814 200.887 70.814H204.219ZM209.846 72.361V70.202C209.846 69.913 210.016 69.743 210.288 69.743H211.359C211.631 69.743 211.801 69.913 211.801 70.202V84.346C211.801 84.635 211.631 84.805 211.359 84.805H210.288C210.016 84.805 209.846 84.635 209.846 84.346V79.705C209.727 79.926 209.489 80.045 209.149 80.045H208.384C208.095 80.045 207.959 79.909 207.959 79.62V78.6C207.959 78.311 208.095 78.175 208.384 78.175H209.251C209.659 78.175 209.846 78.005 209.846 77.631V74.435C209.727 74.656 209.489 74.775 209.149 74.775H208.384C208.095 74.775 207.959 74.639 207.959 74.35V73.33C207.959 73.041 208.095 72.905 208.384 72.905H209.251C209.659 72.905 209.846 72.735 209.846 72.361ZM215.56 82.748C216.359 82.748 216.852 83.258 216.852 84.108C216.852 85.468 215.934 86.318 214.642 86.318C214.523 86.318 214.472 86.25 214.472 86.131V85.774C214.472 85.655 214.523 85.587 214.642 85.587C215.016 85.587 215.22 85.468 215.322 85.179C214.71 85.094 214.285 84.618 214.285 83.972C214.285 83.224 214.795 82.748 215.56 82.748ZM59.6069 99.73C59.6069 103.929 58.4169 105.833 55.7819 105.833C53.1639 105.833 51.9739 103.929 51.9739 99.73C51.9739 95.514 53.1469 93.644 55.7819 93.644C58.4339 93.644 59.6069 95.514 59.6069 99.73ZM55.7819 95.514C54.4899 95.514 53.9289 96.738 53.9289 99.73C53.9289 102.722 54.4899 103.963 55.7819 103.963C57.0909 103.963 57.6519 102.739 57.6519 99.73C57.6519 96.738 57.0909 95.514 55.7819 95.514ZM61.8849 93.202C61.8849 92.913 62.0549 92.743 62.3269 92.743H63.3979C63.6699 92.743 63.8399 92.913 63.8399 93.202V107.346C63.8399 107.635 63.6699 107.805 63.3979 107.805H62.3269C62.0549 107.805 61.8849 107.635 61.8849 107.346V93.202ZM67.8192 93.559C67.8532 93.27 68.0402 93.117 68.3292 93.117H69.3662C69.6552 93.117 69.7912 93.304 69.7742 93.576C69.7062 94.358 69.6552 95.616 69.6552 96.211C69.6552 97.146 70.1652 97.588 71.2702 97.588C73.9392 97.588 75.7072 97.486 77.7132 97.299C77.9852 97.265 78.1382 97.401 78.1552 97.707L78.2232 98.642C78.2402 98.897 78.1042 99.033 77.8152 99.067C76.1322 99.237 73.7862 99.373 71.1512 99.373C68.9242 99.373 67.7002 98.251 67.7002 96.296C67.7002 95.616 67.7512 94.324 67.8192 93.559ZM67.5642 103.691C67.6152 103.402 67.7852 103.249 68.0742 103.249H69.1112C69.4002 103.249 69.5702 103.436 69.5192 103.708C69.4512 104.065 69.4002 104.473 69.4002 104.898C69.4002 105.833 69.9102 106.275 71.0152 106.275C74.0242 106.275 75.9622 106.173 77.9682 105.986C78.2402 105.952 78.3932 106.088 78.4102 106.394L78.4782 107.329C78.4952 107.584 78.3592 107.72 78.0702 107.754C76.3872 107.924 73.8712 108.06 71.0662 108.06C68.7542 108.06 67.4452 106.938 67.4452 104.983C67.4452 104.473 67.4962 104.031 67.5642 103.691ZM66.7482 100.342C68.3122 100.427 70.6922 100.512 72.6812 100.512C75.4522 100.512 77.4072 100.495 78.6652 100.359C78.9542 100.325 79.1242 100.478 79.1242 100.767V101.685C79.1242 101.974 79.0052 102.11 78.6992 102.144C77.4752 102.28 75.0612 102.314 72.6812 102.297C69.5702 102.28 67.7342 102.246 66.7142 102.127C66.4252 102.093 66.2892 101.957 66.2892 101.668V100.75C66.2892 100.461 66.4592 100.325 66.7482 100.342ZM86.0669 94.919C85.7779 94.919 85.6419 94.783 85.6419 94.494V93.559C85.6419 93.27 85.7779 93.134 86.0669 93.134H93.0369C93.3259 93.134 93.4619 93.27 93.4619 93.559V94.494C93.4619 94.783 93.3259 94.919 93.0369 94.919H90.5209V95.956C90.5209 97.843 91.6089 99.288 93.1049 99.288C93.3939 99.288 93.5299 99.424 93.5299 99.713V100.648C93.5299 100.937 93.3939 101.073 93.1049 101.073C91.3369 101.073 90.0109 99.9 89.5519 98.557C89.0759 99.9 87.7669 101.073 85.9819 101.073C85.6929 101.073 85.5569 100.937 85.5569 100.648V99.713C85.5569 99.424 85.6929 99.288 85.9819 99.288C87.4779 99.288 88.5659 97.843 88.5659 95.956V94.919H86.0669ZM87.2059 103.011C87.2569 102.722 87.4099 102.569 87.6989 102.569H88.7189C89.0079 102.569 89.1949 102.756 89.1609 103.028C89.1099 103.436 89.0589 104.048 89.0589 104.711C89.0589 105.731 89.7219 106.275 90.7589 106.275C93.7679 106.275 95.4509 106.173 97.4569 105.986C97.7289 105.952 97.8819 106.088 97.8989 106.394L97.9669 107.329C97.9839 107.584 97.8479 107.72 97.5589 107.754C95.8759 107.924 93.6489 108.06 90.8439 108.06C88.4809 108.06 87.1039 106.87 87.1039 104.898C87.1039 104.184 87.1379 103.436 87.2059 103.011ZM95.5529 93.202C95.5529 92.913 95.7229 92.743 95.9949 92.743H97.0659C97.3379 92.743 97.5079 92.913 97.5079 93.202V102.756C97.5079 103.045 97.3379 103.215 97.0659 103.215H95.9949C95.7229 103.215 95.5529 103.045 95.5529 102.756V97.622C95.4339 97.843 95.1959 97.962 94.8559 97.962H93.6659C93.3769 97.962 93.2409 97.826 93.2409 97.537V96.602C93.2409 96.313 93.3769 96.177 93.6659 96.177H94.9579C95.3659 96.177 95.5529 96.007 95.5529 95.633V93.202ZM104.02 92.76V93.848C104.02 94.069 104.122 94.154 104.377 94.154H106.145C106.434 94.154 106.57 94.29 106.57 94.579V95.599C106.57 95.888 106.434 96.024 106.145 96.024H104.003V100.206C104.003 102.263 104.921 103.453 106.23 103.623C106.519 103.657 106.655 103.759 106.655 104.048V105.068C106.655 105.374 106.519 105.527 106.23 105.493C104.751 105.306 103.544 104.405 103.068 102.96C102.592 104.405 101.402 105.306 99.9232 105.493C99.6342 105.527 99.4982 105.374 99.4982 105.068V104.048C99.4982 103.759 99.6342 103.657 99.9232 103.623C101.232 103.453 102.133 102.263 102.133 100.206V96.024H100.008C99.7192 96.024 99.5832 95.888 99.5832 95.599V94.579C99.5832 94.29 99.7192 94.154 100.008 94.154H102.405C102.252 94.069 102.15 93.916 102.15 93.695V92.76C102.15 92.471 102.286 92.335 102.575 92.335H103.595C103.884 92.335 104.02 92.471 104.02 92.76ZM106.196 98.795H107.743C108.134 98.795 108.253 98.676 108.253 98.336V93.338C108.253 93.049 108.389 92.913 108.678 92.913H109.698C109.987 92.913 110.123 93.049 110.123 93.338V107.38C110.123 107.669 109.987 107.805 109.698 107.805H108.678C108.389 107.805 108.253 107.669 108.253 107.38V100.359C108.151 100.546 107.913 100.665 107.675 100.665H106.196C105.907 100.665 105.771 100.529 105.771 100.24V99.22C105.771 98.931 105.907 98.795 106.196 98.795ZM113.098 93.168V107.38C113.098 107.669 112.962 107.805 112.673 107.805H111.653C111.364 107.805 111.228 107.669 111.228 107.38V93.168C111.228 92.879 111.364 92.743 111.653 92.743H112.673C112.962 92.743 113.098 92.879 113.098 93.168ZM121.961 104.847C121.961 102.705 123.899 101.617 127.775 101.617C131.651 101.617 133.589 102.705 133.589 104.847C133.589 106.989 131.651 108.077 127.775 108.077C123.899 108.077 121.961 106.989 121.961 104.847ZM133.249 93.168V100.41C133.249 100.699 133.113 100.835 132.824 100.835H131.804C131.515 100.835 131.379 100.699 131.379 100.41V97.469H130.444C130.053 97.469 129.934 97.588 129.934 97.928V100.07C129.934 100.359 129.798 100.495 129.509 100.495H128.489C128.2 100.495 128.064 100.359 128.064 100.07V93.338C128.064 93.049 128.2 92.913 128.489 92.913H129.509C129.798 92.913 129.934 93.049 129.934 93.338V95.905C130.053 95.718 130.274 95.599 130.512 95.599H131.379V93.168C131.379 92.879 131.515 92.743 131.804 92.743H132.824C133.113 92.743 133.249 92.879 133.249 93.168ZM123.355 98.268C122.879 99.543 121.553 100.393 120.21 100.393C119.938 100.393 119.819 100.24 119.819 99.968V99.033C119.819 98.744 119.955 98.608 120.244 98.608C121.536 98.608 122.42 97.469 122.42 95.905V93.559C122.42 93.27 122.556 93.134 122.845 93.134H123.865C124.154 93.134 124.29 93.27 124.29 93.559V95.905C124.29 97.469 125.174 98.608 126.466 98.608C126.755 98.608 126.891 98.744 126.891 99.033V99.968C126.891 100.24 126.772 100.393 126.5 100.393C125.157 100.393 123.831 99.543 123.355 98.268ZM123.916 104.847C123.916 105.731 124.953 106.292 127.775 106.292C130.597 106.292 131.634 105.731 131.634 104.847C131.634 103.963 130.597 103.402 127.775 103.402C124.953 103.402 123.916 103.963 123.916 104.847ZM147.125 107.771C145.952 107.924 143.81 108.06 142.433 108.06C137.35 108.06 136.245 107.72 136.245 106.071C136.245 104.507 137.367 104.116 141.447 104.116C142.45 104.116 143.436 104.133 144.32 104.116C144.949 104.099 145.17 103.98 145.17 103.674C145.17 103.351 144.966 103.249 144.371 103.249C142.501 103.249 138.693 103.351 136.942 103.47C136.687 103.487 136.585 103.368 136.585 103.096V102.365C136.585 102.11 136.67 102.008 136.942 101.991C139.458 101.838 143.317 101.719 145.544 101.787C146.7 101.821 147.108 102.11 147.108 102.875C147.108 103.521 146.683 104.048 146.003 104.269H146.615C146.836 104.269 146.972 104.354 146.972 104.507V105.272C146.972 105.544 146.853 105.663 146.615 105.646C145.646 105.578 143.997 105.578 141.481 105.578C138.642 105.578 138.2 105.612 138.2 106.071C138.2 106.496 138.727 106.598 142.416 106.598C143.725 106.598 145.782 106.479 147.006 106.309C147.261 106.275 147.38 106.377 147.397 106.632L147.448 107.363C147.465 107.635 147.38 107.737 147.125 107.771ZM135.803 97.061C135.803 95.837 136.925 95.276 139.509 95.276C142.093 95.276 143.215 95.837 143.215 97.061C143.215 98.166 142.331 98.744 140.393 98.863V99.169C140.393 99.441 140.563 99.577 140.869 99.577C142.042 99.577 143.164 99.543 143.793 99.492C144.082 99.475 144.167 99.577 144.167 99.849V100.614C144.167 100.903 144.116 101.022 143.81 101.039C142.705 101.107 140.988 101.158 139.39 101.158C137.741 101.158 136.398 101.107 135.259 101.022C134.953 101.005 134.902 100.886 134.902 100.614V99.815C134.902 99.543 135.004 99.458 135.293 99.475C136.024 99.543 137.469 99.594 138.71 99.628C138.54 99.526 138.438 99.356 138.438 99.118V98.863C136.636 98.71 135.803 98.132 135.803 97.061ZM146.989 100.716C146.989 101.005 146.819 101.175 146.547 101.175H145.476C145.204 101.175 145.034 101.005 145.034 100.716V93.202C145.034 92.913 145.204 92.743 145.476 92.743H146.547C146.819 92.743 146.989 92.913 146.989 93.202V96.058C147.108 95.837 147.346 95.718 147.686 95.718H148.689C148.978 95.718 149.114 95.854 149.114 96.143V97.078C149.114 97.367 148.978 97.503 148.689 97.503H147.584C147.176 97.503 146.989 97.673 146.989 98.047V100.716ZM138.557 92.369C138.557 92.097 138.659 91.995 138.948 91.995H140.121C140.41 91.995 140.512 92.097 140.512 92.369V92.947C140.512 93.151 140.597 93.219 140.852 93.219H143.402C143.64 93.219 143.742 93.355 143.742 93.576V94.341C143.742 94.562 143.64 94.698 143.402 94.698H135.633C135.395 94.698 135.293 94.562 135.293 94.341V93.576C135.293 93.355 135.395 93.219 135.633 93.219H138.761C138.625 93.151 138.557 92.998 138.557 92.811V92.369ZM137.758 97.061C137.758 97.401 138.166 97.537 139.509 97.537C140.852 97.537 141.26 97.401 141.26 97.061C141.26 96.738 140.903 96.636 139.509 96.636C138.115 96.636 137.758 96.738 137.758 97.061ZM150.255 95.684C149.966 95.684 149.83 95.548 149.83 95.259V94.239C149.83 93.95 149.966 93.814 150.255 93.814H156.63C156.919 93.814 157.055 93.95 157.055 94.239V95.259C157.055 95.548 156.919 95.684 156.63 95.684H156.052L155.763 103.521C156.171 103.487 156.545 103.453 156.851 103.419C157.14 103.385 157.276 103.555 157.276 103.844V104.864C157.276 105.153 157.14 105.255 156.851 105.289C156.137 105.391 154.692 105.493 153.434 105.493C152.176 105.493 150.918 105.391 150.034 105.289C149.745 105.255 149.609 105.153 149.609 104.864V103.844C149.609 103.555 149.745 103.385 150.034 103.419C150.34 103.453 150.714 103.487 151.122 103.521L150.833 95.684H150.255ZM158.755 100.172V98.149C158.653 98.285 158.5 98.37 158.296 98.37H157.293C157.004 98.37 156.868 98.234 156.868 97.945V96.925C156.868 96.636 157.004 96.5 157.293 96.5H158.33C158.602 96.5 158.755 96.364 158.755 96.092V93.338C158.755 93.049 158.891 92.913 159.18 92.913H160.2C160.489 92.913 160.625 93.049 160.625 93.338V107.38C160.625 107.669 160.489 107.805 160.2 107.805H159.18C158.891 107.805 158.755 107.669 158.755 107.38V102.229C158.653 102.365 158.5 102.45 158.296 102.45H157.293C157.004 102.45 156.868 102.314 156.868 102.025V101.005C156.868 100.716 157.004 100.58 157.293 100.58H158.33C158.602 100.58 158.755 100.444 158.755 100.172ZM163.6 93.168V107.38C163.6 107.669 163.464 107.805 163.175 107.805H162.155C161.866 107.805 161.73 107.669 161.73 107.38V93.168C161.73 92.879 161.866 92.743 162.155 92.743H163.175C163.464 92.743 163.6 92.879 163.6 93.168ZM152.941 103.623H153.944L154.233 95.684H152.652L152.941 103.623ZM172.832 105.085C172.781 105.374 172.645 105.493 172.356 105.493H171.268C170.962 105.493 170.792 105.306 170.843 105.034C171.285 102.569 171.489 100.138 171.489 97.656C171.489 96.211 171.03 95.701 169.755 95.701C168.514 95.701 167.545 95.854 166.423 96.007C166.151 96.041 165.981 95.854 165.981 95.565V94.579C165.981 94.307 166.117 94.154 166.406 94.12C167.715 93.933 168.905 93.814 170.129 93.814C172.509 93.814 173.461 94.851 173.461 97.469C173.461 100.155 173.257 102.586 172.832 105.085ZM175.722 93.202C175.722 92.913 175.892 92.743 176.164 92.743H177.235C177.507 92.743 177.677 92.913 177.677 93.202V107.346C177.677 107.635 177.507 107.805 177.235 107.805H176.164C175.892 107.805 175.722 107.635 175.722 107.346V93.202ZM191.975 107.771C190.734 107.941 188.677 108.06 187.385 108.06C182.438 108.06 181.282 107.652 181.282 105.901C181.282 104.269 182.37 103.81 186.399 103.81C187.317 103.81 188.303 103.844 189.187 103.81C189.816 103.793 190.037 103.674 190.037 103.317C190.037 102.943 189.833 102.79 189.238 102.79C187.521 102.79 183.883 102.909 181.996 103.028C181.741 103.045 181.622 102.909 181.622 102.637V101.872C181.622 101.617 181.724 101.498 181.996 101.481C183.067 101.413 184.308 101.362 185.566 101.311V100.852C185.566 100.665 185.634 100.512 185.77 100.427C184.07 100.427 181.809 100.376 180.517 100.257C180.262 100.24 180.126 100.104 180.126 99.849V99.016C180.126 98.744 180.279 98.625 180.551 98.642C181.622 98.727 183.407 98.795 186.518 98.812C188.898 98.829 191.312 98.795 192.536 98.659C192.808 98.625 192.961 98.761 192.961 99.033V99.849C192.961 100.121 192.842 100.24 192.57 100.274C191.329 100.393 189.272 100.427 187.946 100.427C187.657 100.427 187.521 100.58 187.521 100.852V101.277C188.592 101.26 189.612 101.26 190.411 101.277C191.55 101.311 191.975 101.685 191.975 102.518C191.975 103.198 191.55 103.742 190.87 103.963H191.482C191.737 103.963 191.839 104.082 191.839 104.337V105.034C191.839 105.306 191.72 105.425 191.482 105.408C190.428 105.357 188.745 105.34 186.433 105.34C183.594 105.34 183.237 105.425 183.237 105.935C183.237 106.53 183.917 106.53 187.368 106.53C188.626 106.53 190.581 106.411 191.856 106.241C192.111 106.207 192.247 106.326 192.264 106.581L192.315 107.346C192.332 107.618 192.23 107.737 191.975 107.771ZM190.53 96.483H191.567C191.839 96.483 191.958 96.602 191.958 96.874V97.707C191.958 97.962 191.839 98.098 191.567 98.098H183.101C182.115 98.098 181.537 97.622 181.537 96.772V93.814C181.537 93.355 181.758 93.117 182.217 93.117H190.071C191.091 93.117 191.72 93.678 191.72 94.579C191.72 95.378 191.21 96.092 190.53 96.483ZM188.626 96.517C189.272 96.517 189.765 96.024 189.765 95.378C189.765 94.936 189.493 94.698 189 94.698H183.849C183.611 94.698 183.492 94.817 183.492 95.055V96.058C183.492 96.364 183.696 96.517 184.07 96.517H188.626ZM203.146 104.745C203.435 104.694 203.588 104.83 203.588 105.119V106.088C203.588 106.377 203.469 106.496 203.163 106.547C202.024 106.717 200.409 106.785 198.811 106.785C197.162 106.785 195.887 106.7 194.748 106.53C194.442 106.479 194.323 106.36 194.323 106.088V105.085C194.323 104.796 194.493 104.677 194.782 104.728C195.921 104.898 197.162 105 198.811 105C200.409 105 202.007 104.915 203.146 104.745ZM195.054 97.877C195.054 95.072 196.533 93.304 198.879 93.304C201.225 93.304 202.704 95.072 202.704 97.877C202.704 100.682 201.208 102.467 198.879 102.467C196.55 102.467 195.054 100.682 195.054 97.877ZM198.879 100.648C200.035 100.648 200.749 99.526 200.749 97.877C200.749 96.228 200.035 95.123 198.879 95.123C197.723 95.123 197.009 96.228 197.009 97.877C197.009 99.526 197.723 100.648 198.879 100.648ZM206.58 107.346C206.58 107.635 206.41 107.805 206.138 107.805H205.067C204.795 107.805 204.625 107.635 204.625 107.346V93.202C204.625 92.913 204.795 92.743 205.067 92.743H206.138C206.41 92.743 206.58 92.913 206.58 93.202V107.346ZM81.1116 129.156C81.1116 126.929 82.1146 125.654 85.1576 123.988C87.5546 122.679 88.4896 121.676 88.4726 120.435C88.4556 119.177 87.5206 118.463 85.8886 118.463C84.1716 118.463 83.3046 119.228 83.3046 120.724C83.3046 121.013 83.1346 121.183 82.8626 121.183H81.7916C81.5196 121.183 81.3496 121.013 81.3496 120.724C81.3496 118.072 82.9816 116.593 85.8886 116.593C88.7786 116.593 90.4276 118.038 90.4276 120.588C90.4276 122.407 89.1526 124.022 86.6876 125.348C84.7496 126.385 83.6786 127.286 83.4576 128.085H90.5296C90.8186 128.085 90.9546 128.221 90.9546 128.51V129.53C90.9546 129.819 90.8186 129.955 90.5296 129.955H81.8936C81.3836 129.955 81.1116 129.666 81.1116 129.156ZM94.1403 122.662C95.1603 121.846 96.5543 121.421 97.8973 121.421C100.175 121.421 102.351 122.73 102.368 125.552C102.385 128.289 100.43 130.108 97.3873 130.125C93.8173 130.142 92.1513 128.068 92.1513 123.563C92.1513 118.939 93.9703 116.593 97.5403 116.593C99.9203 116.593 101.637 117.817 101.875 119.738C101.909 120.01 101.739 120.197 101.433 120.197H100.481C100.192 120.197 100.039 120.078 99.9373 119.823C99.5803 118.939 98.7133 118.429 97.5573 118.429C95.3303 118.429 94.3103 119.653 94.1403 122.662ZM100.413 125.62C100.413 123.971 99.0533 123.189 97.5743 123.189C96.3333 123.189 94.8543 123.699 94.1403 124.651C94.3103 127.286 95.2793 128.306 97.4723 128.306C99.3253 128.306 100.413 127.286 100.413 125.62ZM104.258 129.989C104.258 129.241 104.785 128.748 105.533 128.748C106.298 128.748 106.825 129.241 106.825 129.989C106.825 130.703 106.298 131.196 105.533 131.196C104.785 131.196 104.258 130.703 104.258 129.989ZM110.309 126.504C110.309 127.728 111.244 128.255 113.403 128.255C115.443 128.255 116.497 127.524 116.497 126.113C116.497 124.481 115.579 123.988 112.587 123.988C112.298 123.988 112.162 123.852 112.162 123.563V122.543C112.162 122.254 112.298 122.118 112.587 122.118C114.916 122.118 115.817 121.557 115.817 120.129C115.817 119.075 114.882 118.463 113.233 118.463C111.448 118.463 110.649 119.007 110.649 120.214C110.649 120.503 110.479 120.673 110.207 120.673H109.136C108.864 120.673 108.694 120.503 108.694 120.214C108.694 117.919 110.36 116.593 113.216 116.593C116.089 116.593 117.772 117.817 117.772 119.874C117.772 121.166 117.041 122.288 115.919 122.781C117.432 123.189 118.452 124.498 118.452 126.164C118.452 128.612 116.531 130.125 113.403 130.125C110.275 130.125 108.354 128.748 108.354 126.504C108.354 126.215 108.524 126.045 108.796 126.045H109.867C110.139 126.045 110.309 126.215 110.309 126.504ZM130.256 126.487C130.256 127.728 130.647 128.272 131.497 128.272C132.347 128.272 132.738 127.728 132.738 126.487C132.738 125.263 132.347 124.719 131.497 124.719C130.681 124.719 130.256 125.314 130.256 126.487ZM121.858 120.197C121.858 121.438 122.249 121.982 123.099 121.982C123.949 121.982 124.34 121.438 124.34 120.197C124.34 118.973 123.949 118.429 123.099 118.429C122.283 118.429 121.858 119.024 121.858 120.197ZM122.402 129.87L129.984 116.746C130.103 116.525 130.273 116.423 130.562 116.423H131.922C132.194 116.423 132.33 116.61 132.194 116.848L124.612 129.972C124.493 130.193 124.323 130.295 124.034 130.295H122.674C122.402 130.295 122.266 130.108 122.402 129.87ZM128.556 126.487C128.556 124.141 129.593 122.866 131.497 122.866C133.401 122.866 134.438 124.141 134.438 126.487C134.438 128.867 133.401 130.142 131.497 130.142C129.61 130.142 128.556 128.833 128.556 126.487ZM120.158 120.197C120.158 117.851 121.195 116.576 123.099 116.576C125.003 116.576 126.04 117.851 126.04 120.197C126.04 122.577 125.003 123.852 123.099 123.852C121.212 123.852 120.158 122.543 120.158 120.197ZM148.147 130.771C146.974 130.924 144.917 131.06 143.54 131.06C138.457 131.06 137.437 130.72 137.437 129.071C137.437 127.507 138.474 127.116 142.554 127.116C143.472 127.116 144.458 127.133 145.342 127.116C145.971 127.099 146.192 126.98 146.192 126.674C146.192 126.351 145.988 126.249 145.393 126.249C143.523 126.249 139.885 126.351 138.134 126.47C137.879 126.487 137.777 126.368 137.777 126.096V125.365C137.777 125.11 137.862 125.008 138.134 124.991C140.65 124.838 144.339 124.719 146.566 124.787C147.722 124.821 148.13 125.11 148.13 125.875C148.13 126.521 147.705 127.048 147.025 127.269H147.637C147.858 127.269 147.994 127.354 147.994 127.507V128.272C147.994 128.544 147.875 128.663 147.637 128.646C146.668 128.578 145.104 128.578 142.588 128.578C139.749 128.578 139.392 128.612 139.392 129.071C139.392 129.496 139.834 129.598 143.523 129.598C144.832 129.598 146.804 129.479 148.028 129.309C148.283 129.275 148.402 129.377 148.419 129.632L148.47 130.363C148.487 130.635 148.402 130.737 148.147 130.771ZM148.725 122.441C148.997 122.407 149.116 122.543 149.116 122.815V123.546C149.116 123.818 149.031 123.937 148.759 123.971C147.535 124.107 145.053 124.141 142.673 124.124C139.562 124.107 137.658 124.073 136.638 123.954C136.383 123.92 136.281 123.801 136.281 123.546V122.798C136.281 122.526 136.4 122.407 136.672 122.424C138.27 122.509 140.684 122.594 142.673 122.594C145.444 122.594 147.433 122.577 148.725 122.441ZM147.433 119.653C146.464 119.619 144.764 119.602 142.588 119.602C140.004 119.602 139.647 119.619 139.647 120.044C139.647 120.435 140.089 120.52 143.523 120.52C144.832 120.52 146.566 120.401 147.79 120.248C148.045 120.214 148.147 120.316 148.164 120.554L148.215 121.234C148.232 121.489 148.164 121.574 147.909 121.608C146.736 121.744 144.917 121.88 143.54 121.88C138.712 121.88 137.692 121.574 137.692 120.044C137.692 118.582 138.729 118.242 142.554 118.242C143.472 118.242 144.203 118.259 145.087 118.242C145.716 118.242 145.937 118.106 145.937 117.817C145.937 117.528 145.733 117.443 145.138 117.443C143.268 117.443 140.106 117.511 138.355 117.613C138.1 117.63 138.032 117.511 138.032 117.273V116.576C138.032 116.338 138.1 116.253 138.372 116.236C140.888 116.1 144.084 116.015 146.311 116.083C147.467 116.117 147.875 116.355 147.875 117.069C147.875 117.681 147.45 118.157 146.77 118.378H147.433C147.637 118.378 147.739 118.48 147.739 118.684V119.364C147.739 119.568 147.654 119.67 147.433 119.653ZM160.921 117.154H163.029C163.318 117.154 163.454 117.29 163.454 117.579V118.599C163.454 118.888 163.318 119.024 163.029 119.024H160.513V122.73C160.513 124.685 161.703 126.453 163.131 126.623C163.42 126.657 163.522 126.793 163.522 127.082V128.102C163.522 128.391 163.386 128.527 163.097 128.493C161.465 128.289 159.969 126.997 159.544 125.416C159.102 126.997 157.606 128.289 155.974 128.493C155.685 128.527 155.549 128.391 155.549 128.102V127.082C155.549 126.793 155.651 126.657 155.94 126.623C157.368 126.453 158.558 124.685 158.558 122.73V119.024H156.059C155.77 119.024 155.634 118.888 155.634 118.599V117.579C155.634 117.29 155.77 117.154 156.059 117.154H158.864C158.711 117.069 158.609 116.916 158.609 116.695V115.76C158.609 115.471 158.745 115.335 159.034 115.335H160.139C160.428 115.335 160.564 115.471 160.564 115.76V116.848C160.564 117.069 160.666 117.154 160.921 117.154ZM167.16 130.346C167.16 130.635 166.99 130.805 166.718 130.805H165.647C165.375 130.805 165.205 130.635 165.205 130.346V116.202C165.205 115.913 165.375 115.743 165.647 115.743H166.718C166.99 115.743 167.16 115.913 167.16 116.202V122.033C167.279 121.812 167.517 121.693 167.857 121.693H168.86C169.149 121.693 169.285 121.829 169.285 122.118V123.138C169.285 123.427 169.149 123.563 168.86 123.563H167.755C167.347 123.563 167.16 123.733 167.16 124.107V130.346ZM170.851 118.684C170.562 118.684 170.426 118.548 170.426 118.259V117.239C170.426 116.95 170.562 116.814 170.851 116.814H177.821C178.11 116.814 178.246 116.95 178.246 117.239V118.259C178.246 118.548 178.11 118.684 177.821 118.684H175.305V122.73C175.305 124.685 176.495 126.453 177.923 126.623C178.212 126.657 178.314 126.793 178.314 127.082V128.102C178.314 128.391 178.178 128.527 177.889 128.493C176.257 128.289 174.761 126.997 174.336 125.416C173.894 126.997 172.398 128.289 170.766 128.493C170.477 128.527 170.341 128.391 170.341 128.102V127.082C170.341 126.793 170.443 126.657 170.732 126.623C172.16 126.453 173.35 124.685 173.35 122.73V118.684H170.851ZM180.337 116.202C180.337 115.913 180.507 115.743 180.779 115.743H181.85C182.122 115.743 182.292 115.913 182.292 116.202V130.346C182.292 130.635 182.122 130.805 181.85 130.805H180.779C180.507 130.805 180.337 130.635 180.337 130.346V116.202Z" fill="#909090"/>
<defs>
<filter id="filter0_f_624_4980" x="0" y="0" width="260" height="182.5" filterUnits="userSpaceOnUse" color-interpolation-filters="sRGB">
<feFlood flood-opacity="0" result="BackgroundImageFix"/>
<feBlend mode="normal" in="SourceGraphic" in2="BackgroundImageFix" result="shape"/>
<feGaussianBlur stdDeviation="2" result="effect1_foregroundBlur_624_4980"/>
</filter>
</defs>
</svg>
