<svg width="242" height="152" viewBox="0 0 242 152" fill="none" xmlns="http://www.w3.org/2000/svg">
<g filter="url(#filter0_f_624_4981)">
<path d="M150.958 12.4341V106.927C150.958 108.854 150.184 110.703 148.806 112.066C147.429 113.429 145.56 114.194 143.611 114.194H106.871L84.8277 136L62.7842 114.194H26.0439C24.0955 114.194 22.2268 113.429 20.849 112.066C19.4713 110.703 18.6973 108.854 18.6973 106.927V12.4341C18.6973 10.5067 19.4713 8.6582 20.849 7.2953C22.2268 5.93241 24.0955 5.16675 26.0439 5.16675H143.611C145.56 5.16675 147.429 5.93241 148.806 7.2953C150.184 8.6582 150.958 10.5067 150.958 12.4341Z" fill="white"/>
<path d="M150.958 12.4341V106.927C150.958 108.854 150.184 110.703 148.806 112.066C147.429 113.429 145.56 114.194 143.611 114.194H106.871L84.8277 136L62.7842 114.194H26.0439C24.0955 114.194 22.2268 113.429 20.849 112.066C19.4713 110.703 18.6973 108.854 18.6973 106.927V12.4341C18.6973 10.5067 19.4713 8.6582 20.849 7.2953C22.2268 5.93241 24.0955 5.16675 26.0439 5.16675H143.611C145.56 5.16675 147.429 5.93241 148.806 7.2953C150.184 8.6582 150.958 10.5067 150.958 12.4341Z" stroke="white" stroke-linecap="round" stroke-linejoin="round"/>
</g>
<g filter="url(#filter1_f_624_4981)">
<rect x="4" y="4.31165" width="234" height="111.165" rx="20" fill="white"/>
</g>
<path d="M32.5281 34.01C34.9931 34.01 35.8771 33.67 35.8771 32.854C35.8771 32.021 35.0101 31.698 32.5281 31.698C30.0461 31.698 29.1791 32.021 29.1791 32.854C29.1791 33.67 30.0631 34.01 32.5281 34.01ZM34.5851 43.139C35.3161 43.139 35.8771 42.578 35.8771 41.847C35.8771 41.337 35.5371 41.048 34.9591 41.048H29.4851C29.2301 41.048 29.0941 41.167 29.0941 41.439V42.629C29.0941 42.969 29.3151 43.139 29.7231 43.139H34.5851ZM26.4421 36.492C28.0061 36.577 30.3861 36.662 32.3751 36.662C35.1461 36.662 37.1011 36.645 38.3591 36.509C38.6481 36.475 38.8181 36.628 38.8181 36.917V37.835C38.8181 38.124 38.6991 38.26 38.3931 38.294C37.1691 38.43 34.7551 38.464 32.3751 38.447C29.2641 38.43 27.4281 38.396 26.4081 38.277C26.1191 38.243 25.9831 38.107 25.9831 37.818V36.9C25.9831 36.611 26.1531 36.475 26.4421 36.492ZM27.2241 32.854C27.2241 30.865 28.8391 29.947 32.5281 29.947C36.2171 29.947 37.8321 30.865 37.8321 32.854C37.8321 34.843 36.2171 35.761 32.5281 35.761C28.8221 35.761 27.2241 34.86 27.2241 32.854ZM36.5911 43.105H37.6451C37.9341 43.105 38.0701 43.241 38.0701 43.53V44.465C38.0701 44.754 37.9341 44.89 37.6451 44.89H28.8561C27.7681 44.89 27.1391 44.363 27.1391 43.428V40.062C27.1391 39.552 27.3771 39.297 27.8871 39.297H35.9281C37.0841 39.297 37.8321 39.926 37.8321 40.963C37.8321 41.847 37.3391 42.68 36.5911 43.105ZM52.3011 44.448C52.2671 44.737 52.0971 44.89 51.8081 44.89H50.7881C50.4991 44.89 50.3121 44.703 50.3461 44.431C50.4141 43.853 50.4311 42.918 50.4311 42.255C50.4311 41.167 50.0741 40.844 48.8671 40.844C46.4361 40.844 44.3791 40.946 42.2881 41.133C41.9991 41.167 41.8631 41.014 41.8631 40.725V39.79C41.8631 39.518 41.9821 39.382 42.2881 39.348C44.0901 39.161 46.3511 39.059 49.0711 39.059C51.4171 39.059 52.3861 39.841 52.3861 41.762C52.3861 42.901 52.3691 43.853 52.3011 44.448ZM45.4501 30.593V32.616C45.4501 34.503 46.5381 35.948 48.0341 35.948C48.3231 35.948 48.4591 36.084 48.4591 36.373V37.308C48.4591 37.597 48.3231 37.733 48.0341 37.733C46.2661 37.733 44.9401 36.56 44.4811 35.217C44.0051 36.56 42.6961 37.733 40.9111 37.733C40.6221 37.733 40.4861 37.597 40.4861 37.308V36.373C40.4861 36.084 40.6221 35.948 40.9111 35.948C42.4071 35.948 43.4951 34.503 43.4951 32.616V30.593C43.4951 30.304 43.6651 30.134 43.9371 30.134H45.0081C45.2801 30.134 45.4501 30.304 45.4501 30.593ZM50.4821 30.202C50.4821 29.913 50.6521 29.743 50.9241 29.743H51.9951C52.2671 29.743 52.4371 29.913 52.4371 30.202V37.376C52.4371 37.665 52.2671 37.835 51.9951 37.835H50.9241C50.6521 37.835 50.4821 37.665 50.4821 37.376V30.202ZM66.7354 44.771C65.4944 44.941 63.4374 45.06 62.1454 45.06C57.1984 45.06 56.0424 44.652 56.0424 42.901C56.0424 41.269 57.1304 40.81 61.1594 40.81C62.0774 40.81 63.0634 40.844 63.9474 40.81C64.5764 40.793 64.7974 40.674 64.7974 40.317C64.7974 39.943 64.5934 39.79 63.9984 39.79C62.2814 39.79 58.6434 39.909 56.7564 40.028C56.5014 40.045 56.3824 39.909 56.3824 39.637V38.872C56.3824 38.617 56.4844 38.498 56.7564 38.481C57.8274 38.413 59.0684 38.362 60.3264 38.311V37.852C60.3264 37.665 60.3944 37.512 60.5304 37.427C58.8304 37.427 56.5694 37.376 55.2774 37.257C55.0224 37.24 54.8864 37.104 54.8864 36.849V36.016C54.8864 35.744 55.0394 35.625 55.3114 35.642C56.3824 35.727 58.1674 35.795 61.2784 35.812C63.6584 35.829 66.0724 35.795 67.2964 35.659C67.5684 35.625 67.7214 35.761 67.7214 36.033V36.849C67.7214 37.121 67.6024 37.24 67.3304 37.274C66.0894 37.393 64.0324 37.427 62.7064 37.427C62.4174 37.427 62.2814 37.58 62.2814 37.852V38.277C63.3524 38.26 64.3724 38.26 65.1714 38.277C66.3104 38.311 66.7354 38.685 66.7354 39.518C66.7354 40.198 66.3104 40.742 65.6304 40.963H66.2424C66.4974 40.963 66.5994 41.082 66.5994 41.337V42.034C66.5994 42.306 66.4804 42.425 66.2424 42.408C65.1884 42.357 63.5054 42.34 61.1934 42.34C58.3544 42.34 57.9974 42.425 57.9974 42.935C57.9974 43.53 58.6774 43.53 62.1284 43.53C63.3864 43.53 65.3414 43.411 66.6164 43.241C66.8714 43.207 67.0074 43.326 67.0244 43.581L67.0754 44.346C67.0924 44.618 66.9904 44.737 66.7354 44.771ZM65.2904 33.483H66.3274C66.5994 33.483 66.7184 33.602 66.7184 33.874V34.707C66.7184 34.962 66.5994 35.098 66.3274 35.098H57.8614C56.8754 35.098 56.2974 34.622 56.2974 33.772V30.814C56.2974 30.355 56.5184 30.117 56.9774 30.117H64.8314C65.8514 30.117 66.4804 30.678 66.4804 31.579C66.4804 32.378 65.9704 33.092 65.2904 33.483ZM63.3864 33.517C64.0324 33.517 64.5254 33.024 64.5254 32.378C64.5254 31.936 64.2534 31.698 63.7604 31.698H58.6094C58.3714 31.698 58.2524 31.817 58.2524 32.055V33.058C58.2524 33.364 58.4564 33.517 58.8304 33.517H63.3864ZM80.92 38.923C79.747 38.923 78.897 38.277 78.54 37.155C78.081 38.243 77.095 38.923 75.939 38.923C75.616 38.923 75.344 38.906 75.344 38.498V37.444C75.344 37.189 75.497 37.053 75.82 37.053C76.959 37.053 77.622 36.118 77.622 34.52V31.086C77.622 30.797 77.792 30.627 78.064 30.627H79.135C79.407 30.627 79.577 30.797 79.577 31.086V34.86C79.577 36.339 80.019 37.053 80.92 37.053C81.821 37.053 82.263 36.339 82.263 34.86V31.086C82.263 30.797 82.433 30.627 82.705 30.627H83.776C84.048 30.627 84.218 30.797 84.218 31.086V34.52C84.218 36.118 84.881 37.053 86.02 37.053C86.343 37.053 86.496 37.189 86.496 37.444V38.498C86.496 38.906 86.224 38.923 85.901 38.923C84.745 38.923 83.759 38.243 83.3 37.155C82.943 38.277 82.093 38.923 80.92 38.923ZM74.902 41.371C76.517 41.558 78.472 41.66 80.835 41.66C83.266 41.66 85.493 41.558 86.819 41.388C87.108 41.354 87.278 41.507 87.278 41.796V42.731C87.278 43.02 87.159 43.139 86.853 43.19C85.697 43.377 83.436 43.479 80.835 43.479C78.132 43.479 76.143 43.377 74.868 43.173C74.562 43.122 74.443 42.986 74.443 42.714V41.779C74.443 41.49 74.613 41.337 74.902 41.371ZM92.737 40.827C93.4 40.827 94.182 40.64 94.964 40.3C95.032 40.266 95.1 40.249 95.151 40.249C95.287 40.249 95.389 40.351 95.457 40.538L95.763 41.558C95.848 41.813 95.763 41.966 95.457 42.085C94.539 42.442 93.519 42.663 92.601 42.663C90.085 42.663 88.827 41.422 88.827 39.093C88.827 36.73 89.728 35.676 91.938 35.676C92.975 35.676 93.366 35.2 93.366 34.18C93.366 33.024 92.941 32.65 91.802 32.65C91.207 32.65 90.748 32.718 89.762 32.905C89.49 32.956 89.337 32.82 89.337 32.548V31.46C89.337 31.205 89.439 31.086 89.728 31.035C90.493 30.899 91.377 30.814 92.176 30.814C94.403 30.814 95.491 31.664 95.491 33.296C95.491 34.35 94.964 35.251 94.25 35.795H94.947C95.219 35.795 95.27 35.914 95.27 36.186V37.104C95.27 37.376 95.219 37.495 94.947 37.495C94.369 37.495 93.774 37.478 92.703 37.478C91.411 37.478 90.697 37.971 90.697 39.161C90.697 40.317 91.275 40.827 92.737 40.827ZM96.273 35.625H97.021C97.412 35.625 97.531 35.506 97.531 35.166V30.338C97.531 30.049 97.667 29.913 97.956 29.913H98.976C99.265 29.913 99.401 30.049 99.401 30.338V44.38C99.401 44.669 99.265 44.805 98.976 44.805H97.956C97.667 44.805 97.531 44.669 97.531 44.38V37.189C97.429 37.376 97.191 37.495 96.953 37.495H96.273C95.984 37.495 95.848 37.359 95.848 37.07V36.05C95.848 35.761 95.984 35.625 96.273 35.625ZM102.376 30.168V44.38C102.376 44.669 102.24 44.805 101.951 44.805H100.931C100.642 44.805 100.506 44.669 100.506 44.38V30.168C100.506 29.879 100.642 29.743 100.931 29.743H101.951C102.24 29.743 102.376 29.879 102.376 30.168ZM111.608 42.085C111.557 42.374 111.421 42.493 111.132 42.493H110.044C109.738 42.493 109.568 42.306 109.619 42.034C110.061 39.569 110.265 37.138 110.265 34.656C110.265 33.211 109.806 32.701 108.531 32.701C107.29 32.701 106.321 32.854 105.199 33.007C104.927 33.041 104.757 32.854 104.757 32.565V31.579C104.757 31.307 104.893 31.154 105.182 31.12C106.491 30.933 107.681 30.814 108.905 30.814C111.285 30.814 112.237 31.851 112.237 34.469C112.237 37.155 112.033 39.586 111.608 42.085ZM114.498 30.202C114.498 29.913 114.668 29.743 114.94 29.743H116.011C116.283 29.743 116.453 29.913 116.453 30.202V44.346C116.453 44.635 116.283 44.805 116.011 44.805H114.94C114.668 44.805 114.498 44.635 114.498 44.346V30.202ZM128.75 31.154H130.858C131.147 31.154 131.283 31.29 131.283 31.579V32.599C131.283 32.888 131.147 33.024 130.858 33.024H128.342V36.73C128.342 38.685 129.532 40.453 130.96 40.623C131.249 40.657 131.351 40.793 131.351 41.082V42.102C131.351 42.391 131.215 42.527 130.926 42.493C129.294 42.289 127.798 40.997 127.373 39.416C126.931 40.997 125.435 42.289 123.803 42.493C123.514 42.527 123.378 42.391 123.378 42.102V41.082C123.378 40.793 123.48 40.657 123.769 40.623C125.197 40.453 126.387 38.685 126.387 36.73V33.024H123.888C123.599 33.024 123.463 32.888 123.463 32.599V31.579C123.463 31.29 123.599 31.154 123.888 31.154H126.693C126.54 31.069 126.438 30.916 126.438 30.695V29.76C126.438 29.471 126.574 29.335 126.863 29.335H127.968C128.257 29.335 128.393 29.471 128.393 29.76V30.848C128.393 31.069 128.495 31.154 128.75 31.154ZM133.374 30.202C133.374 29.913 133.544 29.743 133.816 29.743H134.887C135.159 29.743 135.329 29.913 135.329 30.202V44.346C135.329 44.635 135.159 44.805 134.887 44.805H133.816C133.544 44.805 133.374 44.635 133.374 44.346V37.325C133.255 37.546 133.017 37.665 132.677 37.665H130.892C130.603 37.665 130.467 37.529 130.467 37.24V36.22C130.467 35.931 130.603 35.795 130.892 35.795H132.779C133.187 35.795 133.374 35.625 133.374 35.251V30.202ZM142.13 40.827C142.997 40.827 143.949 40.623 144.935 40.198C145.003 40.164 145.071 40.147 145.122 40.147C145.258 40.147 145.36 40.249 145.428 40.436L145.734 41.456C145.819 41.711 145.717 41.881 145.428 41.983C144.085 42.459 142.912 42.663 141.739 42.663C139.036 42.663 137.71 41.49 137.71 39.093C137.71 36.764 139.019 35.676 141.773 35.676C142.81 35.676 143.269 35.2 143.269 34.18C143.269 33.109 142.776 32.65 141.637 32.65C141.008 32.65 140.005 32.735 138.645 32.905C138.373 32.939 138.22 32.82 138.22 32.548V31.46C138.22 31.188 138.339 31.069 138.611 31.035C139.852 30.865 140.702 30.814 142.096 30.814C144.153 30.814 145.224 31.664 145.224 33.296C145.224 34.35 144.85 35.251 144.153 35.795H144.697C144.969 35.795 145.088 35.914 145.088 36.186V37.104C145.088 37.376 144.969 37.495 144.697 37.495C143.796 37.495 142.997 37.478 142.368 37.478C140.379 37.478 139.665 37.92 139.665 39.161C139.665 40.351 140.379 40.827 142.13 40.827ZM147.485 30.202C147.485 29.913 147.655 29.743 147.927 29.743H148.998C149.27 29.743 149.44 29.913 149.44 30.202V44.346C149.44 44.635 149.27 44.805 148.998 44.805H147.927C147.655 44.805 147.485 44.635 147.485 44.346V30.202ZM156.484 43.53C156.178 43.479 156.059 43.36 156.059 43.088V42.085C156.059 41.796 156.229 41.677 156.518 41.728C157.385 41.864 158.218 41.949 159.187 41.983C158.932 41.864 158.779 41.609 158.779 41.269V37.138C158.779 36.849 158.949 36.679 159.221 36.679H160.292C160.564 36.679 160.734 36.849 160.734 37.138V41.422C160.734 41.796 160.921 41.949 161.329 41.949C162.621 41.949 163.896 41.864 164.542 41.745C164.831 41.694 164.984 41.83 164.984 42.119V43.088C164.984 43.377 164.865 43.496 164.559 43.547C163.42 43.717 161.975 43.785 160.377 43.785C158.728 43.785 157.623 43.7 156.484 43.53ZM160.904 32.327C159.646 32.327 158.507 32.429 157.385 32.633C157.113 32.684 156.96 32.531 156.96 32.225V31.188C156.96 30.933 157.062 30.814 157.385 30.746C158.286 30.559 159.646 30.457 161.108 30.457C163.607 30.457 164.423 31.715 164.423 33.806C164.423 35.353 164.236 37.172 163.947 38.6C163.896 38.872 163.777 38.94 163.488 38.906L162.332 38.736C162.026 38.685 161.958 38.566 162.009 38.311C162.332 36.815 162.468 35.302 162.468 34.112C162.468 32.82 161.924 32.327 160.904 32.327ZM167.976 44.346C167.976 44.635 167.806 44.805 167.534 44.805H166.463C166.191 44.805 166.021 44.635 166.021 44.346V30.202C166.021 29.913 166.191 29.743 166.463 29.743H167.534C167.806 29.743 167.976 29.913 167.976 30.202V36.033C168.095 35.812 168.333 35.693 168.673 35.693H169.676C169.965 35.693 170.101 35.829 170.101 36.118V37.138C170.101 37.427 169.965 37.563 169.676 37.563H168.571C168.163 37.563 167.976 37.733 167.976 38.107V44.346ZM172.364 41.847C172.364 39.705 174.217 38.617 177.923 38.617C181.629 38.617 183.482 39.705 183.482 41.847C183.482 43.989 181.629 45.077 177.923 45.077C174.217 45.077 172.364 43.989 172.364 41.847ZM171.667 31.919C171.378 31.919 171.242 31.783 171.242 31.494V30.559C171.242 30.27 171.378 30.134 171.667 30.134H178.637C178.926 30.134 179.062 30.27 179.062 30.559V31.494C179.062 31.783 178.926 31.919 178.637 31.919H176.121V32.446C176.121 34.282 177.209 35.608 178.705 35.608C178.994 35.608 179.13 35.744 179.13 36.033V36.968C179.13 37.257 178.994 37.393 178.705 37.393C176.92 37.393 175.611 36.254 175.152 34.945C174.676 36.254 173.367 37.393 171.582 37.393C171.293 37.393 171.157 37.257 171.157 36.968V36.033C171.157 35.744 171.293 35.608 171.582 35.608C173.078 35.608 174.166 34.282 174.166 32.446V31.919H171.667ZM181.153 30.202C181.153 29.913 181.323 29.743 181.595 29.743H182.666C182.938 29.743 183.108 29.913 183.108 30.202V37.376C183.108 37.665 182.938 37.835 182.666 37.835H181.595C181.323 37.835 181.153 37.665 181.153 37.376V34.282C181.034 34.503 180.796 34.622 180.456 34.622H179.266C178.977 34.622 178.841 34.486 178.841 34.197V33.262C178.841 32.973 178.977 32.837 179.266 32.837H180.558C180.966 32.837 181.153 32.667 181.153 32.293V30.202ZM174.319 41.847C174.319 42.731 175.237 43.292 177.923 43.292C180.609 43.292 181.527 42.731 181.527 41.847C181.527 40.963 180.609 40.402 177.923 40.402C175.237 40.402 174.319 40.963 174.319 41.847ZM191.949 37.495C191.813 41.167 190.708 42.833 188.566 42.833C186.305 42.833 185.183 40.929 185.183 36.73C185.183 32.514 186.288 30.644 188.566 30.644C190.657 30.644 191.745 32.191 191.932 35.625H193.343C193.734 35.625 193.853 35.506 193.853 35.166V30.338C193.853 30.049 193.989 29.913 194.278 29.913H195.298C195.587 29.913 195.723 30.049 195.723 30.338V44.38C195.723 44.669 195.587 44.805 195.298 44.805H194.278C193.989 44.805 193.853 44.669 193.853 44.38V37.189C193.751 37.376 193.513 37.495 193.275 37.495H191.949ZM198.698 30.168V44.38C198.698 44.669 198.562 44.805 198.273 44.805H197.253C196.964 44.805 196.828 44.669 196.828 44.38V30.168C196.828 29.879 196.964 29.743 197.253 29.743H198.273C198.562 29.743 198.698 29.879 198.698 30.168ZM188.566 32.514C187.512 32.514 187.053 33.755 187.053 36.73C187.053 39.705 187.512 40.963 188.566 40.963C189.637 40.963 190.096 39.722 190.096 36.73C190.096 33.738 189.637 32.514 188.566 32.514ZM204.819 39.416C204.377 40.997 202.881 42.289 201.249 42.493C200.96 42.527 200.824 42.391 200.824 42.102V41.082C200.824 40.793 200.926 40.657 201.215 40.623C202.643 40.453 203.833 38.685 203.833 36.73V31.273C203.833 30.984 204.003 30.814 204.275 30.814H205.346C205.618 30.814 205.788 30.984 205.788 31.273V36.73C205.788 38.685 206.978 40.453 208.406 40.623C208.695 40.657 208.797 40.793 208.797 41.082V42.102C208.797 42.391 208.661 42.527 208.372 42.493C206.74 42.289 205.244 40.997 204.819 39.416ZM210.82 30.202C210.82 29.913 210.99 29.743 211.262 29.743H212.333C212.605 29.743 212.775 29.913 212.775 30.202V44.346C212.775 44.635 212.605 44.805 212.333 44.805H211.262C210.99 44.805 210.82 44.635 210.82 44.346V36.305C210.701 36.526 210.463 36.645 210.123 36.645H208.338C208.049 36.645 207.913 36.509 207.913 36.22V35.2C207.913 34.911 208.049 34.775 208.338 34.775H210.225C210.633 34.775 210.82 34.605 210.82 34.231V30.202ZM34.4926 54.222L34.2376 63.861C34.2036 64.915 33.5236 65.493 32.3506 65.493H29.8516C28.6786 65.493 27.9986 64.915 27.9646 63.861L27.7096 54.222C27.7096 53.95 27.8456 53.814 28.1346 53.814H29.1546C29.4606 53.814 29.5966 53.916 29.5966 54.205L29.6816 57.52H32.5206L32.6056 54.205C32.6056 53.916 32.7416 53.814 33.0476 53.814H34.0676C34.3566 53.814 34.4926 53.95 34.4926 54.222ZM41.2076 53.168V67.38C41.2076 67.669 41.0716 67.805 40.7826 67.805H39.7626C39.4736 67.805 39.3376 67.669 39.3376 67.38V60.563H38.3176C37.9266 60.563 37.8076 60.682 37.8076 61.022V67.38C37.8076 67.669 37.6716 67.805 37.3826 67.805H36.3626C36.0736 67.805 35.9376 67.669 35.9376 67.38V53.338C35.9376 53.049 36.0736 52.913 36.3626 52.913H37.3826C37.6716 52.913 37.8076 53.049 37.8076 53.338V58.999C37.9266 58.812 38.1476 58.693 38.3856 58.693H39.3376V53.168C39.3376 52.879 39.4736 52.743 39.7626 52.743H40.7826C41.0716 52.743 41.2076 52.879 41.2076 53.168ZM29.7326 59.39L29.8176 63.096C29.8176 63.436 30.0216 63.623 30.3786 63.623H31.8236C32.1806 63.623 32.3846 63.436 32.3846 63.096L32.4696 59.39H29.7326ZM55.4712 67.771C54.2302 67.941 52.1732 68.06 50.8812 68.06C45.9342 68.06 44.7782 67.652 44.7782 65.901C44.7782 64.269 45.8662 63.81 49.8952 63.81C50.8132 63.81 51.7992 63.844 52.6832 63.81C53.3122 63.793 53.5332 63.674 53.5332 63.317C53.5332 62.943 53.3292 62.79 52.7342 62.79C51.0172 62.79 47.3792 62.909 45.4922 63.028C45.2372 63.045 45.1182 62.909 45.1182 62.637V61.872C45.1182 61.617 45.2202 61.498 45.4922 61.481C46.5632 61.413 47.8042 61.362 49.0622 61.311V60.852C49.0622 60.665 49.1302 60.512 49.2662 60.427C47.5662 60.427 45.3052 60.376 44.0132 60.257C43.7582 60.24 43.6222 60.104 43.6222 59.849V59.016C43.6222 58.744 43.7752 58.625 44.0472 58.642C45.1182 58.727 46.9032 58.795 50.0142 58.812C52.3942 58.829 54.8082 58.795 56.0322 58.659C56.3042 58.625 56.4572 58.761 56.4572 59.033V59.849C56.4572 60.121 56.3382 60.24 56.0662 60.274C54.8252 60.393 52.7682 60.427 51.4422 60.427C51.1532 60.427 51.0172 60.58 51.0172 60.852V61.277C52.0882 61.26 53.1082 61.26 53.9072 61.277C55.0462 61.311 55.4712 61.685 55.4712 62.518C55.4712 63.198 55.0462 63.742 54.3662 63.963H54.9782C55.2332 63.963 55.3352 64.082 55.3352 64.337V65.034C55.3352 65.306 55.2162 65.425 54.9782 65.408C53.9242 65.357 52.2412 65.34 49.9292 65.34C47.0902 65.34 46.7332 65.425 46.7332 65.935C46.7332 66.53 47.4132 66.53 50.8642 66.53C52.1222 66.53 54.0772 66.411 55.3522 66.241C55.6072 66.207 55.7432 66.326 55.7602 66.581L55.8112 67.346C55.8282 67.618 55.7262 67.737 55.4712 67.771ZM45.2712 58.098C44.9652 58.081 44.8632 57.979 44.8632 57.69V56.823C44.8632 56.551 44.9652 56.449 45.2712 56.449C47.2772 56.449 48.6202 55.922 49.0112 55.106H45.5262C45.2372 55.106 45.1182 54.987 45.1182 54.698V53.865C45.1182 53.576 45.2372 53.457 45.5262 53.457H49.4362C49.2492 53.355 49.1472 53.151 49.1472 52.862V52.318C49.1472 52.029 49.2832 51.893 49.5722 51.893H50.6772C50.9662 51.893 51.1022 52.029 51.1022 52.318V53.134C51.1022 53.355 51.2212 53.457 51.4762 53.457H54.6892C54.9782 53.457 55.0972 53.576 55.0972 53.865V54.698C55.0972 54.987 54.9782 55.106 54.6892 55.106H51.2042C51.5952 55.922 52.9552 56.449 54.9442 56.449C55.2502 56.449 55.3522 56.551 55.3522 56.823V57.69C55.3522 57.979 55.2502 58.081 54.9442 58.098C52.8362 58.2 50.8132 57.367 50.0992 56.16C49.3852 57.367 47.3622 58.2 45.2712 58.098ZM66.0812 61.583C65.1462 61.855 64.0922 62.042 63.3102 62.076V64.422C63.3102 64.796 63.4972 64.949 63.9052 64.949C65.0272 64.949 65.9962 64.864 66.6422 64.745C66.9312 64.694 67.0842 64.83 67.0842 65.119V66.088C67.0842 66.377 66.9652 66.496 66.6592 66.547C65.5202 66.717 63.9052 66.785 62.3072 66.785C60.6582 66.785 59.3832 66.7 58.2442 66.53C57.9382 66.479 57.8192 66.36 57.8192 66.088V65.085C57.8192 64.796 57.9892 64.677 58.2782 64.728C59.1622 64.864 60.5392 64.966 61.7802 65C61.5252 64.881 61.3552 64.609 61.3552 64.269V61.855C59.5192 61.345 58.5502 59.968 58.5502 57.775C58.5502 54.97 60.1992 53.457 63.2762 53.457C64.2112 53.457 64.8742 53.491 65.4692 53.61C65.7412 53.661 65.8432 53.797 65.8432 54.069V54.987C65.8432 55.293 65.6902 55.446 65.4182 55.395C64.8572 55.293 64.2282 55.242 63.4292 55.242C61.4742 55.242 60.5052 56.075 60.5052 57.775C60.5052 59.492 61.3722 60.291 63.2252 60.291C63.8542 60.291 64.7892 60.121 65.6562 59.832C65.9112 59.747 66.0812 59.849 66.1492 60.121L66.3872 61.056C66.4552 61.328 66.3702 61.498 66.0812 61.583ZM70.0762 67.346C70.0762 67.635 69.9062 67.805 69.6342 67.805H68.5632C68.2912 67.805 68.1212 67.635 68.1212 67.346V53.202C68.1212 52.913 68.2912 52.743 68.5632 52.743H69.6342C69.9062 52.743 70.0762 52.913 70.0762 53.202V67.346ZM74.0556 53.559C74.0896 53.27 74.2766 53.117 74.5656 53.117H75.6026C75.8916 53.117 76.0276 53.304 76.0106 53.576C75.9426 54.358 75.8916 55.616 75.8916 56.211C75.8916 57.146 76.4016 57.588 77.5066 57.588C80.1756 57.588 81.9436 57.486 83.9496 57.299C84.2216 57.265 84.3746 57.401 84.3916 57.707L84.4596 58.642C84.4766 58.897 84.3406 59.033 84.0516 59.067C82.3686 59.237 80.0226 59.373 77.3876 59.373C75.1606 59.373 73.9366 58.251 73.9366 56.296C73.9366 55.616 73.9876 54.324 74.0556 53.559ZM73.8006 63.691C73.8516 63.402 74.0216 63.249 74.3106 63.249H75.3476C75.6366 63.249 75.8066 63.436 75.7556 63.708C75.6876 64.065 75.6366 64.473 75.6366 64.898C75.6366 65.833 76.1466 66.275 77.2516 66.275C80.2606 66.275 82.1986 66.173 84.2046 65.986C84.4766 65.952 84.6296 66.088 84.6466 66.394L84.7146 67.329C84.7316 67.584 84.5956 67.72 84.3066 67.754C82.6236 67.924 80.1076 68.06 77.3026 68.06C74.9906 68.06 73.6816 66.938 73.6816 64.983C73.6816 64.473 73.7326 64.031 73.8006 63.691ZM72.9846 60.342C74.5486 60.427 76.9286 60.512 78.9176 60.512C81.6886 60.512 83.6436 60.495 84.9016 60.359C85.1906 60.325 85.3606 60.478 85.3606 60.767V61.685C85.3606 61.974 85.2416 62.11 84.9356 62.144C83.7116 62.28 81.2976 62.314 78.9176 62.297C75.8066 62.28 73.9706 62.246 72.9506 62.127C72.6616 62.093 72.5256 61.957 72.5256 61.668V60.75C72.5256 60.461 72.6956 60.325 72.9846 60.342ZM92.5072 62.263C92.2182 62.229 92.0822 62.093 92.0822 61.804V60.886C92.0822 60.597 92.2522 60.461 92.5412 60.478C93.8332 60.563 96.0772 60.631 97.7772 60.648C97.6242 60.563 97.5222 60.41 97.5222 60.189V59.407C94.5982 59.22 93.3232 58.2 93.3232 56.194C93.3232 53.967 94.9382 52.947 98.6272 52.947C102.316 52.947 103.931 53.967 103.931 56.194C103.931 58.234 102.571 59.271 99.4772 59.424V60.206C99.4772 60.478 99.6132 60.614 99.9022 60.631C101.228 60.682 103.217 60.614 104.458 60.495C104.747 60.461 104.917 60.614 104.917 60.903V61.821C104.917 62.11 104.798 62.246 104.492 62.28C103.268 62.416 100.854 62.45 98.4742 62.433C95.3632 62.416 93.5272 62.382 92.5072 62.263ZM93.3572 63.691C93.4082 63.402 93.5782 63.249 93.8672 63.249H94.9042C95.1932 63.249 95.3632 63.436 95.3122 63.708C95.2442 64.065 95.1932 64.473 95.1932 64.898C95.1932 65.833 95.7032 66.275 96.8082 66.275C99.8172 66.275 101.755 66.173 103.761 65.986C104.033 65.952 104.186 66.088 104.203 66.394L104.271 67.329C104.288 67.584 104.152 67.72 103.863 67.754C102.18 67.924 99.6642 68.06 96.8592 68.06C94.5472 68.06 93.2382 66.938 93.2382 64.983C93.2382 64.473 93.2892 64.031 93.3572 63.691ZM98.6272 57.69C101.092 57.69 101.976 57.248 101.976 56.194C101.976 55.123 101.109 54.698 98.6272 54.698C96.1452 54.698 95.2782 55.123 95.2782 56.194C95.2782 57.248 96.1622 57.69 98.6272 57.69ZM118.638 67.771C117.227 67.941 115.272 68.06 114.15 68.06C109.305 68.06 107.962 67.584 107.962 65.765C107.962 64.065 109.22 63.555 113.164 63.555C114.082 63.555 114.915 63.538 115.833 63.538C116.428 63.538 116.717 63.368 116.717 62.994C116.717 62.603 116.462 62.433 115.884 62.433C114.184 62.433 110.58 62.552 108.693 62.671C108.438 62.688 108.302 62.552 108.302 62.28V61.43C108.302 61.175 108.421 61.056 108.693 61.039C111.226 60.869 114.915 60.784 117.125 60.852C118.179 60.886 118.655 61.362 118.655 62.212C118.655 62.892 118.23 63.47 117.55 63.708H118.145C118.4 63.708 118.519 63.827 118.519 64.082V64.864C118.519 65.119 118.4 65.238 118.145 65.238C116.921 65.204 115.221 65.17 113.198 65.17C110.41 65.17 109.917 65.255 109.917 65.799C109.917 66.394 110.597 66.445 114.133 66.445C115.289 66.445 117.159 66.343 118.519 66.156C118.774 66.122 118.927 66.241 118.944 66.496L118.995 67.346C119.012 67.601 118.91 67.737 118.638 67.771ZM111.549 53.593V55.106C111.549 56.823 112.637 58.098 114.133 58.098C114.422 58.098 114.558 58.234 114.558 58.523V59.458C114.558 59.747 114.422 59.883 114.133 59.883C112.348 59.883 111.039 58.71 110.58 57.486C110.104 58.71 108.795 59.883 107.01 59.883C106.721 59.883 106.585 59.747 106.585 59.458V58.523C106.585 58.234 106.721 58.098 107.01 58.098C108.506 58.098 109.594 56.823 109.594 55.106V53.593C109.594 53.304 109.764 53.134 110.036 53.134H111.107C111.379 53.134 111.549 53.304 111.549 53.593ZM116.581 53.202C116.581 52.913 116.751 52.743 117.023 52.743H118.094C118.366 52.743 118.536 52.913 118.536 53.202V59.526C118.536 59.815 118.366 59.985 118.094 59.985H117.023C116.751 59.985 116.581 59.815 116.581 59.526V53.202ZM127.803 65.085C127.752 65.374 127.616 65.493 127.327 65.493H126.239C125.933 65.493 125.763 65.306 125.814 65.034C126.256 62.569 126.46 60.138 126.46 57.656C126.46 56.211 126.001 55.701 124.726 55.701C123.485 55.701 122.516 55.854 121.394 56.007C121.122 56.041 120.952 55.854 120.952 55.565V54.579C120.952 54.307 121.088 54.154 121.377 54.12C122.686 53.933 123.876 53.814 125.1 53.814C127.48 53.814 128.432 54.851 128.432 57.469C128.432 60.155 128.228 62.586 127.803 65.085ZM132.308 67.346C132.308 67.635 132.138 67.805 131.866 67.805H130.795C130.523 67.805 130.353 67.635 130.353 67.346V53.202C130.353 52.913 130.523 52.743 130.795 52.743H131.866C132.138 52.743 132.308 52.913 132.308 53.202V59.033C132.427 58.812 132.665 58.693 133.005 58.693H134.008C134.297 58.693 134.433 58.829 134.433 59.118V60.138C134.433 60.427 134.297 60.563 134.008 60.563H132.903C132.495 60.563 132.308 60.733 132.308 61.107V67.346ZM142.272 59.101C141.541 60.767 139.62 61.923 137.614 61.923C137.291 61.923 137.019 61.923 137.019 61.498V60.444C137.019 60.172 137.138 60.053 137.444 60.053C139.722 60.053 141.286 58.54 141.286 56.483V54.086C141.286 53.797 141.456 53.627 141.728 53.627H142.799C143.071 53.627 143.241 53.797 143.241 54.086V56.483C143.241 58.54 144.805 60.053 147.083 60.053C147.389 60.053 147.508 60.172 147.508 60.444V61.498C147.508 61.923 147.236 61.923 146.913 61.923C144.907 61.923 142.986 60.767 142.272 59.101ZM136.237 64.371C137.852 64.558 139.807 64.66 142.17 64.66C144.601 64.66 146.828 64.558 148.154 64.388C148.443 64.354 148.613 64.507 148.613 64.796V65.731C148.613 66.02 148.494 66.139 148.188 66.19C147.032 66.377 144.771 66.479 142.17 66.479C139.467 66.479 137.478 66.377 136.203 66.173C135.897 66.122 135.778 65.986 135.778 65.714V64.779C135.778 64.49 135.948 64.337 136.237 64.371ZM162.435 67.771C161.262 67.924 159.205 68.06 157.828 68.06C152.745 68.06 151.725 67.72 151.725 66.071C151.725 64.507 152.762 64.116 156.842 64.116C157.76 64.116 158.746 64.133 159.63 64.116C160.259 64.099 160.48 63.98 160.48 63.674C160.48 63.351 160.276 63.249 159.681 63.249C157.811 63.249 154.173 63.351 152.422 63.47C152.167 63.487 152.065 63.368 152.065 63.096V62.365C152.065 62.11 152.15 62.008 152.422 61.991C154.938 61.838 158.627 61.719 160.854 61.787C162.01 61.821 162.418 62.11 162.418 62.875C162.418 63.521 161.993 64.048 161.313 64.269H161.925C162.146 64.269 162.282 64.354 162.282 64.507V65.272C162.282 65.544 162.163 65.663 161.925 65.646C160.956 65.578 159.392 65.578 156.876 65.578C154.037 65.578 153.68 65.612 153.68 66.071C153.68 66.496 154.122 66.598 157.811 66.598C159.12 66.598 161.092 66.479 162.316 66.309C162.571 66.275 162.69 66.377 162.707 66.632L162.758 67.363C162.775 67.635 162.69 67.737 162.435 67.771ZM163.013 59.441C163.285 59.407 163.404 59.543 163.404 59.815V60.546C163.404 60.818 163.319 60.937 163.047 60.971C161.823 61.107 159.341 61.141 156.961 61.124C153.85 61.107 151.946 61.073 150.926 60.954C150.671 60.92 150.569 60.801 150.569 60.546V59.798C150.569 59.526 150.688 59.407 150.96 59.424C152.558 59.509 154.972 59.594 156.961 59.594C159.732 59.594 161.721 59.577 163.013 59.441ZM161.721 56.653C160.752 56.619 159.052 56.602 156.876 56.602C154.292 56.602 153.935 56.619 153.935 57.044C153.935 57.435 154.377 57.52 157.811 57.52C159.12 57.52 160.854 57.401 162.078 57.248C162.333 57.214 162.435 57.316 162.452 57.554L162.503 58.234C162.52 58.489 162.452 58.574 162.197 58.608C161.024 58.744 159.205 58.88 157.828 58.88C153 58.88 151.98 58.574 151.98 57.044C151.98 55.582 153.017 55.242 156.842 55.242C157.76 55.242 158.491 55.259 159.375 55.242C160.004 55.242 160.225 55.106 160.225 54.817C160.225 54.528 160.021 54.443 159.426 54.443C157.556 54.443 154.394 54.511 152.643 54.613C152.388 54.63 152.32 54.511 152.32 54.273V53.576C152.32 53.338 152.388 53.253 152.66 53.236C155.176 53.1 158.372 53.015 160.599 53.083C161.755 53.117 162.163 53.355 162.163 54.069C162.163 54.681 161.738 55.157 161.058 55.378H161.721C161.925 55.378 162.027 55.48 162.027 55.684V56.364C162.027 56.568 161.942 56.67 161.721 56.653ZM181.975 67.771C180.734 67.941 178.677 68.06 177.385 68.06C172.438 68.06 171.282 67.652 171.282 65.901C171.282 64.269 172.37 63.81 176.399 63.81C177.317 63.81 178.303 63.844 179.187 63.81C179.816 63.793 180.037 63.674 180.037 63.317C180.037 62.943 179.833 62.79 179.238 62.79C177.521 62.79 173.883 62.909 171.996 63.028C171.741 63.045 171.622 62.909 171.622 62.637V61.872C171.622 61.617 171.724 61.498 171.996 61.481C173.067 61.413 174.308 61.362 175.566 61.311V60.852C175.566 60.665 175.634 60.512 175.77 60.427C174.07 60.427 171.809 60.376 170.517 60.257C170.262 60.24 170.126 60.104 170.126 59.849V59.016C170.126 58.744 170.279 58.625 170.551 58.642C171.622 58.727 173.407 58.795 176.518 58.812C178.898 58.829 181.312 58.795 182.536 58.659C182.808 58.625 182.961 58.761 182.961 59.033V59.849C182.961 60.121 182.842 60.24 182.57 60.274C181.329 60.393 179.272 60.427 177.946 60.427C177.657 60.427 177.521 60.58 177.521 60.852V61.277C178.592 61.26 179.612 61.26 180.411 61.277C181.55 61.311 181.975 61.685 181.975 62.518C181.975 63.198 181.55 63.742 180.87 63.963H181.482C181.737 63.963 181.839 64.082 181.839 64.337V65.034C181.839 65.306 181.72 65.425 181.482 65.408C180.428 65.357 178.745 65.34 176.433 65.34C173.594 65.34 173.237 65.425 173.237 65.935C173.237 66.53 173.917 66.53 177.368 66.53C178.626 66.53 180.581 66.411 181.856 66.241C182.111 66.207 182.247 66.326 182.264 66.581L182.315 67.346C182.332 67.618 182.23 67.737 181.975 67.771ZM171.775 58.098C171.469 58.081 171.367 57.979 171.367 57.69V56.823C171.367 56.551 171.469 56.449 171.775 56.449C174.053 56.449 175.481 55.769 175.617 54.766H172.03C171.741 54.766 171.622 54.647 171.622 54.358V53.525C171.622 53.236 171.741 53.117 172.03 53.117H181.193C181.482 53.117 181.601 53.236 181.601 53.525V54.358C181.601 54.647 181.482 54.766 181.193 54.766H177.606C177.742 55.769 179.187 56.449 181.448 56.449C181.754 56.449 181.856 56.551 181.856 56.823V57.69C181.856 57.979 181.754 58.081 181.448 58.098C179.34 58.2 177.317 57.367 176.603 56.16C175.889 57.367 173.866 58.2 171.775 58.098ZM192.347 59.73C192.347 63.929 191.157 65.833 188.522 65.833C185.904 65.833 184.714 63.929 184.714 59.73C184.714 55.514 185.887 53.644 188.522 53.644C191.174 53.644 192.347 55.514 192.347 59.73ZM188.522 55.514C187.23 55.514 186.669 56.738 186.669 59.73C186.669 62.722 187.23 63.963 188.522 63.963C189.831 63.963 190.392 62.739 190.392 59.73C190.392 56.738 189.831 55.514 188.522 55.514ZM194.625 53.202C194.625 52.913 194.795 52.743 195.067 52.743H196.138C196.41 52.743 196.58 52.913 196.58 53.202V67.346C196.58 67.635 196.41 67.805 196.138 67.805H195.067C194.795 67.805 194.625 67.635 194.625 67.346V53.202ZM205.846 65.085C205.795 65.374 205.659 65.493 205.37 65.493H204.282C203.976 65.493 203.806 65.306 203.857 65.034C204.299 62.569 204.503 60.138 204.503 57.656C204.503 56.211 204.044 55.701 202.769 55.701C201.528 55.701 200.559 55.854 199.437 56.007C199.165 56.041 198.995 55.854 198.995 55.565V54.579C198.995 54.307 199.131 54.154 199.42 54.12C200.729 53.933 201.919 53.814 203.143 53.814C205.523 53.814 206.475 54.851 206.475 57.469C206.475 60.155 206.271 62.586 205.846 65.085ZM208.736 53.202C208.736 52.913 208.906 52.743 209.178 52.743H210.249C210.521 52.743 210.691 52.913 210.691 53.202V67.346C210.691 67.635 210.521 67.805 210.249 67.805H209.178C208.906 67.805 208.736 67.635 208.736 67.346V53.202ZM71.4314 81.642C72.5874 81.642 73.3014 80.843 73.3014 79.687C73.3014 78.531 72.5874 77.749 71.4314 77.749C70.2754 77.749 69.5614 78.531 69.5614 79.687C69.5614 80.843 70.2754 81.642 71.4314 81.642ZM70.7854 86.742C69.5274 86.708 68.0484 86.606 67.1304 86.47C66.8244 86.419 66.7054 86.3 66.7054 86.028V85.025C66.7054 84.736 66.8754 84.617 67.1644 84.668C68.3034 84.838 69.7144 84.923 71.3634 84.923C72.9614 84.923 74.7294 84.855 75.8684 84.685C76.1574 84.634 76.3104 84.77 76.3104 85.059V86.028C76.3104 86.317 76.1914 86.453 75.8854 86.487C75.2224 86.572 73.8964 86.691 72.8764 86.691C72.4684 86.691 72.2814 86.844 72.2814 87.218V90.091C72.2814 90.38 72.1114 90.55 71.8394 90.55H70.7684C70.4964 90.55 70.3264 90.38 70.3264 90.091V87.473C70.3264 87.116 70.5134 86.844 70.7854 86.742ZM79.1324 90.346C79.1324 90.635 78.9624 90.805 78.6904 90.805H77.6194C77.3474 90.805 77.1774 90.635 77.1774 90.346V76.202C77.1774 75.913 77.3474 75.743 77.6194 75.743H78.6904C78.9624 75.743 79.1324 75.913 79.1324 76.202V90.346ZM67.6064 79.687C67.6064 77.46 69.1194 75.964 71.4314 75.964C73.7434 75.964 75.2564 77.46 75.2564 79.687C75.2564 81.914 73.7264 83.427 71.4314 83.427C69.1364 83.427 67.6064 81.914 67.6064 79.687ZM85.2537 82.866C86.4947 82.866 87.0047 82.509 87.0047 81.795C87.0047 81.081 86.4947 80.724 85.2537 80.724C84.0127 80.724 83.5027 81.081 83.5027 81.795C83.5027 82.509 84.0127 82.866 85.2537 82.866ZM81.5477 81.795C81.5477 79.942 82.7887 78.99 85.2537 78.99C87.7187 78.99 88.9597 79.942 88.9597 81.795C88.9597 83.648 87.7187 84.6 85.2537 84.6C82.7887 84.6 81.5477 83.648 81.5477 81.795ZM92.9037 85.756C92.9037 86.045 92.7337 86.215 92.4617 86.215H91.3907C91.1187 86.215 90.9487 86.045 90.9487 85.756V76.202C90.9487 75.913 91.1187 75.743 91.3907 75.743H92.4617C92.7337 75.743 92.9037 75.913 92.9037 76.202V80.163C93.0227 79.942 93.2607 79.823 93.6007 79.823H94.6037C94.8927 79.823 95.0287 79.959 95.0287 80.248V81.183C95.0287 81.472 94.8927 81.608 94.6037 81.608H93.4987C93.0907 81.608 92.9037 81.778 92.9037 82.152V85.756ZM86.6477 76.304H89.0617C89.3507 76.304 89.4867 76.44 89.4867 76.729V77.664C89.4867 77.953 89.3507 78.089 89.0617 78.089H81.4627C81.1737 78.089 81.0377 77.953 81.0377 77.664V76.729C81.0377 76.44 81.1737 76.304 81.4627 76.304H84.5907C84.4377 76.219 84.3357 76.066 84.3357 75.845V75.42C84.3357 75.131 84.4717 74.995 84.7607 74.995H85.8657C86.1547 74.995 86.2907 75.131 86.2907 75.42V75.998C86.2907 76.219 86.3927 76.304 86.6477 76.304ZM82.9417 86.351C82.9927 86.062 83.1457 85.909 83.4347 85.909H84.4547C84.7437 85.909 84.9307 86.096 84.8967 86.368C84.8457 86.776 84.7947 87.15 84.7947 87.711C84.7947 88.731 85.4577 89.275 86.4947 89.275C89.3337 89.275 90.8467 89.173 92.8527 88.986C93.1247 88.952 93.2777 89.088 93.2947 89.394L93.3627 90.329C93.3797 90.584 93.2437 90.72 92.9547 90.754C91.2717 90.924 89.2147 91.06 86.5797 91.06C84.2167 91.06 82.8397 89.87 82.8397 87.898C82.8397 87.286 82.8737 86.776 82.9417 86.351ZM109.366 87.745C109.655 87.694 109.808 87.83 109.808 88.119V89.088C109.808 89.377 109.689 89.496 109.383 89.547C108.244 89.717 106.629 89.785 105.031 89.785C103.382 89.785 102.107 89.7 100.968 89.53C100.662 89.479 100.543 89.36 100.543 89.088V88.085C100.543 87.796 100.713 87.677 101.002 87.728C102.141 87.898 103.382 88 105.031 88C106.629 88 108.227 87.915 109.366 87.745ZM101.274 80.877C101.274 78.072 102.753 76.304 105.099 76.304C107.445 76.304 108.924 78.072 108.924 80.877C108.924 83.682 107.428 85.467 105.099 85.467C102.77 85.467 101.274 83.682 101.274 80.877ZM105.099 83.648C106.255 83.648 106.969 82.526 106.969 80.877C106.969 79.228 106.255 78.123 105.099 78.123C103.943 78.123 103.229 79.228 103.229 80.877C103.229 82.526 103.943 83.648 105.099 83.648ZM112.8 90.346C112.8 90.635 112.63 90.805 112.358 90.805H111.287C111.015 90.805 110.845 90.635 110.845 90.346V76.202C110.845 75.913 111.015 75.743 111.287 75.743H112.358C112.63 75.743 112.8 75.913 112.8 76.202V90.346ZM115.675 89.173C115.369 89.122 115.25 88.986 115.25 88.714V87.779C115.25 87.49 115.42 87.337 115.709 87.371C116.933 87.507 119.228 87.66 121.115 87.694C120.86 87.575 120.69 87.303 120.69 86.963V84.974C117.443 84.685 116.236 83.189 116.236 80.809C116.236 78.157 117.766 76.627 122.152 76.627C123.087 76.627 123.886 76.678 126.028 76.797C126.317 76.814 126.453 76.967 126.453 77.239V78.242C126.453 78.514 126.3 78.667 126.011 78.65C124.005 78.531 123.002 78.497 122.101 78.497C119.075 78.497 118.191 79.177 118.191 80.809C118.191 82.441 118.922 83.155 121.659 83.155C123.019 83.155 124.651 83.036 126.164 82.849C126.436 82.815 126.589 82.951 126.606 83.257L126.674 84.277C126.691 84.532 126.555 84.668 126.266 84.702C124.77 84.872 123.614 84.974 122.645 85.008V87.116C122.645 87.49 122.832 87.643 123.24 87.643C124.702 87.643 126.47 87.541 127.626 87.388C127.915 87.354 128.085 87.507 128.085 87.796V88.731C128.085 89.02 127.966 89.139 127.66 89.19C126.504 89.377 124.243 89.479 121.642 89.479C118.939 89.479 116.95 89.377 115.675 89.173ZM130.467 89.173C130.161 89.122 130.042 88.986 130.042 88.714V87.779C130.042 87.49 130.212 87.337 130.501 87.371C131.725 87.507 134.02 87.66 135.907 87.694C135.652 87.575 135.482 87.303 135.482 86.963V85.161C132.388 84.991 131.453 84.277 131.453 82.441C131.453 80.469 132.626 79.874 136.485 79.874H138.593C139.324 79.874 139.698 79.602 139.698 79.041C139.698 78.497 139.392 78.293 138.627 78.293C136.417 78.293 133.901 78.395 132.201 78.582C131.946 78.616 131.793 78.48 131.793 78.225V77.205C131.793 76.95 131.895 76.831 132.133 76.797C133.578 76.593 135.669 76.474 137.658 76.474C138.355 76.474 139.052 76.491 139.698 76.525C140.99 76.576 141.636 77.137 141.636 78.157C141.636 79.109 141.177 79.789 140.361 80.078H141.126C141.364 80.078 141.5 80.214 141.5 80.452V81.319C141.5 81.557 141.364 81.71 141.126 81.71C139.579 81.71 137.845 81.659 136.519 81.659C134.071 81.659 133.408 81.846 133.408 82.526C133.408 83.274 134.105 83.427 137.454 83.427C138.797 83.427 140.259 83.325 141.5 83.138C141.721 83.104 141.84 83.206 141.891 83.461L142.061 84.43C142.095 84.651 141.959 84.838 141.738 84.872C140.361 85.076 138.695 85.212 137.471 85.212H137.437V87.116C137.437 87.49 137.624 87.643 138.032 87.643C139.494 87.643 141.262 87.541 142.418 87.388C142.707 87.354 142.877 87.507 142.877 87.796V88.731C142.877 89.02 142.758 89.139 142.452 89.19C141.296 89.377 139.035 89.479 136.434 89.479C133.731 89.479 131.742 89.377 130.467 89.173ZM153.304 85.416C152.862 86.997 151.366 88.289 149.734 88.493C149.445 88.527 149.309 88.391 149.309 88.102V87.082C149.309 86.793 149.411 86.657 149.7 86.623C151.128 86.453 152.318 84.685 152.318 82.73V77.273C152.318 76.984 152.488 76.814 152.76 76.814H153.831C154.103 76.814 154.273 76.984 154.273 77.273V82.73C154.273 84.685 155.463 86.453 156.891 86.623C157.18 86.657 157.282 86.793 157.282 87.082V88.102C157.282 88.391 157.146 88.527 156.857 88.493C155.225 88.289 153.729 86.997 153.304 85.416ZM159.305 76.202C159.305 75.913 159.475 75.743 159.747 75.743H160.818C161.09 75.743 161.26 75.913 161.26 76.202V90.346C161.26 90.635 161.09 90.805 160.818 90.805H159.747C159.475 90.805 159.305 90.635 159.305 90.346V76.202ZM163.931 77.919C163.642 77.919 163.506 77.783 163.506 77.494V76.559C163.506 76.27 163.642 76.134 163.931 76.134H170.901C171.19 76.134 171.326 76.27 171.326 76.559V77.494C171.326 77.783 171.19 77.919 170.901 77.919H168.385V78.616C168.385 80.503 169.473 81.948 170.969 81.948C171.258 81.948 171.394 82.084 171.394 82.373V83.308C171.394 83.597 171.258 83.733 170.969 83.733C169.201 83.733 167.875 82.56 167.416 81.217C166.94 82.56 165.631 83.733 163.846 83.733C163.557 83.733 163.421 83.597 163.421 83.308V82.373C163.421 82.084 163.557 81.948 163.846 81.948C165.342 81.948 166.43 80.503 166.43 78.616V77.919H163.931ZM174.896 90.448C174.862 90.737 174.692 90.89 174.403 90.89H173.383C173.094 90.89 172.907 90.703 172.941 90.431C173.009 89.853 173.026 88.918 173.026 88.255C173.026 87.167 172.669 86.844 171.462 86.844C169.201 86.844 167.314 86.946 165.223 87.133C164.934 87.167 164.798 87.014 164.798 86.725V85.79C164.798 85.518 164.917 85.382 165.223 85.348C167.025 85.161 169.116 85.059 171.666 85.059C174.012 85.059 174.981 85.841 174.981 87.762C174.981 88.901 174.964 89.853 174.896 90.448ZM175.032 83.376C175.032 83.665 174.862 83.835 174.59 83.835H173.519C173.247 83.835 173.077 83.665 173.077 83.376V76.202C173.077 75.913 173.247 75.743 173.519 75.743H174.59C174.862 75.743 175.032 75.913 175.032 76.202V78.973C175.151 78.752 175.389 78.633 175.729 78.633H176.732C177.021 78.633 177.157 78.769 177.157 79.058V79.993C177.157 80.282 177.021 80.418 176.732 80.418H175.627C175.219 80.418 175.032 80.588 175.032 80.962V83.376Z" fill="#909090"/>
<defs>
<filter id="filter0_f_624_4981" x="14.1973" y="0.666748" width="141.262" height="139.833" filterUnits="userSpaceOnUse" color-interpolation-filters="sRGB">
<feFlood flood-opacity="0" result="BackgroundImageFix"/>
<feBlend mode="normal" in="SourceGraphic" in2="BackgroundImageFix" result="shape"/>
<feGaussianBlur stdDeviation="2" result="effect1_foregroundBlur_624_4981"/>
</filter>
<filter id="filter1_f_624_4981" x="0" y="0.311646" width="242" height="119.165" filterUnits="userSpaceOnUse" color-interpolation-filters="sRGB">
<feFlood flood-opacity="0" result="BackgroundImageFix"/>
<feBlend mode="normal" in="SourceGraphic" in2="BackgroundImageFix" result="shape"/>
<feGaussianBlur stdDeviation="2" result="effect1_foregroundBlur_624_4981"/>
</filter>
</defs>
</svg>
