<svg xmlns="http://www.w3.org/2000/svg" width="47" height="47" fill="none"><path fill="#D27C2C" d="M9.792 43.083c-2.585 0-3.623-4.622-3.838-6.462a10.888 10.888 0 0 1 .626-5.288 4.895 4.895 0 0 1 3.663-3.172c2.29-.392 3.916.979 5.992 1.449a2.37 2.37 0 0 0 3.055-2.683C18.428 23.558 12.3 23.5 9.792 23.5c0-3.643 3.995-4.113 6.854-3.839 1.697.164 3.367.532 4.974 1.097.98.333 2.115 1.175 3.193 1.097 1.625-.137 1.958-1.822 1.253-3.055-1.704-2.899-6.54-3.134-9.42-3.134 0-3.916 3.388-4.66 6.64-4.073 1.677.33 3.313.85 4.875 1.547 1 .431 2.194 1.253 3.29.881 2.82-.861-.117-3.877-1.37-4.602A12.926 12.926 0 0 0 27.3 8.284c-1.058-.314-2.35-.196-1.39-1.43a10.046 10.046 0 0 1 5.346-2.428c3.7-.862 8.812-1.019 9.713 3.642.3 2.46-.29 4.948-1.665 7.01A76.373 76.373 0 0 1 25.89 31.98a71.67 71.67 0 0 1-9.009 7.814c-1.958 1.41-4.543 3.29-7.089 3.29Z"/></svg>