<svg xmlns="http://www.w3.org/2000/svg" width="45" height="45" fill="none"><path fill="#2F88FF" stroke="#000" stroke-linejoin="round" stroke-width="4" d="M14.063 11.25h16.874s3.153 2.823 5.625 3.75c1.748.655 4.688.938 4.688.938s-1.703.608-2.813.937c-1.447.43-3.75.938-3.75.938H10.313s-2.302-.509-3.75-.938c-1.11-.33-2.812-.938-2.812-.938s2.94-.281 4.688-.937c2.471-.927 5.624-3.75 5.624-3.75Z"/><path stroke="#000" stroke-linecap="round" stroke-linejoin="round" stroke-width="4" d="m16.875 11.25 5.625-7.5 5.625 7.5h-11.25Z"/><path stroke="#000" stroke-linecap="round" stroke-width="4" d="M10.313 17.813v17.812M34.688 17.813v17.812"/><path stroke="#000" stroke-linejoin="round" stroke-width="4" d="M39.375 35.625H5.625v5.625h33.75v-5.625Z"/></svg>