<svg width="14" height="14" viewBox="0 0 14 14" fill="none" xmlns="http://www.w3.org/2000/svg">
<path d="M8.41716 2.24719C8.41716 2.24719 8.48616 3.42915 9.52887 4.47131C10.5716 5.51407 11.7529 5.58367 11.7529 5.58367L12.309 5.02749C12.7514 4.58504 13 3.98496 13 3.35925C13 2.73354 12.7514 2.13345 12.309 1.69101C11.8666 1.24856 11.2665 1 10.6409 1C10.0152 1 9.41514 1.24856 8.97271 1.69101L8.41656 2.24719L7.00068 3.66314M11.7529 5.58307L8.59715 8.74016L6.73671 10.5995L6.64071 10.6961C6.29394 11.0423 6.12056 11.2157 5.92977 11.3645C5.70451 11.54 5.46091 11.6907 5.20324 11.8138C4.98486 11.9176 4.75268 11.995 4.28772 12.1498L2.31928 12.8062M2.31928 12.8062L1.83813 12.967C1.72597 13.0046 1.60554 13.0102 1.49039 12.9831C1.37523 12.956 1.26991 12.8974 1.18626 12.8137C1.10262 12.7301 1.04396 12.6247 1.01688 12.5096C0.989806 12.3944 0.995386 12.274 1.03299 12.1618L1.19378 11.6807M2.31928 12.8062L1.19378 11.6807M1.19378 11.6807L1.85012 9.71212C2.00491 9.24714 2.0823 9.01495 2.1861 8.79655C2.30968 8.53776 2.45947 8.29557 2.63546 8.06998C2.78424 7.87919 2.95763 7.70579 3.3038 7.3596L4.90086 5.76306" stroke="black" stroke-width="1.5" stroke-linecap="round"/>
</svg>
