<svg xmlns="http://www.w3.org/2000/svg" width="47" height="47" fill="none" viewBox="0 0 47 47"><path fill="#FFB02E" d="M23.498 44.06c13.71 0 20.562-9.207 20.562-20.563 0-11.353-6.852-20.56-20.563-20.56-13.708 0-20.56 9.207-20.56 20.561 0 11.355 6.85 20.562 20.561 20.562Z"/><path fill="#FF822D" d="M4.77 26.94a1.47 1.47 0 0 0-.348 1.172 1.47 1.47 0 0 0-1.705 2.38l.429.367a1.469 1.469 0 0 0-1.147 2.582l2.915 2.429-.185-.091a1.639 1.639 0 0 0-1.683 2.795c1.897 1.347 4.435 3.131 5.766 4.02 2.203 1.469 4.715 1.971 7.344 0 1.469-1.102 3.327-4.497 1.373-7.881-.37-.64-.702-1.315-.84-2.042-.604-3.202-1.505-6.482-3.47-5.499-1.065.532-.973 1.45-.84 2.754.05.495.105 1.046.105 1.652l-.117.06L6.84 26.8a1.469 1.469 0 0 0-2.07.14Zm37.46 0c.293.333.406.764.349 1.172a1.469 1.469 0 0 1 1.703 2.38l-.428.367a1.469 1.469 0 0 1 1.148 2.582l-2.915 2.429.185-.091a1.639 1.639 0 0 1 1.683 2.795c-1.898 1.347-4.436 3.131-5.768 4.02-2.203 1.469-4.716 1.971-7.344 0-1.468-1.102-3.326-4.497-1.373-7.881.37-.64.702-1.315.84-2.042.604-3.202 1.506-6.482 3.47-5.499 1.066.532.973 1.45.841 2.754-.05.495-.106 1.046-.106 1.652l.118.06 5.525-4.838a1.469 1.469 0 0 1 2.073.14Z"/><path fill="#FF6723" d="M10.281 21.297c0 2.027-1.314 3.672-2.937 3.672-1.623 0-2.938-1.645-2.938-3.672s1.315-3.672 2.938-3.672c1.623 0 2.937 1.645 2.937 3.672Zm32.313 0c0 2.027-1.315 3.672-2.938 3.672-1.623 0-2.937-1.645-2.937-3.672s1.314-3.672 2.937-3.672c1.623 0 2.938 1.645 2.938 3.672Z"/><path fill="#402A32" d="M13.731 15.294c-.309.333-.47.779-.54 1.143a1.469 1.469 0 1 1-2.884-.561c.131-.67.456-1.694 1.26-2.57.848-.923 2.115-1.556 3.854-1.556 1.756 0 3.03.664 3.872 1.59a5.22 5.22 0 0 1 1.249 2.565 1.47 1.47 0 0 1-2.895.502 2.276 2.276 0 0 0-.526-1.09c-.275-.303-.757-.63-1.7-.63-.959 0-1.427.32-1.69.606m16.158.001c-.309.333-.47.779-.54 1.143a1.469 1.469 0 0 1-2.884-.561c.13-.67.455-1.694 1.259-2.57.847-.923 2.115-1.556 3.854-1.556 1.756 0 3.028.664 3.871 1.59a5.22 5.22 0 0 1 1.249 2.565 1.468 1.468 0 1 1-2.895.502 2.277 2.277 0 0 0-.526-1.09c-.275-.303-.756-.63-1.7-.63-.958 0-1.425.32-1.688.606m-15.496 7.326a1.468 1.468 0 0 0-2.35 1.762c1.031 1.375 4.418 4.26 11.457 4.26 7.038 0 10.425-2.885 11.456-4.26a1.47 1.47 0 0 0-2.35-1.762c-.438.583-2.926 3.084-9.106 3.084s-8.669-2.501-9.107-3.084Z"/></svg>