<svg xmlns="http://www.w3.org/2000/svg" width="47" height="47" fill="none" viewBox="0 0 47 47"><path fill="url(#a)" d="M23.498 44.06c13.71 0 20.562-9.207 20.562-20.563 0-11.353-6.852-20.56-20.563-20.56-13.708 0-20.56 9.207-20.56 20.561 0 11.355 6.85 20.562 20.561 20.562Z"/><path fill="url(#b)" d="M23.498 44.06c13.71 0 20.562-9.207 20.562-20.563 0-11.353-6.852-20.56-20.563-20.56-13.708 0-20.56 9.207-20.56 20.561 0 11.355 6.85 20.562 20.561 20.562Z"/><path fill="url(#c)" d="M23.498 44.06c13.71 0 20.562-9.207 20.562-20.563 0-11.353-6.852-20.56-20.563-20.56-13.708 0-20.56 9.207-20.56 20.561 0 11.355 6.85 20.562 20.561 20.562Z"/><path fill="url(#d)" fill-opacity=".6" d="M23.498 44.06c13.71 0 20.562-9.207 20.562-20.563 0-11.353-6.852-20.56-20.563-20.56-13.708 0-20.56 9.207-20.56 20.561 0 11.355 6.85 20.562 20.561 20.562Z"/><path fill="url(#e)" d="M23.498 44.06c13.71 0 20.562-9.207 20.562-20.563 0-11.353-6.852-20.56-20.563-20.56-13.708 0-20.56 9.207-20.56 20.561 0 11.355 6.85 20.562 20.561 20.562Z"/><path fill="url(#f)" d="M23.498 44.06c13.71 0 20.562-9.207 20.562-20.563 0-11.353-6.852-20.56-20.563-20.56-13.708 0-20.56 9.207-20.56 20.561 0 11.355 6.85 20.562 20.561 20.562Z"/><path fill="url(#g)" d="M23.498 44.06c13.71 0 20.562-9.207 20.562-20.563 0-11.353-6.852-20.56-20.563-20.56-13.708 0-20.56 9.207-20.56 20.561 0 11.355 6.85 20.562 20.561 20.562Z"/><path fill="url(#h)" d="M23.498 44.06c13.71 0 20.562-9.207 20.562-20.563 0-11.353-6.852-20.56-20.563-20.56-13.708 0-20.56 9.207-20.56 20.561 0 11.355 6.85 20.562 20.561 20.562Z"/><path fill="#fff" d="M20.501 25.527a6.61 6.61 0 1 0-10.156 0c1.207-.607 3.028-1.293 5.077-1.293s3.87.686 5.08 1.293Z"/><path fill="url(#i)" d="M19.385 25.03a4.406 4.406 0 1 0-6.778-.389 10.283 10.283 0 0 1 2.815-.406c1.491 0 2.861.362 3.963.794Z"/><path fill="url(#j)" fill-rule="evenodd" d="M30.844 20.563c-2.137 0-2.867 1.367-2.982 1.824a1.468 1.468 0 1 1-2.849-.713c.375-1.5 2.093-4.049 5.831-4.049 3.738 0 5.456 2.548 5.83 4.05a1.468 1.468 0 1 1-2.848.713c-.115-.46-.845-1.826-2.982-1.826Z" clip-rule="evenodd"/><path fill="url(#k)" fill-rule="evenodd" d="M30.844 12.484a.734.734 0 0 1 .734-.734c1.137 0 2.559.417 3.797 1.22 1.245.807 2.367 2.05 2.79 3.743a.734.734 0 0 1-1.424.355c-.312-1.244-1.147-2.206-2.167-2.867-1.028-.665-2.173-.982-2.996-.982a.735.735 0 0 1-.734-.735Z" clip-rule="evenodd"/><path fill="url(#l)" fill-rule="evenodd" d="M11.853 11.732c-.873.826-1.398 1.822-1.61 2.453a.734.734 0 1 1-1.392-.464c.279-.837.925-2.044 1.99-3.055 1.075-1.02 2.595-1.854 4.58-1.854a.734.734 0 1 1 0 1.47c-1.538 0-2.71.635-3.568 1.45Z" clip-rule="evenodd"/><path fill="url(#m)" d="M23.5 38.188c-10.281 0-10.281-10.282-10.281-10.282H33.78s0 10.282-10.281 10.282Z"/><path fill="url(#n)" fill-rule="evenodd" d="M33.508 30.11H13.492c-.273-1.287-.273-2.204-.273-2.204H33.78s0 .917-.273 2.203Z" clip-rule="evenodd"/><defs><radialGradient id="a" cx="0" cy="0" r="1" gradientTransform="rotate(132.839 15.842 14.783) scale(55.083)" gradientUnits="userSpaceOnUse"><stop stop-color="#FFF478"/><stop offset=".475" stop-color="#FFB02E"/><stop offset="1" stop-color="#F70A8D"/></radialGradient><radialGradient id="b" cx="0" cy="0" r="1" gradientTransform="rotate(131.878 15.774 14.971) scale(57.2059)" gradientUnits="userSpaceOnUse"><stop stop-color="#FFF478"/><stop offset=".475" stop-color="#FFB02E"/><stop offset="1" stop-color="#F70A8D"/></radialGradient><radialGradient id="c" cx="0" cy="0" r="1" gradientTransform="rotate(101.31 4.224 18.812) scale(26.2122 33.5728)" gradientUnits="userSpaceOnUse"><stop offset=".788" stop-color="#F59639" stop-opacity="0"/><stop offset=".973" stop-color="#FF7DCE"/></radialGradient><radialGradient id="d" cx="0" cy="0" r="1" gradientTransform="rotate(135 8.96 15.757) scale(60.2367)" gradientUnits="userSpaceOnUse"><stop offset=".315" stop-opacity="0"/><stop offset="1"/></radialGradient><radialGradient id="e" cx="0" cy="0" r="1" gradientTransform="rotate(77.692 -3.753 27.075) scale(41.3408)" gradientUnits="userSpaceOnUse"><stop offset=".508" stop-color="#7D6133" stop-opacity="0"/><stop offset="1" stop-color="#715B32"/></radialGradient><radialGradient id="f" cx="0" cy="0" r="1" gradientTransform="rotate(55.713 -10.81 35.045) scale(19.5542 14.1739)" gradientUnits="userSpaceOnUse"><stop stop-color="#FFB849"/><stop offset="1" stop-color="#FFB847" stop-opacity="0"/></radialGradient><radialGradient id="g" cx="0" cy="0" r="1" gradientTransform="rotate(9.866 -138.102 187.647) scale(17.1441)" gradientUnits="userSpaceOnUse"><stop stop-color="#FFA64B"/><stop offset=".9" stop-color="#FFAE46" stop-opacity="0"/></radialGradient><radialGradient id="h" cx="0" cy="0" r="1" gradientTransform="rotate(43.971 -14.433 42.848) scale(86.7339)" gradientUnits="userSpaceOnUse"><stop offset=".185" stop-opacity="0"/><stop offset="1" stop-opacity=".4"/></radialGradient><radialGradient id="j" cx="0" cy="0" r="1" gradientTransform="matrix(0 5.875 -8.60579 0 30.844 22.031)" gradientUnits="userSpaceOnUse"><stop offset=".337" stop-color="#4D274B"/><stop offset=".628" stop-color="#514047"/><stop offset="1" stop-color="#4A342F"/></radialGradient><radialGradient id="m" cx="0" cy="0" r="1" gradientTransform="matrix(0 -12.566 25.1319 0 23.5 40.473)" gradientUnits="userSpaceOnUse"><stop stop-color="#F70A8D"/><stop offset="1" stop-color="#89029C"/></radialGradient><linearGradient id="i" x1="19.547" x2="16.756" y1="17.625" y2="24.101" gradientUnits="userSpaceOnUse"><stop stop-color="#553B3E"/><stop offset="1" stop-color="#3D2432"/></linearGradient><linearGradient id="k" x1="32.067" x2="32.067" y1="18.212" y2="15.569" gradientUnits="userSpaceOnUse"><stop offset=".03" stop-color="#524049"/><stop offset="1" stop-color="#4A2C42"/></linearGradient><linearGradient id="l" x1="10.036" x2="10.036" y1="15.275" y2="12.631" gradientUnits="userSpaceOnUse"><stop offset=".03" stop-color="#524049"/><stop offset="1" stop-color="#4A2C42"/></linearGradient><linearGradient id="n" x1="23.5" x2="23.5" y1="27.906" y2="30.109" gradientUnits="userSpaceOnUse"><stop stop-color="#ECCDFF"/><stop offset="1" stop-color="#fff"/></linearGradient></defs></svg>