<svg xmlns="http://www.w3.org/2000/svg" width="47" height="47" fill="none" viewBox="0 0 47 47"><path fill="#FFB02E" d="M23.498 44.06c13.71 0 20.562-9.207 20.562-20.563 0-11.353-6.852-20.56-20.563-20.56-13.708 0-20.56 9.207-20.56 20.561 0 11.355 6.85 20.562 20.561 20.562Z"/><path fill="#fff" d="M15.304 23.829a6.177 6.177 0 1 0 .19-12.352 6.177 6.177 0 0 0-.19 12.352Zm16.374.113a6.234 6.234 0 1 0 0-12.469 6.234 6.234 0 0 0 0 12.469Z"/><path fill="#402A32" d="M16.156 22.031a4.406 4.406 0 1 0 0-8.812 4.406 4.406 0 0 0 0 8.812Zm14.688 0a4.406 4.406 0 1 0 0-8.812 4.406 4.406 0 0 0 0 8.812Zm-4.891 2.82a1.47 1.47 0 0 0 0 2.938.764.764 0 0 1 0 1.527 1.47 1.47 0 0 0 0 2.938.764.764 0 0 1 0 1.527 1.47 1.47 0 0 0 0 2.938 3.7 3.7 0 0 0 2.952-5.934 3.7 3.7 0 0 0-2.952-5.934Z"/></svg>