<svg xmlns="http://www.w3.org/2000/svg" width="40" height="40" fill="none"><path fill="#000" d="M28 40c-3.333 0-6.167-1.167-8.5-3.5S16 31.333 16 28s1.167-6.167 3.5-8.5S24.667 16 28 16s6.167 1.167 8.5 3.5S40 24.667 40 28s-1.167 6.167-3.5 8.5S31.333 40 28 40Zm0-4c2.2 0 4.083-.783 5.65-2.35C35.217 32.083 36 30.2 36 28s-.783-4.083-2.35-5.65C32.083 20.783 30.2 20 28 20s-4.083.783-5.65 2.35C20.783 23.917 20 25.8 20 28s.783 4.083 2.35 5.65C23.917 35.217 25.8 36 28 36ZM4 36c-1.1 0-2.041-.391-2.824-1.174C.393 34.043.001 33.101 0 32V16.8c0-.267.025-.533.076-.8.05-.267.125-.533.224-.8l4-9.2H4c-.567 0-1.041-.192-1.424-.576C2.193 5.04 2.001 4.565 2 4V2c0-.567.192-1.041.576-1.424C2.96.193 3.435.001 4 0h14c.567 0 1.042.192 1.426.576.384.384.575.859.574 1.424v2c0 .567-.192 1.042-.576 1.426-.384.384-.859.575-1.424.574h-.3l3.3 7.6a23.2 23.2 0 0 0-1.8 1.05c-.567.367-1.1.783-1.6 1.25L13.4 6H8.6L4 16.8V32h8.5c.167.7.391 1.392.674 2.076.283.684.625 1.325 1.026 1.924H4Zm24-22c-1.4 0-2.583-.483-3.55-1.45C23.483 11.583 23 10.4 23 9s.483-2.583 1.45-3.55C25.417 4.483 26.6 4 28 4v10Zm0 0c0-1.4.483-2.583 1.45-3.55C30.417 9.483 31.6 9 33 9s2.583.483 3.55 1.45C37.517 11.417 38 12.6 38 14H28Z"/></svg>