<svg xmlns="http://www.w3.org/2000/svg" width="51" height="51" fill="none"><path fill="#F5F5F5" d="M25.5 49.406c13.203 0 23.906-10.703 23.906-23.906S38.703 1.594 25.5 1.594 1.594 12.297 1.594 25.5 12.297 49.406 25.5 49.406Z"/><path fill="#ED4C5C" d="M18.647 26.855c2.232 1.514 5.34.876 6.853-1.355a4.966 4.966 0 0 1 6.853-1.355c2.152 1.435 2.79 4.224 1.594 6.375 2.63-4.462 1.435-10.28-3.028-13.228-4.542-3.028-10.678-1.833-13.706 2.71-.08.159-.16.318-.24.398-1.115 2.311-.398 5.02 1.674 6.455Z"/><path fill="#428BC1" d="M32.353 24.145c-2.23-1.514-5.339-.876-6.853 1.355a4.966 4.966 0 0 1-6.853 1.355c-2.151-1.435-2.789-4.224-1.593-6.375-2.71 4.462-1.435 10.28 3.028 13.228 4.542 3.028 10.678 1.832 13.706-2.71.08-.16.16-.319.239-.398 1.116-2.311.398-5.02-1.674-6.455Z"/><path fill="#3E4347" d="m6.215 18.567 5.499-8.208-.558-.398-.558-.319L5.1 17.85l.557.319.558.398Zm1.514 1.036.558.319 5.419-8.208-.478-.319-.558-.398-5.499 8.208.558.398Zm6.933-7.252L9.243 20.56l.558.399.558.319 5.419-8.208-.558-.32-.558-.398Zm23.986 21.516.558.399 2.55-3.825-.558-.399-.558-.319-2.55 3.825.558.32Zm6.136-1.434-2.55 3.825.558.398.558.319 2.55-3.825-.558-.319-.558-.398Zm-3.506 3.187 2.55-3.825-.558-.398-.558-.319-2.55 3.825.558.319.558.398Zm-2.949-1.195-.557-.319-2.55 3.825.557.319.558.398 2.55-3.825-.558-.398Zm1.992 1.355-.478-.32-2.55 3.826.479.319.557.398 2.55-3.825-.557-.398Zm1.515 1.035-2.55 3.826.557.398.558.319 2.55-3.825-.558-.399-.557-.319ZM5.657 32.831l-.557.319 5.498 8.208.558-.319.558-.398-5.499-8.208-.558.398Zm5.02 2.949-.557.398 2.55 3.825.558-.398.478-.32-2.55-3.824-.478.319Zm-.876-5.738-.558.398 5.42 8.208.557-.398.558-.319-5.419-8.208-.558.32Zm-2.63 1.753 2.55 3.825.558-.398.558-.319-2.55-3.825-.558.319-.558.398Zm35.222-17.93.558-.398-2.55-3.825-.558.319-.558.398 2.55 3.825.558-.318Zm-4.064 2.71.558-.398-2.55-3.825-.558.398-.558.319 2.55 3.825.558-.32Zm3.905-1.833 2.55 3.825.558-.398.558-.32-2.55-3.824-.558.319-.558.398Zm1.036 4.861.558-.398-5.499-8.208-.557.398-.479.319 5.42 8.208.557-.319Zm-2.072 1.355.558-.399-2.55-3.825-.558.399-.558.319 2.55 3.824.558-.318Z"/></svg>