<svg xmlns="http://www.w3.org/2000/svg" width="10" height="11" fill="none"><path stroke="#FFB849" stroke-linecap="round" stroke-width="1.5" d="M5.945 1.935s.046.887.74 1.668c.696.783 1.484.835 1.484.835l.37-.417C8.834 3.689 9 3.239 9 2.769c0-.469-.166-.919-.46-1.25A1.49 1.49 0 0 0 7.426 1a1.49 1.49 0 0 0-1.112.518l-.37.417L5 2.997m3.169 1.44L6.065 6.805 4.825 8.2l-.065.072c-.23.26-.346.39-.473.501a2.61 2.61 0 0 1-.485.337c-.145.078-.3.136-.61.252l-1.312.493m0 0-.321.12a.38.38 0 0 1-.232.012.414.414 0 0 1-.203-.127.496.496 0 0 1-.113-.228.534.534 0 0 1 .011-.26l.107-.362m.75.845-.75-.845m0 0 .438-1.476c.103-.349.155-.523.224-.687.082-.194.182-.375.3-.545.098-.143.214-.273.445-.532L3.6 4.572"/></svg>