<svg xmlns="http://www.w3.org/2000/svg" width="40" height="40" fill="none"><path fill="#FF9A62" d="M12 36.484c-3.267-1.272-6.083-3.156-8.45-5.65C1.183 28.34 0 25.368 0 21.918c0-.57.192-1.046.576-1.43.384-.385.859-.578 1.424-.58h2V5.645c0-.502.167-.938.5-1.306a1.99 1.99 0 0 1 1.25-.653L38.35.018c.467-.067.859.05 1.176.352.317.301.475.686.474 1.155 0 .368-.133.695-.4.979a1.46 1.46 0 0 1-.95.478L17 5.442v3.416h21.5c.433 0 .792.142 1.076.426.284.284.425.645.424 1.081-.001.437-.143.797-.426 1.081-.283.284-.64.426-1.074.426H17v8.037h21c.567 0 1.042.193 1.426.578.384.386.575.863.574 1.43 0 3.45-1.183 6.422-3.55 8.917-2.367 2.496-5.183 4.379-8.45 5.65v1.507c0 .57-.192 1.047-.576 1.432-.384.386-.859.578-1.424.577H14c-.567 0-1.041-.193-1.424-.579-.383-.385-.575-.862-.576-1.43v-1.507Zm0-27.626h2V5.795l-2 .2v2.863Zm-5 0h2V6.347l-2 .2v2.311Zm5 11.05h2v-8.036h-2v8.037Zm-5 0h2v-8.036H7v8.037Zm9 16.074h8v-2.21l2.5-1.005a16.422 16.422 0 0 0 5.4-3.466 13.198 13.198 0 0 0 3.4-5.374H4.7a13.406 13.406 0 0 0 3.4 5.4 15.557 15.557 0 0 0 5.4 3.44l2.5 1.005v2.21Z"/></svg>