<svg xmlns="http://www.w3.org/2000/svg" width="36" height="44" fill="none"><path fill="#545454" d="M6.357 0H6.33a.368.368 0 0 0-.132.06c-.12.071-.304.255-.476.538-.345.565-.623 1.483-.71 2.188-.189 1.53.323 2.32 1.255 3.079.472.384 1.061.717 1.692 1.03-.305-1.339-.301-2.679-.353-3.806-.04-.87-.116-1.617-.293-2.118-.175-.495-.367-.747-.849-.942A.476.476 0 0 0 6.357 0Zm10.5 1.125c-2.591.012-5.173.116-7.694.272.084.524.116 1.063.14 1.609l.014.297c2.048 1.987 3.21 2.136 4.232 2.006.52-.066 1.032-.244 1.617-.39.097-.023.194-.044.291-.064.801-.808 1.876-1.436 3.148-1.962a5.648 5.648 0 0 1 2.388-.427 6.08 6.08 0 0 1 2.158.493 6.313 6.313 0 0 1 1.625 1.002c.212-.061.427-.091.644-.095.678-.012 1.375.224 2.045.527 1.072.485 2.136 1.238 3.002 2.048.2.188.39.374.57.562l1.512-.305.248-.188c1.247-.947 2.151-2.042 2.834-3.076-5.35-1.666-11.462-2.269-17.602-2.308-.39-.003-.781-.003-1.172-.001Zm-13.408.71c-1.136.101-2.271.208-3.406.319.107 1.097.592 2.123 1.705 3.191l.299.287 2.108.471c-.638-.93-1.004-2.12-.829-3.542.03-.235.07-.479.123-.726Zm17.283 2.387c-.488.006-.992.1-1.497.31-1.307.54-2.274 1.18-2.826 1.844-.552.664-.747 1.3-.592 2.192.009.05.018.099.029.147l3.17.71 6.578-1.326a9.17 9.17 0 0 1-1.157-1.84c-.235-.51-.973-1.258-1.936-1.671a4.412 4.412 0 0 0-1.77-.366Zm5.39 1.553a14.86 14.86 0 0 0 1.098 1.588c.1.118.203.233.307.347l1.43-.288c-.67-.566-1.458-1.09-2.171-1.413a4.181 4.181 0 0 0-.664-.234Zm-16.475.058c.09.56.208 1.089.359 1.578l4.077.91a4.453 4.453 0 0 1 .135-1.339 6.47 6.47 0 0 1-.462.077c-1.114.142-2.485-.091-4.109-1.226ZM2.51 7.539l-.791 7.499 8.893.226c2.014-1.886 4.59-3.023 7.41-3.023 3.008 0 5.736 1.293 7.803 3.409l7.363.186-.476-7.374L19 11.224 2.51 7.539Zm15.512 6.465c-5.498 0-10.029 5.165-10.029 11.668 0 6.502 4.531 11.668 10.029 11.668 5.497 0 10.028-5.166 10.028-11.668 0-6.503-4.531-11.668-10.028-11.668ZM.985 16.783l-.593 6.155c-.525 5.442.777 11.004 2.859 16.608l.157.422-.24.378C2.453 41.481 1.302 42.488 0 43.424c1.394.124 2.81.224 4.24.304l2.165-2.841L7.74 41.98l-1.41 1.85c1.338.057 2.687.098 4.044.125l.105-2.524 1.698.076-.103 2.476c1.514.019 3.036.02 4.56.012v-2.51h1.7v2.498a412.64 412.64 0 0 0 4.772-.08l-.369-2.362 1.678-.282.406 2.603c1.552-.039 3.086-.085 4.616-.131l-1.312-2.275 1.458-.905 1.8 3.121c1.558-.048 3.101-.097 4.618-.14-1.202-1.153-2.397-2.374-3.062-3.866l-.105-.235.035-.257s1.17-8.78 1.183-13.019c.007-2.286-.21-5.457-.486-8.545l-6.274-.16c1.543 2.28 2.458 5.138 2.458 8.222 0 7.359-5.21 13.43-11.728 13.43-6.519 0-11.728-6.071-11.728-13.43 0-3.297 1.045-6.334 2.785-8.684l-8.093-.205Zm22.426 4.056c.584-.014 1.156.22 1.613.565.65.49 1.165 1.216 1.495 2.066.66 1.702.478 4.064-1.441 5.62-1.669 1.352-3.618 1.6-5.396 1.023a7.364 7.364 0 0 1-.597-.225c-1.205.385-2.606.888-4.057.951-1.564.068-3.26-.523-4.375-2.292-.503-.797-.946-1.817-1.09-2.855-.072-.519-.074-1.053.108-1.578a2.13 2.13 0 0 1 1.168-1.253l.014-.005.013-.005c.313-.116.64-.178.972-.185a3.226 3.226 0 0 1 1.683.45c.75.436 1.353 1.077 1.955 1.742l.196.217c2.802.131 3.78-.54 4.474-1.326.355-.401.632-.881.986-1.386.355-.504.821-1.055 1.54-1.364.235-.1.486-.155.74-.16Zm.096 1.755a.411.411 0 0 0-.184.034c-.312.134-.53.365-.817.773-.287.409-.607.973-1.107 1.54-.758.858-1.947 1.604-3.892 1.835.675.591 1.363 1.072 2.037 1.394l1.242.415c1.117.22 2.164-.008 3.245-.884 1.337-1.084 1.354-2.432.912-3.572-.222-.57-.585-1.048-.919-1.3-.219-.165-.384-.23-.517-.235Zm-11.57 1.812a1.486 1.486 0 0 0-.484.1c-.121.052-.138.077-.183.205-.046.134-.071.398-.025.73.092.661.455 1.547.83 2.14.814 1.292 1.699 1.548 2.882 1.497.6-.026 1.256-.17 1.931-.357-1.07-.812-1.906-1.834-2.65-2.657-.576-.634-1.101-1.15-1.55-1.412-.224-.131-.412-.212-.607-.238a1.005 1.005 0 0 0-.144-.008Z"/></svg>