<svg xmlns="http://www.w3.org/2000/svg" width="50" height="50" fill="none"><path fill="#F24E1E" d="M8.334 34.375V16.667H6.25v-2.084h2.084V12.5H6.25v-2.083h2.084V8.333H6.25V6.25h12.5c1.042.063 1.98.5 2.792 1.313a4.672 4.672 0 0 1 1.375 2.854H43.75V12.5H22.917c-.104 1.104-.563 2.083-1.375 2.98-.813.895-1.75 1.29-2.792 1.187h-4.166v14.687c.104 0 .27-.02.5-.104.229-.083.416 0 .541 0 1.167 0 2.5.292 4 .875.855-1.917 2.313-3.625 4.396-5.042C26.105 25.667 28.188 25 30.271 25c3.188 0 5.896 1.104 8.104 3.313 2.209 2.208 3.292 4.916 3.292 8.145v.563c0 .27-.063.416-.063.479H6.543c.27-1.042.854-2.083 1.792-3.125Zm4.166-2.646V16.667h-2.083v16.041c1.042-.52 1.688-.833 2.083-.979Zm6.25-17.146V12.5h-4.166v2.083h4.166Zm0-6.25h-4.166v2.084h4.166V8.333Zm-8.333 0v2.084H12.5V8.333h-2.083Zm0 4.167v2.083H12.5V12.5h-2.083Zm-6.25 27.083h41.667l-4.167 4.167H8.334l-4.167-4.167Z"/></svg>