<svg xmlns="http://www.w3.org/2000/svg" width="12" height="12" fill="none"><path fill="#FFB849" d="M10.125 2.25H8.437v-.563A1.312 1.312 0 0 0 7.125.375h-2.25a1.312 1.312 0 0 0-1.313 1.313v.562H1.875a.563.563 0 1 0 0 1.125h.188V9.75a.937.937 0 0 0 .937.938h6a.938.938 0 0 0 .938-.938V3.375h.187a.562.562 0 1 0 0-1.125Zm-5.438-.563a.187.187 0 0 1 .188-.187h2.25a.187.187 0 0 1 .188.188v.562H4.688v-.563Zm4.125 7.875H3.189V3.375h5.624v6.188ZM5.438 4.875v3a.563.563 0 1 1-1.125 0v-3a.563.563 0 1 1 1.125 0Zm2.25 0v3a.563.563 0 1 1-1.125 0v-3a.563.563 0 1 1 1.125 0Z"/></svg>